<mxfile host="app.diagrams.net" agent="Mozilla/5.0 (Windows NT 10.0; Win64; x64) AppleWebKit/537.36 (KHTML, like Gecko) Chrome/138.0.0.0 Safari/537.36 Edg/138.0.0.0" version="27.2.0">
  <diagram name="Page-1" id="CIqoce1-qyK3vo3lKIBg">
    <mxGraphModel dx="3591" dy="2148" grid="1" gridSize="10" guides="1" tooltips="1" connect="1" arrows="1" fold="1" page="1" pageScale="1" pageWidth="850" pageHeight="1100" math="0" shadow="0">
      <root>
        <mxCell id="0" />
        <mxCell id="1" parent="0" />
        <mxCell id="j-9rDOzRSI_zfjBaEmqv-107" value="" style="rounded=0;whiteSpace=wrap;html=1;fillColor=none;strokeColor=#FF0000;" vertex="1" parent="1">
          <mxGeometry x="-1474" y="-140" width="1454" height="690" as="geometry" />
        </mxCell>
        <mxCell id="j-9rDOzRSI_zfjBaEmqv-78" value="" style="rounded=0;whiteSpace=wrap;html=1;dashed=1;dashPattern=12 12;fillColor=none;strokeColor=#0000CC;" vertex="1" parent="1">
          <mxGeometry x="-281" y="40.5" width="231" height="219.5" as="geometry" />
        </mxCell>
        <mxCell id="j-9rDOzRSI_zfjBaEmqv-66" value="" style="rounded=0;whiteSpace=wrap;html=1;strokeColor=default;dashed=1;dashPattern=8 8;fillColor=none;" vertex="1" parent="1">
          <mxGeometry x="-1450" y="177.5" width="330" height="120" as="geometry" />
        </mxCell>
        <mxCell id="j-9rDOzRSI_zfjBaEmqv-24" value="" style="rounded=0;whiteSpace=wrap;html=1;fillColor=none;dashed=1;dashPattern=8 8;" vertex="1" parent="1">
          <mxGeometry x="-772.5" y="170" width="162.5" height="150" as="geometry" />
        </mxCell>
        <mxCell id="j-9rDOzRSI_zfjBaEmqv-2" value="" style="aspect=fixed;sketch=0;html=1;dashed=0;whitespace=wrap;verticalLabelPosition=bottom;verticalAlign=top;fillColor=#2875E2;strokeColor=#ffffff;points=[[0.005,0.63,0],[0.1,0.2,0],[0.9,0.2,0],[0.5,0,0],[0.995,0.63,0],[0.72,0.99,0],[0.5,1,0],[0.28,0.99,0]];shape=mxgraph.kubernetes.icon2;prIcon=ing" vertex="1" parent="1">
          <mxGeometry x="-1297.5" y="978" width="50" height="48" as="geometry" />
        </mxCell>
        <mxCell id="j-9rDOzRSI_zfjBaEmqv-9" style="edgeStyle=orthogonalEdgeStyle;rounded=0;orthogonalLoop=1;jettySize=auto;html=1;" edge="1" parent="1" source="j-9rDOzRSI_zfjBaEmqv-4" target="j-9rDOzRSI_zfjBaEmqv-5">
          <mxGeometry relative="1" as="geometry" />
        </mxCell>
        <mxCell id="j-9rDOzRSI_zfjBaEmqv-4" value="" style="aspect=fixed;sketch=0;html=1;dashed=0;whitespace=wrap;verticalLabelPosition=bottom;verticalAlign=top;fillColor=#2875E2;strokeColor=#ffffff;points=[[0.005,0.63,0],[0.1,0.2,0],[0.9,0.2,0],[0.5,0,0],[0.995,0.63,0],[0.72,0.99,0],[0.5,1,0],[0.28,0.99,0]];shape=mxgraph.kubernetes.icon2;prIcon=svc" vertex="1" parent="1">
          <mxGeometry x="-1161.5" y="890" width="50" height="48" as="geometry" />
        </mxCell>
        <mxCell id="j-9rDOzRSI_zfjBaEmqv-5" value="" style="aspect=fixed;sketch=0;html=1;dashed=0;whitespace=wrap;verticalLabelPosition=bottom;verticalAlign=top;fillColor=#2875E2;strokeColor=#ffffff;points=[[0.005,0.63,0],[0.1,0.2,0],[0.9,0.2,0],[0.5,0,0],[0.995,0.63,0],[0.72,0.99,0],[0.5,1,0],[0.28,0.99,0]];shape=mxgraph.kubernetes.icon2;prIcon=pod" vertex="1" parent="1">
          <mxGeometry x="-1004" y="890" width="50" height="48" as="geometry" />
        </mxCell>
        <mxCell id="j-9rDOzRSI_zfjBaEmqv-11" value="Pod&amp;nbsp;&lt;div&gt;Hōko&#39;s API Server&lt;/div&gt;" style="text;html=1;align=center;verticalAlign=middle;whiteSpace=wrap;rounded=0;" vertex="1" parent="1">
          <mxGeometry x="-1036.5" y="950" width="115" height="30" as="geometry" />
        </mxCell>
        <mxCell id="j-9rDOzRSI_zfjBaEmqv-12" value="LB SVC&lt;div&gt;Load Balancer&lt;/div&gt;" style="text;html=1;align=center;verticalAlign=middle;whiteSpace=wrap;rounded=0;" vertex="1" parent="1">
          <mxGeometry x="-1194" y="950" width="115" height="30" as="geometry" />
        </mxCell>
        <mxCell id="j-9rDOzRSI_zfjBaEmqv-14" value="Ingress Controller" style="text;html=1;align=center;verticalAlign=middle;whiteSpace=wrap;rounded=0;" vertex="1" parent="1">
          <mxGeometry x="-1330" y="1027" width="115" height="30" as="geometry" />
        </mxCell>
        <mxCell id="j-9rDOzRSI_zfjBaEmqv-21" value="" style="edgeStyle=orthogonalEdgeStyle;rounded=0;orthogonalLoop=1;jettySize=auto;html=1;" edge="1" parent="1" source="j-9rDOzRSI_zfjBaEmqv-15" target="j-9rDOzRSI_zfjBaEmqv-20">
          <mxGeometry relative="1" as="geometry" />
        </mxCell>
        <mxCell id="j-9rDOzRSI_zfjBaEmqv-15" value="" style="aspect=fixed;sketch=0;html=1;dashed=0;whitespace=wrap;verticalLabelPosition=bottom;verticalAlign=top;fillColor=#2875E2;strokeColor=#ffffff;points=[[0.005,0.63,0],[0.1,0.2,0],[0.9,0.2,0],[0.5,0,0],[0.995,0.63,0],[0.72,0.99,0],[0.5,1,0],[0.28,0.99,0]];shape=mxgraph.kubernetes.icon2;prIcon=svc" vertex="1" parent="1">
          <mxGeometry x="-811.25" y="760" width="50" height="48" as="geometry" />
        </mxCell>
        <mxCell id="j-9rDOzRSI_zfjBaEmqv-19" value="&amp;nbsp;LB SVC&lt;div&gt;Hōko&#39;s Main-Controller&lt;/div&gt;" style="text;html=1;align=center;verticalAlign=middle;whiteSpace=wrap;rounded=0;" vertex="1" parent="1">
          <mxGeometry x="-852.4999999999999" y="820" width="132.5" height="30" as="geometry" />
        </mxCell>
        <mxCell id="j-9rDOzRSI_zfjBaEmqv-20" value="" style="aspect=fixed;sketch=0;html=1;dashed=0;whitespace=wrap;verticalLabelPosition=bottom;verticalAlign=top;fillColor=#2875E2;strokeColor=#ffffff;points=[[0.005,0.63,0],[0.1,0.2,0],[0.9,0.2,0],[0.5,0,0],[0.995,0.63,0],[0.72,0.99,0],[0.5,1,0],[0.28,0.99,0]];shape=mxgraph.kubernetes.icon2;prIcon=pod" vertex="1" parent="1">
          <mxGeometry x="-661.25" y="760" width="50" height="48" as="geometry" />
        </mxCell>
        <mxCell id="j-9rDOzRSI_zfjBaEmqv-22" value="Pod&amp;nbsp;&lt;div&gt;Hōko&#39;s Main-Controller&lt;/div&gt;" style="text;html=1;align=center;verticalAlign=middle;whiteSpace=wrap;rounded=0;" vertex="1" parent="1">
          <mxGeometry x="-702.5" y="820" width="132.5" height="30" as="geometry" />
        </mxCell>
        <mxCell id="j-9rDOzRSI_zfjBaEmqv-30" value="" style="aspect=fixed;sketch=0;html=1;dashed=0;whitespace=wrap;verticalLabelPosition=bottom;verticalAlign=top;fillColor=#2875E2;strokeColor=#ffffff;points=[[0.005,0.63,0],[0.1,0.2,0],[0.9,0.2,0],[0.5,0,0],[0.995,0.63,0],[0.72,0.99,0],[0.5,1,0],[0.28,0.99,0]];shape=mxgraph.kubernetes.icon2;kubernetesLabel=1;prIcon=api" vertex="1" parent="1">
          <mxGeometry x="-707.92" y="257.5" width="41.67" height="40" as="geometry" />
        </mxCell>
        <mxCell id="j-9rDOzRSI_zfjBaEmqv-32" value="" style="aspect=fixed;sketch=0;html=1;dashed=0;whitespace=wrap;verticalLabelPosition=bottom;verticalAlign=top;fillColor=#2875E2;strokeColor=#ffffff;points=[[0.005,0.63,0],[0.1,0.2,0],[0.9,0.2,0],[0.5,0,0],[0.995,0.63,0],[0.72,0.99,0],[0.5,1,0],[0.28,0.99,0]];shape=mxgraph.kubernetes.icon2;kubernetesLabel=1;prIcon=c_m" vertex="1" parent="1">
          <mxGeometry x="-757.5000000000001" y="203.5" width="41.67" height="40" as="geometry" />
        </mxCell>
        <mxCell id="j-9rDOzRSI_zfjBaEmqv-33" value="" style="aspect=fixed;sketch=0;html=1;dashed=0;whitespace=wrap;verticalLabelPosition=bottom;verticalAlign=top;fillColor=#2875E2;strokeColor=#ffffff;points=[[0.005,0.63,0],[0.1,0.2,0],[0.9,0.2,0],[0.5,0,0],[0.995,0.63,0],[0.72,0.99,0],[0.5,1,0],[0.28,0.99,0]];shape=mxgraph.kubernetes.icon2;kubernetesLabel=1;prIcon=etcd" vertex="1" parent="1">
          <mxGeometry x="-757.5" y="257.5" width="41.67" height="40" as="geometry" />
        </mxCell>
        <mxCell id="j-9rDOzRSI_zfjBaEmqv-34" value="" style="aspect=fixed;sketch=0;html=1;dashed=0;whitespace=wrap;verticalLabelPosition=bottom;verticalAlign=top;fillColor=#2875E2;strokeColor=#ffffff;points=[[0.005,0.63,0],[0.1,0.2,0],[0.9,0.2,0],[0.5,0,0],[0.995,0.63,0],[0.72,0.99,0],[0.5,1,0],[0.28,0.99,0]];shape=mxgraph.kubernetes.icon2;kubernetesLabel=1;prIcon=hpa" vertex="1" parent="1">
          <mxGeometry x="-664.16" y="230" width="41.67" height="40" as="geometry" />
        </mxCell>
        <mxCell id="j-9rDOzRSI_zfjBaEmqv-35" value="" style="aspect=fixed;sketch=0;html=1;dashed=0;whitespace=wrap;verticalLabelPosition=bottom;verticalAlign=top;fillColor=#2875E2;strokeColor=#ffffff;points=[[0.005,0.63,0],[0.1,0.2,0],[0.9,0.2,0],[0.5,0,0],[0.995,0.63,0],[0.72,0.99,0],[0.5,1,0],[0.28,0.99,0]];shape=mxgraph.kubernetes.icon2;kubernetesLabel=1;prIcon=kubelet" vertex="1" parent="1">
          <mxGeometry x="-1414.07" y="205.5" width="60.42" height="58" as="geometry" />
        </mxCell>
        <mxCell id="j-9rDOzRSI_zfjBaEmqv-37" value="" style="aspect=fixed;sketch=0;html=1;dashed=0;whitespace=wrap;verticalLabelPosition=bottom;verticalAlign=top;fillColor=#2875E2;strokeColor=#ffffff;points=[[0.005,0.63,0],[0.1,0.2,0],[0.9,0.2,0],[0.5,0,0],[0.995,0.63,0],[0.72,0.99,0],[0.5,1,0],[0.28,0.99,0]];shape=mxgraph.kubernetes.icon2;kubernetesLabel=1;prIcon=control_plane" vertex="1" parent="1">
          <mxGeometry x="-790" y="150" width="50" height="48" as="geometry" />
        </mxCell>
        <mxCell id="j-9rDOzRSI_zfjBaEmqv-91" value="" style="edgeStyle=orthogonalEdgeStyle;rounded=0;orthogonalLoop=1;jettySize=auto;html=1;entryX=0.995;entryY=0.63;entryDx=0;entryDy=0;entryPerimeter=0;strokeColor=#99004D;" edge="1" parent="1" source="j-9rDOzRSI_zfjBaEmqv-38" target="j-9rDOzRSI_zfjBaEmqv-89">
          <mxGeometry relative="1" as="geometry">
            <Array as="points">
              <mxPoint x="-680" y="430" />
              <mxPoint x="-680" y="430" />
            </Array>
          </mxGeometry>
        </mxCell>
        <mxCell id="j-9rDOzRSI_zfjBaEmqv-38" value="" style="aspect=fixed;sketch=0;html=1;dashed=0;whitespace=wrap;verticalLabelPosition=bottom;verticalAlign=top;fillColor=#2875E2;strokeColor=#ffffff;points=[[0.005,0.63,0],[0.1,0.2,0],[0.9,0.2,0],[0.5,0,0],[0.995,0.63,0],[0.72,0.99,0],[0.5,1,0],[0.28,0.99,0]];shape=mxgraph.kubernetes.icon2;prIcon=deploy" vertex="1" parent="1">
          <mxGeometry x="-660" y="400" width="50" height="48" as="geometry" />
        </mxCell>
        <mxCell id="j-9rDOzRSI_zfjBaEmqv-39" value="" style="aspect=fixed;sketch=0;html=1;dashed=0;whitespace=wrap;verticalLabelPosition=bottom;verticalAlign=top;fillColor=#2875E2;strokeColor=#ffffff;points=[[0.005,0.63,0],[0.1,0.2,0],[0.9,0.2,0],[0.5,0,0],[0.995,0.63,0],[0.72,0.99,0],[0.5,1,0],[0.28,0.99,0]];shape=mxgraph.kubernetes.icon2;kubernetesLabel=1;prIcon=node" vertex="1" parent="1">
          <mxGeometry x="-1470" y="157.5" width="50" height="48" as="geometry" />
        </mxCell>
        <mxCell id="j-9rDOzRSI_zfjBaEmqv-40" value="" style="aspect=fixed;sketch=0;html=1;dashed=0;whitespace=wrap;verticalLabelPosition=bottom;verticalAlign=top;fillColor=#2875E2;strokeColor=#ffffff;points=[[0.005,0.63,0],[0.1,0.2,0],[0.9,0.2,0],[0.5,0,0],[0.995,0.63,0],[0.72,0.99,0],[0.5,1,0],[0.28,0.99,0]];shape=mxgraph.kubernetes.icon2;kubernetesLabel=1;prIcon=sched" vertex="1" parent="1">
          <mxGeometry x="-710" y="201.5" width="45.84" height="44" as="geometry" />
        </mxCell>
        <mxCell id="j-9rDOzRSI_zfjBaEmqv-41" value="K8S Control-Plane&lt;div&gt;Master&lt;/div&gt;" style="text;html=1;align=center;verticalAlign=middle;whiteSpace=wrap;rounded=0;" vertex="1" parent="1">
          <mxGeometry x="-748.75" y="326" width="115" height="30" as="geometry" />
        </mxCell>
        <mxCell id="j-9rDOzRSI_zfjBaEmqv-61" style="rounded=0;orthogonalLoop=1;jettySize=auto;html=1;exitX=0;exitY=1;exitDx=0;exitDy=0;entryX=1;entryY=0;entryDx=0;entryDy=0;shape=link;" edge="1" parent="1">
          <mxGeometry relative="1" as="geometry">
            <mxPoint x="-542.5" y="119.00000000000023" as="sourcePoint" />
            <mxPoint x="-610" y="167" as="targetPoint" />
          </mxGeometry>
        </mxCell>
        <mxCell id="j-9rDOzRSI_zfjBaEmqv-63" value="K8S Cluster Network" style="edgeLabel;html=1;align=center;verticalAlign=middle;resizable=0;points=[];fontColor=#666666;" vertex="1" connectable="0" parent="j-9rDOzRSI_zfjBaEmqv-61">
          <mxGeometry x="0.0172" y="-3" relative="1" as="geometry">
            <mxPoint as="offset" />
          </mxGeometry>
        </mxCell>
        <mxCell id="j-9rDOzRSI_zfjBaEmqv-42" value="" style="rounded=0;whiteSpace=wrap;html=1;fillColor=none;dashed=1;dashPattern=8 8;" vertex="1" parent="1">
          <mxGeometry x="-542.5" y="-28" width="162.5" height="150" as="geometry" />
        </mxCell>
        <mxCell id="j-9rDOzRSI_zfjBaEmqv-46" value="" style="aspect=fixed;sketch=0;html=1;dashed=0;whitespace=wrap;verticalLabelPosition=bottom;verticalAlign=top;fillColor=#2875E2;strokeColor=#ffffff;points=[[0.005,0.63,0],[0.1,0.2,0],[0.9,0.2,0],[0.5,0,0],[0.995,0.63,0],[0.72,0.99,0],[0.5,1,0],[0.28,0.99,0]];shape=mxgraph.kubernetes.icon2;kubernetesLabel=1;prIcon=control_plane" vertex="1" parent="1">
          <mxGeometry x="-560" y="-48" width="50" height="48" as="geometry" />
        </mxCell>
        <mxCell id="j-9rDOzRSI_zfjBaEmqv-56" style="edgeStyle=orthogonalEdgeStyle;rounded=0;orthogonalLoop=1;jettySize=auto;html=1;entryX=1;entryY=0.5;entryDx=0;entryDy=0;" edge="1" parent="1" source="j-9rDOzRSI_zfjBaEmqv-48" target="j-9rDOzRSI_zfjBaEmqv-41">
          <mxGeometry relative="1" as="geometry">
            <Array as="points">
              <mxPoint x="-460" y="341" />
            </Array>
          </mxGeometry>
        </mxCell>
        <mxCell id="j-9rDOzRSI_zfjBaEmqv-57" value="HA Cluster Join" style="edgeLabel;html=1;align=center;verticalAlign=middle;resizable=0;points=[];" vertex="1" connectable="0" parent="j-9rDOzRSI_zfjBaEmqv-56">
          <mxGeometry x="-0.4936" y="2" relative="1" as="geometry">
            <mxPoint as="offset" />
          </mxGeometry>
        </mxCell>
        <mxCell id="j-9rDOzRSI_zfjBaEmqv-48" value="K8S Control-Plane&lt;div&gt;Secondary&lt;/div&gt;" style="text;html=1;align=center;verticalAlign=middle;whiteSpace=wrap;rounded=0;" vertex="1" parent="1">
          <mxGeometry x="-518.75" y="128" width="115" height="30" as="geometry" />
        </mxCell>
        <mxCell id="j-9rDOzRSI_zfjBaEmqv-60" style="edgeStyle=orthogonalEdgeStyle;rounded=0;orthogonalLoop=1;jettySize=auto;html=1;entryX=0;entryY=0.5;entryDx=0;entryDy=0;shape=link;" edge="1" parent="1" source="j-9rDOzRSI_zfjBaEmqv-49" target="j-9rDOzRSI_zfjBaEmqv-42">
          <mxGeometry relative="1" as="geometry" />
        </mxCell>
        <mxCell id="j-9rDOzRSI_zfjBaEmqv-65" value="K8S Cluster Network" style="edgeLabel;html=1;align=center;verticalAlign=middle;resizable=0;points=[];fontColor=#666666;" vertex="1" connectable="0" parent="j-9rDOzRSI_zfjBaEmqv-60">
          <mxGeometry x="0.051" y="-4" relative="1" as="geometry">
            <mxPoint x="6" y="-4" as="offset" />
          </mxGeometry>
        </mxCell>
        <mxCell id="j-9rDOzRSI_zfjBaEmqv-49" value="" style="rounded=0;whiteSpace=wrap;html=1;fillColor=none;dashed=1;dashPattern=8 8;" vertex="1" parent="1">
          <mxGeometry x="-1002.5" y="-28" width="162.5" height="150" as="geometry" />
        </mxCell>
        <mxCell id="j-9rDOzRSI_zfjBaEmqv-53" value="" style="aspect=fixed;sketch=0;html=1;dashed=0;whitespace=wrap;verticalLabelPosition=bottom;verticalAlign=top;fillColor=#2875E2;strokeColor=#ffffff;points=[[0.005,0.63,0],[0.1,0.2,0],[0.9,0.2,0],[0.5,0,0],[0.995,0.63,0],[0.72,0.99,0],[0.5,1,0],[0.28,0.99,0]];shape=mxgraph.kubernetes.icon2;kubernetesLabel=1;prIcon=control_plane" vertex="1" parent="1">
          <mxGeometry x="-1020" y="-48" width="50" height="48" as="geometry" />
        </mxCell>
        <mxCell id="j-9rDOzRSI_zfjBaEmqv-58" style="edgeStyle=orthogonalEdgeStyle;rounded=0;orthogonalLoop=1;jettySize=auto;html=1;entryX=0;entryY=0.5;entryDx=0;entryDy=0;" edge="1" parent="1" source="j-9rDOzRSI_zfjBaEmqv-55" target="j-9rDOzRSI_zfjBaEmqv-41">
          <mxGeometry relative="1" as="geometry">
            <Array as="points">
              <mxPoint x="-920" y="341" />
            </Array>
          </mxGeometry>
        </mxCell>
        <mxCell id="j-9rDOzRSI_zfjBaEmqv-59" value="HA Cluster Join" style="edgeLabel;html=1;align=center;verticalAlign=middle;resizable=0;points=[];" vertex="1" connectable="0" parent="j-9rDOzRSI_zfjBaEmqv-58">
          <mxGeometry x="-0.4382" y="1" relative="1" as="geometry">
            <mxPoint as="offset" />
          </mxGeometry>
        </mxCell>
        <mxCell id="j-9rDOzRSI_zfjBaEmqv-55" value="K8S Control-Plane&lt;div&gt;Secondary&lt;/div&gt;" style="text;html=1;align=center;verticalAlign=middle;whiteSpace=wrap;rounded=0;" vertex="1" parent="1">
          <mxGeometry x="-978.75" y="128" width="115" height="30" as="geometry" />
        </mxCell>
        <mxCell id="j-9rDOzRSI_zfjBaEmqv-62" style="rounded=0;orthogonalLoop=1;jettySize=auto;html=1;exitX=1;exitY=1;exitDx=0;exitDy=0;entryX=0.1;entryY=0.2;entryDx=0;entryDy=0;entryPerimeter=0;shape=link;" edge="1" parent="1" source="j-9rDOzRSI_zfjBaEmqv-49" target="j-9rDOzRSI_zfjBaEmqv-37">
          <mxGeometry relative="1" as="geometry" />
        </mxCell>
        <mxCell id="j-9rDOzRSI_zfjBaEmqv-64" value="K8S Cluster Network" style="edgeLabel;html=1;align=center;verticalAlign=middle;resizable=0;points=[];fontColor=#666666;" vertex="1" connectable="0" parent="j-9rDOzRSI_zfjBaEmqv-62">
          <mxGeometry x="-0.1815" y="1" relative="1" as="geometry">
            <mxPoint x="34" as="offset" />
          </mxGeometry>
        </mxCell>
        <mxCell id="j-9rDOzRSI_zfjBaEmqv-69" value="" style="edgeStyle=orthogonalEdgeStyle;rounded=0;orthogonalLoop=1;jettySize=auto;html=1;" edge="1" parent="1" source="j-9rDOzRSI_zfjBaEmqv-67" target="j-9rDOzRSI_zfjBaEmqv-68">
          <mxGeometry relative="1" as="geometry" />
        </mxCell>
        <mxCell id="j-9rDOzRSI_zfjBaEmqv-75" style="edgeStyle=orthogonalEdgeStyle;rounded=0;orthogonalLoop=1;jettySize=auto;html=1;" edge="1" parent="1" source="j-9rDOzRSI_zfjBaEmqv-67" target="j-9rDOzRSI_zfjBaEmqv-72">
          <mxGeometry relative="1" as="geometry" />
        </mxCell>
        <mxCell id="j-9rDOzRSI_zfjBaEmqv-67" value="" style="shape=image;verticalLabelPosition=bottom;labelBackgroundColor=default;verticalAlign=top;aspect=fixed;imageAspect=0;editableCssRules=.*;image=data:image/svg+xml,PHN2ZyB4bWxucz0iaHR0cDovL3d3dy53My5vcmcvMjAwMC9zdmciIGlkPSJzdmc4MjMiIHZlcnNpb249IjEuMSIgZmlsbD0ibm9uZSIgdmlld0JveD0iNi45Mzk5OTk5MzQ3Mjk3MTNlLTcgLTEuMjk1MjI5MDI2MjU0Njc0ZS03IDE0MS45OTk5ODQ3NDEyMTA5NCAxNDIiIGhlaWdodD0iMTQyIiB3aWR0aD0iMTQxLjk5OTk4NDc0MTIxMDk0Ij4mI3hhOyAgPG1ldGFkYXRhIGlkPSJtZXRhZGF0YTgyNyI+JiN4YTsgICAgJiN4YTsgICAgICAmI3hhOyAgICAgICAgaW1hZ2Uvc3ZnK3htbCYjeGE7ICAgICAgICAmI3hhOyAgICAgICAgJiN4YTsgICAgICAmI3hhOyAgICAmI3hhOyAgPC9tZXRhZGF0YT4mI3hhOyAgJiN4YTsgIDxnIHRyYW5zZm9ybT0ibWF0cml4KDEuMDAyMTAzLDAsMCwxLjAzNzczMTgsNi45Mzk5OTk5ZS03LC0yLjUzMTcyNzZlLTQpIiBpZD0iZzgxNiI+JiN4YTsgICAgPHBhdGggaWQ9InBhdGg3ODIiIGZpbGw9IiMzMjZjZTUiIGQ9Im0gMTQxLjcwMiw2OC40MTggYyAwLDcuNDYzMiAtNC41NjcsMTQuMTEyMyAtNi43NDgsMjAuODM4NSAtMi4yNjMsNi45Nzg5IC0yLjU1MiwxNS4wMjg1IC02Ljc3NiwyMC44Mzg1IC00LjI2Nyw1Ljg2OCAtMTEuODU2LDguNjExIC0xNy43MTksMTIuODgxIC01LjgwNSw0LjIyOCAtMTAuNzM0NSwxMC42MjggLTE3LjcwNjEsMTIuODk1IC02LjcyODYsMi4xODYgLTE0LjQ0NjMsLTAuMDIxIC0yMS45MDE4LC0wLjAyMSAtNy40NTU1LDAgLTE1LjE3MzEsMi4yMDcgLTIxLjg5OTgsMC4wMjEgQyA0MS45Nzc4LDEzMy42MDQgMzcuMDQ4LDEyNy4yMDQgMzEuMjQyOCwxMjIuOTc2IDI1LjM3OTksMTE4LjcwNiAxNy43OTEzLDExNS45NjMgMTMuNTI0NywxMTAuMDk1IDkuMzAwNTUsMTA0LjI4NyA5LjAxMTM1LDk2LjIzNzQgNi43NDc5MSw4OS4yNTY1IDQuNTYzNTEsODIuNTIyNSAwLDc1Ljg3MzUgMCw2OC40MTggMCw2MC45NjI0IDQuNTY3MzcsNTQuMzA1NyA2Ljc0NzkxLDQ3LjU3OTUgOS4wMTEzNSw0MC42MDA1IDkuMzAwNTUsMzIuNTUwNyAxMy41MjQ3LDI2Ljc0MSAxNy43OTEzLDIwLjg3NTMgMjUuMzc5OSwxOC4xMjk3IDMxLjI0MjgsMTMuODYxNyAzNy4wNDgsOS42MzQxNCA0MS45Nzc4LDMuMjMyMDkgNDguOTUxMywwLjk2Njg3MiA1NS42NzgsLTEuMjE5MjQgNjMuMzk1NiwwLjk4NjE2NyA3MC44NTExLDAuOTg2MTY3IGMgNy40NTU1LDAgMTUuMTczMiwtMi4yMDU0MDcgMjEuODk5OSwtMC4wMTkyOTUgNi45NzM1LDIuMjY1MjE4IDExLjkwMyw4LjY2NzI2OCAxNy43MDgsMTIuODk0ODI4IDUuODYzLDQuMjY4IDEzLjQ1Miw3LjAxMzYgMTcuNzE5LDEyLjg3OTMgNC4yMjQsNS44MDk3IDQuNTEzLDEzLjg1OTUgNi43NzYsMjAuODM4NSAyLjE4MSw2LjcyNjIgNi43NDgsMTMuMzc3MSA2Ljc0OCwyMC44Mzg1IHoiLz4mI3hhOyAgICA8cGF0aCBpZD0icGF0aDc4NCIgc3Ryb2tlPSIjZmZmZmZmIiBkPSJtIDEzLjU4ODMsNjAuNTMgYyA4LjE4MDQsMCA4LjE4MDQsMy44NTkgMTYuMzU4OSwzLjg1OSA4LjE3ODQsMCA4LjE4MDQsLTMuODU5IDE2LjM2MDcsLTMuODU5IDguMTgwNCwwIDguMTc4NSwzLjg1OSAxNi4zNTg5LDMuODU5IDguMTgwNCwwIDguMTc4NSwtMy44NTkgMTYuMzU4OSwtMy44NTkgOC4xODA0LDAgOC4xODAzLDMuODU5IDE2LjM1ODgsMy44NTkgOC4xNzg1LDAgOC4xODA1LC0zLjg1OSAxNi4zNjA1LC0zLjg1OSA4LjE4MSwwIDguMTgxLDMuODU5IDE2LjM2MSwzLjg1OSIvPiYjeGE7ICAgIDxwYXRoIGlkPSJwYXRoNzg2IiBzdHJva2U9IiNmZmZmZmYiIGQ9Im0gMTMuNTg4Myw2OC4yNDggYyA4LjE4MDQsMCA4LjE4MDQsMy44NTkgMTYuMzU4OSwzLjg1OSA4LjE3ODQsMCA4LjE4MDQsLTMuODU5IDE2LjM2MDcsLTMuODU5IDguMTgwNCwwIDguMTc4NSwzLjg1OSAxNi4zNTg5LDMuODU5IDguMTgwNCwwIDguMTc4NSwtMy44NTkgMTYuMzU4OSwtMy44NTkgOC4xODA0LDAgOC4xODAzLDMuODU5IDE2LjM1ODgsMy44NTkgOC4xNzg1LDAgOC4xODA1LC0zLjg1OSAxNi4zNjA1LC0zLjg1OSA4LjE4MSwwIDguMTgxLDMuODU5IDE2LjM2MSwzLjg1OSIvPiYjeGE7ICAgIDxwYXRoIGlkPSJwYXRoNzg4IiBzdHJva2U9IiNmZmZmZmYiIGQ9Im0gMTMuNTg4Myw3Ny41MDk1IGMgOC4xODA0LDAgOC4xODA0LDMuODU5IDE2LjM1ODksMy44NTkgOC4xNzg0LDAgOC4xODA0LC0zLjg1OSAxNi4zNjA3LC0zLjg1OSA4LjE4MDQsMCA4LjE3ODUsMy44NTkgMTYuMzU4OSwzLjg1OSA4LjE4MDQsMCA4LjE3ODUsLTMuODU5IDE2LjM1ODksLTMuODU5IDguMTgwNCwwIDguMTgwMywzLjg1OSAxNi4zNTg4LDMuODU5IDguMTc4NSwwIDguMTgwNSwtMy44NTkgMTYuMzYwNSwtMy44NTkgOC4xODEsMCA4LjE4MSwzLjg1OSAxNi4zNjEsMy44NTkiLz4mI3hhOyAgICA8cGF0aCBpZD0icGF0aDc5MCIgZmlsbD0iI2ZmZmZmZiIgZD0ibSA3MC44NDczLDguMTg2ODMgYyAtMzMuMjM4MywwIC02MC4xODM3LDI2Ljk2NjU3IC02MC4xODM3LDYwLjIzMDk3IDAsMzMuMjY0MiAyNi45NDU0LDYwLjIzMTIgNjAuMTgzNyw2MC4yMzEyIDMzLjIzODcsMCA2MC4xODM3LC0yNi45NTkgNjAuMTgzNywtNjAuMjMxMiAwLC0zMy4yNzIxIC0yNi45NDUsLTYwLjIzMDk3IC02MC4xODM3LC02MC4yMzA5NyB6IE0gNzAuODMxOSwxMjMuNDA4IEMgNDAuNDc3OCwxMjMuNDA4IDE1LjkwNTgsOTguODA1MyAxNS45LDY4LjQyNzQgMTUuOSwzOC4wMTY3IDQwLjUzNTcsMTMuMzc5MSA3MC45MTA5LDEzLjQzNyBjIDMwLjM3NTEsMC4wNTc5IDU0LjkxMTEsMjQuNjU4OSA1NC44ODQxLDU1LjAzMjkgLTAuMDI3LDMwLjM3NCAtMjQuNjA5LDU0Ljk0ODEgLTU0Ljk2MzEsNTQuOTM4MSB6Ii8+JiN4YTsgICAgPHBhdGggaWQ9InBhdGg3OTIiIGZpbGw9IiNmZmZmZmYiIGQ9Im0gNDMuMDg0NCw5NS43MDg1IGMgLTAuMTkyOCwtMC42NjU2IC0xLjEwODYsLTEuMzI3NSAtMS44MiwtMS4yMzg3IC0xLjAxMDIsMC4xMjkzIC0yLjAxNjYsMC4yOTcxIC0zLjIzMTMsMC40Nzg1IDAuNDQ3MywtMS4xODY2IDAuODI1MiwtMi4xOTk2IDEuMjEwOCwtMy4yMTI2IDAuMzMzNSwtMC44Nzk5IC0wLjM4NTYsLTEuMzA2MyAtMC44MzY3LC0xLjc3NzEgLTAuNDUxMiwtMC40NzA4IC0wLjgwNCwwLjEyMzUgLTEuMTEwNiwwLjM2NjYgLTEuNjMzLDEuMjk0NyAtMy4yMTU4LDIuNjUzMSAtNC44NjQyLDMuOTI2NiAtMC43ODI4LDAuNjAzOSAtMC4xOTI4LDAuOTU1MSAwLjEyMzQsMS4zODkyIDAuMzE2MSwwLjQzNDEgMC42MzgxLDAuOTIyMyAxLjI4NCwwLjM1MzEgMC43NDQyLC0wLjY1NDEgMS41MzA4LC0xLjI2MTkgMi4zMTM2LC0xLjg5NjcgMC4wMjg5LDAuMDczMyAwLjA1NTksMC4xMDgxIDAuMDQ4MiwwLjEzMTIgLTAuMTU0MywwLjQ0NzcgLTAuMzIyLDAuODkxNCAtMC40NzI0LDEuMzQxIC0wLjMxNDMsMC45NDkzIDAuMjkzLDEuNjQyIDEuMjg5OCwxLjQ4NTcgMC40MTQ1LC0wLjA2NTYgMC44MzY4LC0wLjE5MjkgMS4zMzAzLDAuMDE5MyAtMC44MDIsMC42NTggLTEuNDk4LDEuMjc1NCAtMi4yNDIyLDEuODI1MyAtMC42MTEyLDAuNDUxNSAtMC4zMTgxLDAuODIgMC4wNTAxLDEuMTU4MSAwLjM2ODMsMC4zMzcgMC41MjI1LDEuMjE3IDEuMzExLDAuNTc4IDEuNzcyNSwtMS40Mjk5IDMuNTM5MSwtMi44NjQ4IDUuMywtNC4zMDQyIDAuMTgxMywtMC4xNDg2IDAuNDE0NSwtMC4yODc1IDAuMzE2MiwtMC42MjMzIHoiLz4mI3hhOyAgICA8cGF0aCBpZD0icGF0aDc5NCIgZmlsbD0iI2ZmZmZmZiIgZD0ibSA3NS4zMTA1LDMwLjgwMjQgYyAxLjI2MDksMC41MjA5IDEuNzYwMywwLjI4MTcgMi4wMjA1LC0xLjAyMjYgMC4wNTc5LC0wLjI4MzcgMC4xMDk5LC0wLjU2NTQgMC4xNzkzLC0wLjg0NTIgMC4wNTYsLTAuMjI3NiAwLC0wLjYxMTYgMC4zNDksLTAuNTYzNCAwLjM0OSwwLjA0ODMgMC43OTYzLC0wLjAyMzEgMC45MjM1LDAuNDk3OCAwLjEyNzMsMC41MjEgMC4yODU0LDAuOTgyMiAwLjQyOCwxLjQ3MjIgMC40MDEsMS4zNTA3IDAuNjc2NywxLjU2MSAyLjA1MTQsMS42MzI0IDAuNTE2NywwLjAyNyAwLjYzMjQsLTAuMTQ4NiAwLjQ5NTUsLTAuNjA5NyAtMC4yMTU5LC0wLjczNTIgLTAuNDAzLC0xLjQ3OTkgLTAuNjMyNCwtMi4yMTEyIC0wLjEwNiwtMC4zMzM4IC0wLjE5MjgsLTAuNTMwNiAwLjI2NDEsLTAuNzIxNyAxLjExNDQsLTAuNDcwNyAxLjQxNTIsLTEuNDgxOCAxLjQ5NDIsLTIuNTIxOCAwLC0xLjI4NSAtMC43NzEyLC0yLjIyNDcgLTIuMjEzMywtMi42MTA2IC0xLjE3MjIsLTAuMzEyNiAtMi4zNzUzLC0wLjUwNzUgLTMuNTYyOSwtMC43NzE4IC0wLjQ0MzUsLTAuMDk2NSAtMC42NjUyLDAuMDgzIC0wLjc0ODEsMC41MDc1IC0wLjQ1NSwyLjMxNTQgLTAuOTE3Nyw0LjY0NjIgLTEuMzY2OSw2Ljk3MzEgLTAuMDU5OCwwLjMxNDUgLTAuMTA0MSwwLjYyMTMgMC4zMTgxLDAuNzk1IHogbSAzLjM4MTcsLTUuOTgxNCBjIDAuOTczNiwtMC4wOTg0IDEuOTEyNiwwLjQ2NSAxLjkwMjksMS4wNDE5IC0wLjAwOTYsMC41NzY5IC0wLjM0NywwLjg1NjcgLTEuMDAwNiwwLjg3NDEgLTAuNDAzLC0wLjMzOTYgLTEuMzM4LDAuMjEyMiAtMS40NzQ5LC0wLjY1MDMgLTAuMDU3OSwtMC4zNjQ3IC0wLjE5MjgsLTEuMTc4OSAwLjU3MjYsLTEuMjU4IHoiLz4mI3hhOyAgICA8cGF0aCBpZD0icGF0aDc5NiIgZmlsbD0iI2ZmZmZmZiIgZD0ibSA2Mi42MTQ4LDEwNi4yODYgYyAtMC41NDc1LC0wLjE4IC0xLjEwNjYsLTAuNDA1IC0xLjI5OTQsMC41MDUgLTAuMjEwMiwxLjAwMiAtMC41MzAyLDEuOTc4IC0wLjg2MTgsMy4xODQgLTAuNTA3MSwtMS41MDkgLTAuOTc3NSwtMi44MDEgLTEuMzY4OSwtNC4xMTcgLTAuMjU2NCwtMC44NjEgLTAuOTkyOSwtMC44NTMgLTEuNjEzNywtMC45NjUgLTAuNjg0NCwtMC4xMTIgLTAuNTYxMSwwLjU3OSAtMC42NjksMC45NjUgLTAuNTc4NCwxLjk5OSAtMS4wNzU4LDQuMDI1IC0xLjY5NjYsNi4wMTIgLTAuMzA0NywwLjk4IDAuNDE4MywwLjg5MSAwLjkwMDMsMS4wNTkgMC41MTI5LDAuMTc2IDEuMDU0NiwwLjM4NiAxLjI0OTQsLTAuNDYzIDAuMjMzMiwtMS4wMTcgMC41NDM3LC0yLjAxNiAwLjg1NzksLTMuMTUzIDAuMTI5MiwwLjI5NyAwLjIxNzksMC40NjcgMC4yNzc2LDAuNjQ1IDAuMzg1NiwxLjE1NyAwLjc4ODYsMi4zMDIgMS4xNTY4LDMuNDYxIDAuMjY0MiwwLjg1NyAxLjAzNTQsMC44MDUgMS42NTA0LDAuODkgMC42MTUsMC4wODUgMC40ODc4LC0wLjU3OSAwLjU4OTksLTAuOTI4IDAuNTc4NCwtMi4wMDMgMS4wNjYyLC00LjAzMSAxLjY5NjcsLTYuMDE1IDAuMjg3MiwtMC45NiAtMC4zNzc5LC0wLjkxOCAtMC44Njk2LC0xLjA4IHoiLz4mI3hhOyAgICA8cGF0aCBpZD0icGF0aDc5OCIgZmlsbD0iI2ZmZmZmZiIgZD0ibSAxMDkuMDUyLDk0LjA4MiBjIC0wLjYzMiwtMC4wOTA3IC0xLjI1NSwtMC4yNzc5IC0xLjg4OSwtMC4zMzc3IC0wLjUyMywtMC4wNDgyIC0wLjY1NCwtMC4yMjk2IC0wLjY3MSwtMC43NzE4IC0wLjA0MywtMS4zNTA2IC0xLjI2MywtMi40NTgyIC0yLjU5MiwtMi40NzM2IC0wLjkxMiwtMC4wMjUxIC0xLjYwOSwwLjQzMjIgLTIuMTY5LDEuMDcyOCAtMC42OTYsMC43OTY5IC0xLjI5MywxLjY3ODYgLTEuOTkxMiwyLjQ3MzYgLTAuNDc0MywwLjU0MjIgLTAuNDE0NSwwLjg3NzkgMC4xNTA0LDEuMzA0MyAxLjY4ODgsMS4yNzczIDMuMzY0OCwyLjU3NTkgNS4wMDA4LDMuOTE2OSAwLjU3OSwwLjQ2MyAwLjg3LDAuNDE0OCAxLjI5NiwtMC4xNjYgMC43NzEsLTEuMDUxNSAwLjgwMiwtMS4wMjY0IC0wLjIzNywtMS44MzMgLTAuMjI4LC0wLjE3NzUgLTAuNDY3LC0wLjM0MzQgLTAuNjc1LC0wLjU0MjIgLTAuMTYsLTAuMTUyNCAtMC41NTcsLTAuMjE0MSAtMC4zMzQsLTAuNTYxNCAwLjE4MiwtMC4yNzk4IDAuMzM4LC0wLjY0NjQgMC44MDMsLTAuNTUxOSAwLjQ2NCwwLjA5NDYgMC45NjQsMC4xMDgxIDEuNDEzLDAuMjcyMSAxLjAzNSwwLjM4NTkgMS42NzksLTAuMDE3NCAyLjI0MiwtMC44NzYgMC4zNzIsLTAuNTU3NiAwLjM5MSwtMC44MjIgLTAuMzQ3LC0wLjkyNjEgeiBtIC01Ljc4NCwxLjA0NzcgYyAtMC4xNDUsMC4wMTE1IC0xLjE4MiwtMC44Nzk5IC0xLjE3MiwtMS4wMDkyIDAuMDI1LC0wLjMzOTUgMS4yMTEsLTEuNDc2IDEuNTQyLC0xLjQ3NiAwLjQ0NiwwLjA4ODcgMC43NzEsMC4zMTA2IDAuODA4LDAuODAwNyAwLjAyMSwwLjI5OTEgLTAuOTU4LDEuNjY1MiAtMS4xNzgsMS42ODQ1IHoiLz4mI3hhOyAgICA8cGF0aCBpZD0icGF0aDgwMCIgZmlsbD0iI2ZmZmZmZiIgZD0ibSA2MS4xMjI2LDMwLjk5MzQgYyAwLjA2NzUsMC4zODU5IDAuMTkyOCwwLjY5NDYgMC42NzI4LDAuNjE5MyAxLjczNTIsLTAuMzAxIDMuNDgyLC0wLjU2MTQgNS4yMDU2LC0wLjkyMDMgMC45MSwtMC4xOTMgMC4yODM0LC0wLjg3OTkgMC4yOTMsLTEuMzUwNyAwLjAwOTcsLTAuNTAzNiAtMC4yNjQxLC0wLjY1NiAtMC43NTc3LC0wLjU1OTUgLTAuOTQyNywwLjE4MzMgLTEuODk5LDAuMzA4NyAtMi44NDE4LDAuNDk1OSAtMC40ODk3LDAuMDk2NCAtMC42MTg5LC0wLjEyNzQgLTAuNjY1MiwtMC41NDYxIC0wLjA0MDQsLTAuMzcyNCAtMC4wOTQ0LC0wLjY2MTggMC40NDM1LC0wLjcyMTYgMC43OTYyLC0wLjA4NDkgMS41NzUxLC0wLjMxMDcgMi4zNzE0LC0wLjM5NTYgMC44NjE4LC0wLjA5MjYgMC43MDM3LC0wLjYzNDggMC42MTExLC0xLjE4MjcgLTAuMDkyNSwtMC41NDggLTAuMjA4MiwtMC45OTc2IC0wLjk2MzksLTAuNzg5MiAtMC43MDc2LDAuMTkyOSAtMS40NTc2LDAuMjIzOCAtMi4xNzA5LDAuNDAzMyAtMC41MDEzLDAuMTI3MyAtMC43NDYyLDAuMDk2NCAtMC44NTAzLC0wLjQ5MDEgLTAuMTEzNywtMC42MzI5IDAuMjM3MiwtMC42ODUgMC42ODQ1LC0wLjc1MjUgMC43OTI0LC0wLjExNzcgMS41ODA5LC0wLjI3MDIgMi4zNzMzLC0wLjM4NTkgMC41MDcxLC0wLjA3NzIgMC44OTY1LC0wLjIxODEgMC42OTIxLC0wLjg1NjcgLTAuMTYzOCwtMC41MTMzIDAuMDY5NCwtMS4zMjM2IC0wLjk4OSwtMS4xMDM3IC0xLjUwNTgsMC4zMTQ1IC0zLjAyMzEsMC41Nzg5IC00LjU0NjIsMC43NzE4IC0wLjcyODcsMC4wOTI2IC0wLjgyOSwwLjQxODcgLTAuNzIxLDEuMDI0NiAwLjM5MTMsMi4yNTE3IDAuNzc1LDQuNTAxNSAxLjE1ODcsNi43Mzk3IHoiLz4mI3hhOyAgICA8cGF0aCBpZD0icGF0aDgwMiIgZmlsbD0iI2ZmZmZmZiIgZD0ibSA4Ni44NDU1LDEwNy4xOTcgYyAtMC41NjIzLDAuMjI4IC0xLjEzNjMsMC40MjUgLTEuNzE5NywwLjU5MiAtMC40ODM5LDAuMTU0IC0wLjgzMjksMC4zNTEgLTAuNTQzNywwLjk2NSAwLjIyOTQsMC40NzQgMC4xNjc3LDEuMjY0IDEuMDgzNSwwLjg5NyAwLjE2NzgsLTAuMDY4IDAuMzQ3MSwtMC4yMjYgMC41MTA5LC0wLjAyMSAwLjE2MzksMC4yMDQgMC4wNTU5LDAuNDQ3IC0wLjAyNSwwLjY0IC0wLjIzNTIsMC41NTQgLTAuNzI4OCwwLjc5MSAtMS4yODIxLDAuODg4IC0wLjU1MzQsMC4wOTYgLTEuMDEwMywtMC4xNjggLTEuMjg2LC0wLjY1IC0wLjM4NjUsLTAuNjY4IC0wLjY0NzksLTEuNCAtMC43NzEyLC0yLjE2MSAtMC4xNzkzLC0xLjEyNSAwLjg5MDcsLTIuMTA5IDEuOTEwNiwtMS42MTcgMC44NDA2LDAuNDA1IDEuNDczLDAuMDgxIDIuMTg2NCwtMC4xMjggMC40ODc3LC0wLjE0MiAwLjQ4OTcsLTAuNDM0IDAuMjA4MiwtMC43ODkgLTAuNjUxNywtMC44MjIgLTEuNTQyNCwtMS4wODIgLTIuNTUyNywtMS4xMjUgLTEuMDYzMSwtMC4wMDMgLTIuMDkxMiwwLjM4MSAtMi44OTE5LDEuMDgxIC0wLjk2NCwwLjg2NCAtMS4zNDk2LDEuOTYgLTAuOTY0LDMuMjEyIDAuNDg3OCwxLjYzOSAwLjc3MTIsMy40NzQgMi44MDcxLDQuMDE0IDEuNTYxNywwLjQxMSAyLjkzODMsLTAuMDc0IDQuMDQ4OCwtMS4xODEgMS4yMDExLC0xLjIwNCAwLjkxLC0yLjYwNyAwLjM4NTYsLTQuMDM3IC0wLjIyOTUsLTAuNjA5IC0wLjQ1MzEsLTAuODY4IC0xLjEwNDgsLTAuNTggeiIvPiYjeGE7ICAgIDxwYXRoIGlkPSJwYXRoODA0IiBmaWxsPSIjZmZmZmZmIiBkPSJtIDk4LjgwMjksMTAzLjU1MiBjIC0wLjcwNTcsMC41NTIgLTEuNDczLDEuMDI0IC0yLjE4MDYsMS41NzYgLTAuMzg1NiwwLjMwMSAtMC41Nzg0LDAuMjA3IC0wLjgyNzEsLTAuMTU2IC0wLjI0ODcsLTAuMzYzIC0wLjMyNTgsLTAuNTc5IDAuMDg4NywtMC44NTEgMC42NDIsLTAuNDIzIDEuMjU3MSwtMC44ODYgMS44ODE3LC0xLjMzMyAwLjIwNDQsLTAuMTQ3IDAuNDUxMiwtMC4yNjcgMC40MjgxLC0wLjYyMiAtMC4xNjQyLC0wLjQzOCAtMC40NDMyLC0wLjgyNSAtMC44MDc5LC0xLjExOSAtMC4zNTg2LC0wLjI1MiAtMC42MzYyLDAuMTMzIC0wLjkxNTgsMC4zMjYgLTAuNTc4NCwwLjQwMiAtMS4xODM4LDAuNzcyIC0xLjcyMzYsMS4yMjQgLTAuNDQ5MiwwLjM3NCAtMC41Nzg0LDAuMDMzIC0wLjgwMDEsLTAuMjM0IC0wLjI2NjEsLTAuMzEgLTAuMjY5OSwtMC41MDMgMC4xMDIyLC0wLjc0NiAwLjcyMywtMC40NzMgMS4zOTIsLTEuMDI5IDIuMTIwOCwtMS40ODggMC41OTc2LC0wLjM3NDQgMC40NzA0LC0wLjczNzIgMC4xMTk1LC0xLjE2OTQgLTAuMzEwNCwtMC4zODU5IC0wLjQ5OTQsLTAuOTY0NyAtMS4xODU3LC0wLjQ0MzggLTEuMjU3MSwwLjkzNzggLTIuNTQ4OCwxLjgzMTIgLTMuODM0OCwyLjczNDIgLTAuNDA0OSwwLjI4NCAtMC40MjIyLDAuNTY1IC0wLjEzODgsMC45NjUgMS4zMzAzLDEuODQ2IDIuNjQzMywzLjcwNCAzLjk2MDEsNS41NjIgMC4yMzkxLDAuMzM2IDAuNDcyMywwLjQ2OSAwLjg2NzYsMC4xODIgMS4zMTg3LC0wLjk2NSAyLjY0ODQsLTEuOTE0IDMuOTg5LC0yLjg0NiAwLjYzMDgsLTAuNDM4IDAuMjQ4OCwtMC44MDMgLTAuMDIxMiwtMS4xOTggLTAuMjY5OSwtMC4zOTYgLTAuNTI2NCwtMC44MzIgLTEuMTIyMSwtMC4zNjMgeiIvPiYjeGE7ICAgIDxwYXRoIGlkPSJwYXRoODA2IiBmaWxsPSIjZmZmZmZmIiBkPSJtIDQ5LjAwMzMsMTAwLjQyIGMgLTAuMjcsLTAuMTkzIC0wLjU1NTMsLTAuMTAyIC0wLjc5ODIsMC4wODcgLTEuOTUxMSwxLjUxOCAtMy45MDAzLDMuMDM4IC01Ljg0NzYsNC41NjEgLTAuMjU2NCwwLjE5MyAtMC40NDczLDAuNDc3IC0wLjA3NzEsMC42ODMgMC42ODI1LDAuMzg2IDEuMzA3MiwxLjM1MSAyLjIxNTMsMC4zMzIgMC4wNDQxLC0wLjA2NyAwLjExMjksLTAuMTE0IDAuMTkxNSwtMC4xMzEgMC4wNzg3LC0wLjAxNyAwLjE2MDgsLTAuMDAyIDAuMjI4NywwLjA0MSAwLjcyNSwwLjQ3NCAxLjQ1NTcsMC45MzkgMi4xNzg3LDEuNDE0IDAuMTkyOCwwLjEzMSAwLjEyOTEsMC4zMzYgMC4xMDYsMC41MjUgLTAuMTAyMiwwLjgyOCAwLjQ3MDQsMS43NTkgMS4yOTM3LDEuODA0IDAuODU5OCwwLjA0NCAwLjQ1NSwtMC44NjUgMC43MjQ5LC0xLjI5MSAwLjAzMTgsLTAuMDU2IDAuMDU0LC0wLjExOCAwLjA2NTUsLTAuMTgxIDAuNTAxMywtMi4wNTUgMS4wMDI2LC00LjExMiAxLjU0MjQsLTYuMzM5IC0wLjIxNTksLTAuODMzIC0xLjE3MDMsLTEuMDA3IC0xLjgyMzgsLTEuNTA1IHogbSAtMS4yMzQsNS4xNTYgYyAtMS41MDU3LC0wLjg4NiAtMS41MDU3LC0wLjg4NiAtMC4yODM0LC0xLjg2MiAwLjI0NjgsLTAuMTkzIDAuNTAxMywtMC4zODYgMC44NjM4LC0wLjY2NCAtMC4wOTIxLDAuODYyIC0wLjI4NjksMS43MSAtMC41ODA0LDIuNTI2IHoiLz4mI3hhOyAgICA8cGF0aCBpZD0icGF0aDgwOCIgZmlsbD0iI2ZmZmZmZiIgZD0ibSA0Ni41MTQzLDM1LjM4MyBjIDAuOTYzOSwxLjMzOTEgMi40NDQ2LDEuNzM2NSA0LjAxNCwxLjE1NzcgMS42MzExLC0wLjU5MDQgMi44OTIsLTIuMTg0MiAyLjgyNjQsLTMuNjQxIC0wLjAzNDIsLTAuMzQ5MyAtMC4xMTQ2LC0wLjY5MjUgLTAuMjM5MSwtMS4wMjA3IC0wLjAxNzQsLTAuMDk1NSAtMC4wNjg0LC0wLjE4MTYgLTAuMTQzNywtMC4yNDI4IC0wLjA3NTMsLTAuMDYxMiAtMC4xNjk5LC0wLjA5MzUgLTAuMjY2OSwtMC4wOTEgLTAuNTU5MSwwIC0xLjU4NjcsMS4wMDE0IC0xLjU5NDQsMS42MDE1IC0wLjAwOTcsMC44MDg1IC0wLjUyNjQsMS4yMTM3IC0xLjE3MjMsMS40NzIyIC0wLjYxMTEsMC4yNDMxIC0xLjE1NjcsMCAtMS41MTczLC0wLjUwNzQgLTAuNDMwMSwtMC41OTYzIC0wLjgxMywtMS4yMjUzIC0xLjE0NTIsLTEuODgxMyAtMC4yNjk5LC0wLjU1MzggLTAuMjE5OCwtMS4xNTc3IDAuMjgzNCwtMS41ODggMC41MDMyLC0wLjQzMDIgMS4xMjYsLTAuNzIxNiAxLjg0MTIsLTAuMzI5OSAwLjUwMTMsMC4yNzU5IDEuODUyOCwtMC4xOTMgMi4xNDAxLC0wLjY4MTEgMC4xOTI4LC0wLjMxMjYgLTAuMDU0LC0wLjQ4ODIgLTAuMjEwMiwtMC42NjE4IC0wLjI1OTcsLTAuMjk0IC0wLjU4MDksLTAuNTI3MyAtMC45NDA3LC0wLjY4MzQgLTAuMzU5OCwtMC4xNTYgLTAuNzQ5NSwtMC4yMzEgLTEuMTQxNSwtMC4yMTk2IC0yLjU3OTYsMC4wMDk2IC00LjU5MDUsMS45OTcgLTQuMzE4Niw0LjE2OTYgMC4xNTQyLDEuMjIzMyAwLjkxMTksMi4xODggMS41ODQ4LDMuMTQ3IHoiLz4mI3hhOyAgICA8cGF0aCBpZD0icGF0aDgxMCIgZmlsbD0iI2ZmZmZmZiIgZD0ibSA3My45MDUsMTA4LjY2MSBjIC0wLjY1MzUsLTEuNzAyIC0xLjEwMjgsLTEuOTI5IC0yLjg1MTQsLTEuNTQzIC0wLjE0MjcsMC4wMTUgLTAuMjc3OSwwLjA3MSAtMC4zODk3LDAuMTYxIC0wLjExMTgsMC4wOSAtMC4xOTU0LDAuMjEgLTAuMjQwOCwwLjM0NiAtMC43MzI2LDIuMzQ2IC0xLjQ2MjcsNC42OTYgLTIuMTkwMSw3LjA1IC0wLjA2MzcsMC4yMDcgLTAuMTU2MiwwLjQ1IDAuMDkwNiwwLjYxMiAwLjUyNjMsMC4zNDcgMS45MDg3LC0wLjEzOSAyLjE0NTgsLTAuNzUxIDAuMDk4MywtMC4yNTQgMC4xMDAzLC0wLjU2NSAwLjUyMjUsLTAuNTU3IDAuNzcxMiwwLjAxNSAxLjU0MjQsMCAyLjMxMzUsLTAuMDM3IDAuMjczOCwtMC4wMTEgMC40NDM1LDAuMDkzIDAuNDkxNywwLjM0IDAuMTQ4NCwwLjc3MiAwLjYxMTEsMC45OTkgMS4yNDkzLDAuODMzIDEuMzA1MiwtMC4wMzIgMS4zMTEsLTAuMDM2IDAuODgzLC0xLjE1NyAtMC42NzM1LC0xLjc3IC0xLjM0ODMsLTMuNTM2IC0yLjAyNDQsLTUuMjk3IHogbSAtMi4wMzU5LDMuNDg3IGMgLTAuNTc4NCwwIC0wLjY2MzIsLTAuMTYyIC0wLjQ4OTcsLTAuNjU0IDAuMjEwMiwtMC42MDIgMC4zODU2LC0xLjIxNiAwLjYzMDQsLTEuOTk5IDAuMjU2NSwwLjY1NiAwLjQ0NTQsMS4xMjggMC42MjQ3LDEuNjAzIDAuNDAxLDEuMDc1IDAuMzkxNCwxLjAzOCAtMC43NjU0LDEuMDUgeiIvPiYjeGE7ICAgIDxwYXRoIGlkPSJwYXRoODEyIiBmaWxsPSIjZmZmZmZmIiBkPSJtIDkwLjg0OCwzNi40MTE0IGMgMC40NTEyLDAuMjQ3IDAuODgxMSwwLjkwNSAxLjQwMTcsMC4wMzQ4IDAuNjg4MiwtMS4xNTc3IDEuNDM0NCwtMi4yNzQ5IDIuMTUxNiwtMy40MTE0IDAuODYzNywtMS4zNjYxIDAuODg2OCwtMS40MDY2IDIuMjc1LC0wLjUzMjUgMC43Mzg0LDAuNDY2OSAwLjkzMzEsLTAuMDM2NyAxLjI0MzUsLTAuNDg2MiAwLjMzMTYsLTAuNDgyNCAwLjQ2MjcsLTAuODUwOSAtMC4xOTI4LC0xLjIzNjggLTEuNTQyNCwtMC45MTk4IC0zLjA1NTgsLTEuODc5NCAtNC41NDAzLC0yLjg3ODggLTAuNjMwNSwtMC40MjA3IC0wLjk0MjgsLTAuMzA4OCAtMS4zNDk2LDAuMzE2NCAtMC40NTEyLDAuNjg4OCAtMC4zNTg2LDEuMDU1NCAwLjMzOTMsMS40MjU5IDAuNDA0OSwwLjIxNDIgMC44NTc5LDAuNDExIDEuMTM3NSwwLjgxMjMgLTAuMTQyNywwLjIyOTYgLTAuMjU4NCwwLjQyMjYgLTAuMzg1NiwwLjYxMTcgLTAuODczNCwxLjM4MTUgLTEuNzIxNywyLjc3ODQgLTIuNjI1OSw0LjEzODcgLTAuNDg1OCwwLjc0ODYgMC4wNzUyLDAuOTQ3NCAwLjU0NTYsMS4yMDU5IHoiLz4mI3hhOyAgICA8cGF0aCBpZD0icGF0aDgxNCIgZmlsbD0iI2ZmZmZmZiIgZD0iTSA5Mi42NzAxLDc4LjQyNDEgQyA5Mi4xNzQ2LDc2LjM5MDQgOTEuNjg0OSw3NC4zODc2IDkxLjE4OTQsNzIuMzYxNiA5MS4xNjQsNzIuMjU1OSA5MS4xMTEyLDcyLjE1ODcgOTEuMDM2Myw3Mi4wOCA5MC45NjE0LDcyLjAwMTIgOTAuODY3LDcxLjk0MzYgOTAuNzYyNyw3MS45MTMxIDkwLjY1ODQsNzEuODgyNSA5MC41NDgsNzEuODgwMSA5MC40NDI0LDcxLjkwNiBjIC0wLjEwNTUsMC4wMjU5IC0wLjIwMjMsMC4wNzkzIC0wLjI4MDYsMC4xNTQ2IGwgLTQuNzY2LDQuNTY1MiBjIC0wLjA3NDQsMC4wNzE3IC0wLjEyODcsMC4xNjE3IC0wLjE1NzQsMC4yNjEgLTAuMDI4OCwwLjA5OTMgLTAuMDMwOSwwLjIwNDUgLTAuMDA2NCwwLjMwNDkgMC4wMjQ2LDAuMTAwNCAwLjA3NTEsMC4xOTI2IDAuMTQ2NSwwLjI2NzMgMC4wNzE0LDAuMDc0NyAwLjE2MTEsMC4xMjk0IDAuMjYwMiwwLjE1ODYgMC4xNzc0LDAuMDUwMSAwLjM1MDksMC4wOTg0IDAuNTI4MywwLjEzNSAwLjM4NTYsMC4wODMgMC4zNDcsMC4yMTIzIDAuMTY3NywwLjQ4NDMgLTAuOTk4NywxLjUyMjMgLTIuMzE0LDIuODExIC0zLjg1NTksMy43NzggbCAtMC4wMzg2LDAuMDIzMSBjIC0xLjMyOTEsMC42MzI0IC0yLjczNTgsMS4wODY2IC00LjE4MzcsMS4zNTA3IC0xLjQ5NzEsMC4yODczIC0zLjAxMzQsMC40NjI3IC00LjUzNjUsMC41MjQ4IC0wLjA0ODEsMC4wMDE2IC0wLjA5NTksLTAuMDA2NiAtMC4xNDA3LC0wLjAyNDEgLTAuMDQ0OCwtMC4wMTc1IC0wLjA4NTUsLTAuMDQ0IC0wLjExOTgsLTAuMDc3NyBDIDczLjQyNTMsODMuNzc3OSA3My4zOTgyLDgzLjczNzYgNzMuMzgsODMuNjkzMSA3My4zNjE4LDgzLjY0ODUgNzMuMzUyOSw4My42MDA4IDczLjM1MzcsODMuNTUyNyBWIDYyLjI1NSBjIDAsLTAuMDI3NCAwLjAwNTQsLTAuMDU0NSAwLjAxNTgsLTAuMDc5OCAwLjAxMDUsLTAuMDI1MyAwLjAyNTgsLTAuMDQ4MiAwLjA0NTIsLTAuMDY3NiAwLjAxOTMsLTAuMDE5MyAwLjA0MjMsLTAuMDM0NyAwLjA2NzUsLTAuMDQ1MSAwLjAyNTMsLTAuMDEwNSAwLjA1MjQsLTAuMDE1OSAwLjA3OTcsLTAuMDE1OSAwLjE5MjgsMCAwLjQyOCwwLjAzODYgMC45OTI5LDAuMDMyOCAxLjExMDUsLTAuMDExNiAyLjI2NzMsLTAuMDExNiAzLjM4MTcsLTAuMDc3MiAwLjM2MjQsLTAuMDIxMiAwLjU2NDksLTAuMDA5NiAwLjc5NjIsMC4xNjQgMC40Njk5LDAuMzcxNiAxLjA2MjQsMC41NTIzIDEuNjU5NSwwLjUwNjIgMC41OTcxLC0wLjA0NjEgMS4xNTQ5LC0wLjMxNTggMS41NjIyLC0wLjc1NTEgMC40MDIzLC0wLjQ0MTEgMC42MjcxLC0xLjAxNTYgMC42MzEsLTEuNjEyOCAwLjAwMzksLTAuNTk3MiAtMC4yMTMzLC0xLjE3NDcgLTAuNjA5OCwtMS42MjEgLTAuMzk4MiwtMC40NDcgLTAuOTUwNSwtMC43MjY4IC0xLjU0NjIsLTAuNzgzNCAtMC41OTU3LC0wLjA1NjUgLTEuMTkwOCwwLjExNDQgLTEuNjY1OCwwLjQ3ODUgLTAuMTMzNSwwLjEyNCAtMC4zMDYsMC4xOTc3IC0wLjQ4NzgsMC4yMDg0IC0xLjU1MjcsLTAuMDA3NyAtMy4xMDQsLTAuMDA3NyAtNC42NTQxLDAgLTAuMDk1MywwLjAxMjMgLTAuMTkxNSwtMC4wMTM0IC0wLjI2OCwtMC4wNzE0IHYgLTIuNDM1IGMgLTAuMDAxMSwtMC4wODMxIDAuMDI3NiwtMC4xNjM5IDAuMDgxLC0wLjIyNzcgMC4xMDk5LC0wLjExNDYgMC4yNDA4LC0wLjIwNjkgMC4zODU1LC0wLjI3MiAyLjUwNjQsLTEuMjczNSAzLjgwNTksLTMuMzY1MSAzLjgwNzgsLTYuMTQ5MyAwLC00LjQwNSAtNC4yOTM2LC03LjYwOTkgLTguNTM5LC02LjQ1NjEgLTMuMzY2MiwwLjkxNDYgLTUuNTUyNiw0LjI2MDMgLTQuOTE4Myw3LjY3MzYgMC40NjY2LDIuNTA4MyAxLjk0MTUsNC4yNjQyIDQuMzM5OSw1LjE5NDIgMC4wOSwwLjAzMjYgMC4xNzYsMC4wNzUzIDAuMjU2NCwwLjEyNzMgMC4wNDM2LDAuMDMzMiAwLjA3ODcsMC4wNzYxIDAuMTAyNCwwLjEyNTQgMC4wMjM4LDAuMDQ5MyAwLjAzNTYsMC4xMDM1IDAuMDM0NSwwLjE1ODMgdiAxLjk5MTIgYyAwLDAuMDQ1NCAtMC4wMDksMC4wOTA0IC0wLjAyNjUsMC4xMzIzIC0wLjAxNzUsMC4wNDE5IC0wLjA0MzEsMC4wOCAtMC4wNzU0LDAuMTExOSAtMC4wMzIyLDAuMDMyIC0wLjA3MDUsMC4wNTcyIC0wLjExMjYsMC4wNzQyIC0wLjA0MjEsMC4wMTcgLTAuMDg3MSwwLjAyNTUgLTAuMTMyNSwwLjAyNSAtMS42Njc3LC0wLjAxOTMgLTMuMzM3MywtMC4wMTE1IC01LjAxMjgsMCAtMC4yMzA0LC0wLjAwMTEgLTAuNDU0MywtMC4wNzY5IC0wLjYzODEsLTAuMjE2MSAtMC40NzYzLC0wLjM2MTcgLTEuMDcyLC0wLjUyOSAtMS42NjY4LC0wLjQ2ODEgLTAuNTk0OCwwLjA2MDggLTEuMTQ0MywwLjM0NTQgLTEuNTM3NSwwLjc5NjIgLTAuMzk0MywwLjQ0MyAtMC42MDk2LDEuMDE3MSAtMC42MDM5LDEuNjEwNCAwLjAwNTcsMC41OTMzIDAuMjMyLDEuMTYzMiAwLjYzNDgsMS41OTg2IDAuNDAyNywwLjQzNTMgMC45NTMxLDAuNzA1IDEuNTQzNywwLjc1NjMgMC41OTA2LDAuMDUxMyAxLjE3OTIsLTAuMTE5NCAxLjY1MDksLTAuNDc4OCAwLjE4MSwtMC4xNDIxIDAuNDA2MywtMC4yMTU4IDAuNjM2MiwtMC4yMDgzIDEuNjE3NiwwIDMuMjM3MSwwLjAyMzEgNC44NTQ3LDAgMC4xNDU1LC0wLjAyMTUgMC4yOTQsMC4wMSAwLjQxODMsMC4wODg3IDAuMDE5OCwwLjAxODggMC4wMzUzLDAuMDQxNiAwLjA0NTYsMC4wNjY5IDAuMDEwNCwwLjAyNTMgMC4wMTUyLDAuMDUyNSAwLjAxNDIsMC4wNzk4IHYgMjEuMTg3NyBjIC0xMGUtNSwwLjA0OTIgLTAuMDEwNCwwLjA5NzkgLTAuMDMwMiwwLjE0MyAtMC4wMTk4LDAuMDQ1MSAtMC4wNDg4LDAuMDg1NiAtMC4wODUsMC4xMTg5IC0wLjAzNjIsMC4wMzM0IC0wLjA3ODksMC4wNTg4IC0wLjEyNTUsMC4wNzQ5IC0wLjA0NjUsMC4wMTYgLTAuMDk1OCwwLjAyMjIgLTAuMTQ0OSwwLjAxODIgLTEuOTY0NiwtMC4xNjYxIC0zLjkxMjksLTAuNDg4NyAtNS44MjYzLC0wLjk2NDcgLTEuMTczNywtMC4yODMzIC0yLjMxNTgsLTAuNjg0OCAtMy40MDg3LC0xLjE5ODMgLTAuMDE5LC0wLjAwODQgLTAuMDM3MSwtMC4wMTg3IC0wLjA1NCwtMC4wMzA4IC0xLjU0MTgsLTEuMDgzMiAtMi44Mjc3LC0yLjQ5MTMgLTMuNzY3MiwtNC4xMjUzIC0wLjAyNjUsLTAuMDM4MSAtMC4wNDI1LC0wLjA4MjUgLTAuMDQ2NSwtMC4xMjg4IC0wLjAwNCwtMC4wNDYyIDAuMDA0MiwtMC4wOTI3IDAuMDIzNiwtMC4xMzQ4IDAuMDE5NSwtMC4wNDIxIDAuMDQ5NywtMC4wNzg0IDAuMDg3NSwtMC4xMDUzIDAuMDM3OCwtMC4wMjY4IDAuMDgyLC0wLjA0MzMgMC4xMjgyLC0wLjA0NzggbCAwLjUxMDksLTAuMTA0MiBjIDAuMTAxNCwtMC4wMjI5IDAuMTk1MSwtMC4wNzIgMC4yNzE2LC0wLjE0MjQgMC4wNzY1LC0wLjA3MDQgMC4xMzMyLC0wLjE1OTcgMC4xNjQ0LC0wLjI1ODkgMC4wMzEzLC0wLjA5OTIgMC4wMzU5LC0wLjIwNDkgMC4wMTM1LC0wLjMwNjUgLTAuMDIyNCwtMC4xMDE2IC0wLjA3MSwtMC4xOTU1IC0wLjE0MSwtMC4yNzI0IGwgLTQuNDg0NSwtNC44OTEzIGMgLTAuMDY4NCwtMC4wNzc3IC0wLjE1NjQsLTAuMTM1NiAtMC4yNTQ4LC0wLjE2NzcgLTAuMDk4NCwtMC4wMzIxIC0wLjIwMzYsLTAuMDM3MSAtMC4zMDQ3LC0wLjAxNDcgLTAuMTAxLDAuMDIyNSAtMC4xOTQxLDAuMDcxNyAtMC4yNjk3LDAuMTQyNSAtMC4wNzU2LDAuMDcwNyAtMC4xMzA4LDAuMTYwNSAtMC4xNTk5LDAuMjU5OSAtMC42NjMyLDIuMTAxMiAtMS4zMDkxLDQuMTU0MiAtMS45NjQ2LDYuMjM2MSAtMC4wMzQ0LDAuMTA4NiAtMC4wMzk2LDAuMjI0NCAtMC4wMTUsMC4zMzU3IDAuMDI0NywwLjExMTIgMC4wNzgzLDAuMjE0IDAuMTU1NCwwLjI5NzggMC4wNzcxLDAuMDgzOCAwLjE3NSwwLjE0NTggMC4yODM4LDAuMTc5NiAwLjEwODcsMC4wMzM3IDAuMjI0NCwwLjAzODEgMC4zMzU0LDAuMDEyNyBsIDAuMzQ3MSwtMC4wNzkxIGMgMC4yMTM0LC0wLjA0ODggMC40MzcsLTAuMDI1MyAwLjYzNTYsMC4wNjY5IDAuMTk4NSwwLjA5MjIgMC4zNjA5LDAuMjQ3OSAwLjQ2MTQsMC40NDI1IDIuNTc5Niw1LjAxNjcgNi40NTg3LDguNjQ2IDExLjU5MSwxMC45NDAyIDIuMDA1MSwwLjg5NzIgMi43OTk0LDEuMTU3NyA0LjUzMDcsMS40MjIgMC4wNzMyLDAuMDExMiAwLjE0MDgsMC4wNDU3IDAuMTkyOCwwLjA5ODQgbCAyLjYzNTYsMi42MTQ1IGMgMC4xNzY3LDAuMTcyMiAwLjQxMzYsMC4yNjg1IDAuNjYwMywwLjI2ODUgMC4yNDY3LDAgMC40ODM2LC0wLjA5NjMgMC42NjAzLC0wLjI2ODUgbCAyLjU2MDQsLTIuNTA4MyBjIDAuMDU4NiwtMC4wNTY5IDAuMTM0NywtMC4wOTIyIDAuMjE1OSwtMC4xMDA0IDIuNTY0MiwtMC4yNDEyIDMuNzA3NSwtMC44NzYgNi40NjY0LC0yLjEzOTggNC4yNzA1LC0xLjk1NDYgNy42NjE4LC01LjM1NjIgOS44NDQzLC05LjUxNjIgMC4xOTI4LC0wLjM3MDUgMC4zNjI0LC0wLjQxNDkgMC42OTAyLC0wLjMwNDkgMC4xMjUzLDAuMDQyNSAwLjI1MjUsMC4wODMgMC4zODU2LDAuMTIxNiAwLjEzNTQsMC4wNDIyIDAuMjc5NiwwLjA0NzMgMC40MTc2LDAuMDE0OSAwLjEzODEsLTAuMDMyNCAwLjI2NDksLTAuMTAxMiAwLjM2NzQsLTAuMTk5MyAwLjEwMjUsLTAuMDk4IDAuMTc2OSwtMC4yMjE3IDAuMjE1NSwtMC4zNTgzIDAuMDM4NiwtMC4xMzY2IDAuMDQsLTAuMjgxIDAuMDA0LC0wLjQxODIgeiBNIDcwLjY3MTksNTIuOTg3NiBjIC0wLjQ1MSwtMC4wMTU4IC0wLjg5NDMsLTAuMTIwOSAtMS4zMDQ0LC0wLjMwOTIgLTAuNDEwMSwtMC4xODgzIC0wLjc3ODksLTAuNDU2IC0xLjA4NTEsLTAuNzg3NyAtMC4zMDYyLC0wLjMzMTcgLTAuNTQzNiwtMC43MjA4IC0wLjY5ODcsLTEuMTQ0OSAtMC4xNTUxLC0wLjQyNDEgLTAuMjI0NywtMC44NzQ3IC0wLjIwNDgsLTEuMzI1OCAwLjA5MjUsLTIuMDE4MiAxLjc2OTksLTMuNTA3OCAzLjY2MzEsLTMuMzYzMSAxLjk5MzYsMC4xNTQ0IDMuMzY2MywxLjc1NzggMy4yNjYsMy42MDYyIC0wLjEwNzksMi4wMTA1IC0xLjc1NDQsMy40NjU0IC0zLjYzNjEsMy4zMjQ1IHoiLz4mI3hhOyAgPC9nPiYjeGE7ICA8ZGVmcyBpZD0iZGVmczgyMSI+JiN4YTsgICAgPGNsaXBQYXRoIGlkPSJjbGlwMF8wXzgxMiI+JiN4YTsgICAgICA8cmVjdCB5PSIwIiB4PSIwIiBpZD0icmVjdDgxOCIgZmlsbD0iI2ZmZmZmZiIgaGVpZ2h0PSIxMzYuODM3MDEiIHdpZHRoPSIxNDEuNzAyIi8+JiN4YTsgICAgPC9jbGlwUGF0aD4mI3hhOyAgPC9kZWZzPiYjeGE7PC9zdmc+;" vertex="1" parent="1">
          <mxGeometry x="-220" y="52.5" width="69.5" height="69.5" as="geometry" />
        </mxCell>
        <mxCell id="j-9rDOzRSI_zfjBaEmqv-70" style="edgeStyle=orthogonalEdgeStyle;rounded=0;orthogonalLoop=1;jettySize=auto;html=1;exitX=0.5;exitY=0;exitDx=0;exitDy=0;exitPerimeter=0;" edge="1" parent="1" source="j-9rDOzRSI_zfjBaEmqv-68" target="j-9rDOzRSI_zfjBaEmqv-67">
          <mxGeometry relative="1" as="geometry" />
        </mxCell>
        <mxCell id="j-9rDOzRSI_zfjBaEmqv-68" value="" style="aspect=fixed;sketch=0;html=1;dashed=0;whitespace=wrap;verticalLabelPosition=bottom;verticalAlign=top;fillColor=#2875E2;strokeColor=#ffffff;points=[[0.005,0.63,0],[0.1,0.2,0],[0.9,0.2,0],[0.5,0,0],[0.995,0.63,0],[0.72,0.99,0],[0.5,1,0],[0.28,0.99,0]];shape=mxgraph.kubernetes.icon2;prIcon=pod" vertex="1" parent="1">
          <mxGeometry x="-211" y="170" width="50" height="48" as="geometry" />
        </mxCell>
        <mxCell id="j-9rDOzRSI_zfjBaEmqv-94" style="edgeStyle=orthogonalEdgeStyle;rounded=0;orthogonalLoop=1;jettySize=auto;html=1;exitX=0.25;exitY=1;exitDx=0;exitDy=0;entryX=0.5;entryY=1;entryDx=0;entryDy=0;strokeColor=#009900;" edge="1" parent="1" source="j-9rDOzRSI_zfjBaEmqv-71" target="j-9rDOzRSI_zfjBaEmqv-84">
          <mxGeometry relative="1" as="geometry">
            <Array as="points">
              <mxPoint x="-218" y="500" />
              <mxPoint x="-1285" y="500" />
            </Array>
          </mxGeometry>
        </mxCell>
        <mxCell id="j-9rDOzRSI_zfjBaEmqv-71" value="istio-csr-plugin" style="text;html=1;align=center;verticalAlign=middle;whiteSpace=wrap;rounded=0;" vertex="1" parent="1">
          <mxGeometry x="-251.5" y="218" width="132.5" height="30" as="geometry" />
        </mxCell>
        <mxCell id="j-9rDOzRSI_zfjBaEmqv-74" value="" style="edgeStyle=orthogonalEdgeStyle;rounded=0;orthogonalLoop=1;jettySize=auto;html=1;" edge="1" parent="1" source="j-9rDOzRSI_zfjBaEmqv-72" target="j-9rDOzRSI_zfjBaEmqv-67">
          <mxGeometry relative="1" as="geometry" />
        </mxCell>
        <mxCell id="j-9rDOzRSI_zfjBaEmqv-72" value="" style="sketch=0;outlineConnect=0;fontColor=#232F3E;gradientColor=none;fillColor=#DD344C;strokeColor=none;dashed=0;verticalLabelPosition=bottom;verticalAlign=top;align=center;html=1;fontSize=12;fontStyle=0;aspect=fixed;pointerEvents=1;shape=mxgraph.aws4.certificate_manager_2;" vertex="1" parent="1">
          <mxGeometry x="-213.09" y="-40" width="54.17" height="50" as="geometry" />
        </mxCell>
        <mxCell id="j-9rDOzRSI_zfjBaEmqv-73" value="Certificate&lt;div&gt;Authorities&lt;/div&gt;" style="text;html=1;align=left;verticalAlign=middle;whiteSpace=wrap;rounded=0;" vertex="1" parent="1">
          <mxGeometry x="-150.5" y="-35.5" width="132.5" height="30" as="geometry" />
        </mxCell>
        <mxCell id="j-9rDOzRSI_zfjBaEmqv-76" value="CertManager&lt;div&gt;Issuer&lt;/div&gt;" style="text;html=1;align=left;verticalAlign=middle;whiteSpace=wrap;rounded=0;" vertex="1" parent="1">
          <mxGeometry x="-140" y="72.25" width="132.5" height="30" as="geometry" />
        </mxCell>
        <mxCell id="j-9rDOzRSI_zfjBaEmqv-77" value="Istio" style="sketch=0;html=1;verticalAlign=top;labelPosition=center;verticalLabelPosition=bottom;align=center;spacingTop=-6;fontSize=11;fontStyle=1;fontColor=#999999;shape=image;aspect=fixed;imageAspect=0;image=data:image/svg+xml,PHN2ZyB4bWxucz0iaHR0cDovL3d3dy53My5vcmcvMjAwMC9zdmciIHhtbG5zOnY9Imh0dHBzOi8vdmVjdGEuaW8vbmFubyIgd2lkdGg9IjE2MCIgaGVpZ2h0PSIyNDAiIHZpZXdCb3g9IjAgMCAxNjAgMjQwIj4mI3hhOwk8c3R5bGUgdHlwZT0idGV4dC9jc3MiPiYjeGE7CS5zdDB7ZmlsbDojNDY2YmIwO30mI3hhOwk8L3N0eWxlPiYjeGE7CTxwYXRoIGNsYXNzPSJzdDAiIGQ9Ik02MCAyNDBMMCAyMTBoMTYwem0wLTE2MEwwIDIwMGw2MC0xMHpNNzAgMHYxOTBsOTAgMTB6Ii8+JiN4YTs8L3N2Zz4=;" vertex="1" parent="1">
          <mxGeometry x="-297.78999999999996" y="-2.5" width="46.29" height="72" as="geometry" />
        </mxCell>
        <mxCell id="j-9rDOzRSI_zfjBaEmqv-80" value="Istio-System Namespace" style="text;html=1;align=center;verticalAlign=middle;whiteSpace=wrap;rounded=0;" vertex="1" parent="1">
          <mxGeometry x="-231.75" y="267.5" width="132.5" height="30" as="geometry" />
        </mxCell>
        <mxCell id="j-9rDOzRSI_zfjBaEmqv-81" value="" style="aspect=fixed;sketch=0;html=1;dashed=0;whitespace=wrap;verticalLabelPosition=bottom;verticalAlign=top;fillColor=#2875E2;strokeColor=#ffffff;points=[[0.005,0.63,0],[0.1,0.2,0],[0.9,0.2,0],[0.5,0,0],[0.995,0.63,0],[0.72,0.99,0],[0.5,1,0],[0.28,0.99,0]];shape=mxgraph.kubernetes.icon2;prIcon=pod" vertex="1" parent="1">
          <mxGeometry x="-1201.25" y="203.5" width="50" height="48" as="geometry" />
        </mxCell>
        <mxCell id="j-9rDOzRSI_zfjBaEmqv-82" value="Pod { n ... }" style="text;html=1;align=center;verticalAlign=middle;whiteSpace=wrap;rounded=0;" vertex="1" parent="1">
          <mxGeometry x="-1242.5" y="257.5" width="132.5" height="30" as="geometry" />
        </mxCell>
        <mxCell id="j-9rDOzRSI_zfjBaEmqv-83" value="" style="editableCssRules=.*;html=1;shape=image;verticalLabelPosition=bottom;labelBackgroundColor=#ffffff;verticalAlign=top;aspect=fixed;imageAspect=0;image=data:image/svg+xml,PHN2ZyB4bWxucz0iaHR0cDovL3d3dy53My5vcmcvMjAwMC9zdmciIHhtbG5zOnY9Imh0dHBzOi8vdmVjdGEuaW8vbmFubyIgd2lkdGg9IjE2MCIgaGVpZ2h0PSIyNDAiIHZpZXdCb3g9IjAgMCAxNjAgMjQwIj4mI3hhOwk8c3R5bGUgdHlwZT0idGV4dC9jc3MiPiYjeGE7CS5zdDB7ZmlsbDojNDY2YmIwO30mI3hhOwk8L3N0eWxlPiYjeGE7CTxwYXRoIGNsYXNzPSJzdDAiIGQ9Ik02MCAyNDBMMCAyMTBoMTYwem0wLTE2MEwwIDIwMGw2MC0xMHpNNzAgMHYxOTBsOTAgMTB6Ii8+JiN4YTs8L3N2Zz4=;fontColor=default;" vertex="1" parent="1">
          <mxGeometry x="-1305.15" y="195.5" width="40.3" height="62" as="geometry" />
        </mxCell>
        <mxCell id="j-9rDOzRSI_zfjBaEmqv-84" value="Sidecar Proxy" style="text;html=1;align=center;verticalAlign=middle;whiteSpace=wrap;rounded=0;" vertex="1" parent="1">
          <mxGeometry x="-1331.13" y="257.5" width="92.26" height="30" as="geometry" />
        </mxCell>
        <mxCell id="j-9rDOzRSI_zfjBaEmqv-85" value="&lt;div&gt;Hōko&#39;s Application Type Namespace&lt;/div&gt;" style="text;html=1;align=center;verticalAlign=middle;whiteSpace=wrap;rounded=0;" vertex="1" parent="1">
          <mxGeometry x="-1340" y="147.5" width="223.6" height="30" as="geometry" />
        </mxCell>
        <mxCell id="j-9rDOzRSI_zfjBaEmqv-86" style="edgeStyle=orthogonalEdgeStyle;rounded=0;orthogonalLoop=1;jettySize=auto;html=1;entryX=1.064;entryY=0.479;entryDx=0;entryDy=0;entryPerimeter=0;strokeColor=#99004D;" edge="1" parent="1" source="j-9rDOzRSI_zfjBaEmqv-34" target="j-9rDOzRSI_zfjBaEmqv-38">
          <mxGeometry relative="1" as="geometry">
            <Array as="points">
              <mxPoint x="-570" y="250" />
              <mxPoint x="-570" y="423" />
            </Array>
          </mxGeometry>
        </mxCell>
        <mxCell id="j-9rDOzRSI_zfjBaEmqv-87" value="replicas++&lt;div&gt;replicas --&lt;/div&gt;" style="edgeLabel;html=1;align=center;verticalAlign=middle;resizable=0;points=[];" vertex="1" connectable="0" parent="j-9rDOzRSI_zfjBaEmqv-86">
          <mxGeometry x="0.3716" y="2" relative="1" as="geometry">
            <mxPoint as="offset" />
          </mxGeometry>
        </mxCell>
        <mxCell id="j-9rDOzRSI_zfjBaEmqv-88" value="Deployment" style="edgeLabel;html=1;align=center;verticalAlign=middle;resizable=0;points=[];" vertex="1" connectable="0" parent="1">
          <mxGeometry x="-633.75" y="460" as="geometry" />
        </mxCell>
        <mxCell id="j-9rDOzRSI_zfjBaEmqv-92" style="edgeStyle=orthogonalEdgeStyle;rounded=0;orthogonalLoop=1;jettySize=auto;html=1;strokeColor=#99004D;" edge="1" parent="1" source="j-9rDOzRSI_zfjBaEmqv-89" target="j-9rDOzRSI_zfjBaEmqv-82">
          <mxGeometry relative="1" as="geometry" />
        </mxCell>
        <mxCell id="j-9rDOzRSI_zfjBaEmqv-89" value="" style="aspect=fixed;sketch=0;html=1;dashed=0;whitespace=wrap;verticalLabelPosition=bottom;verticalAlign=top;fillColor=#2875E2;strokeColor=#ffffff;points=[[0.005,0.63,0],[0.1,0.2,0],[0.9,0.2,0],[0.5,0,0],[0.995,0.63,0],[0.72,0.99,0],[0.5,1,0],[0.28,0.99,0]];shape=mxgraph.kubernetes.icon2;prIcon=ds" vertex="1" parent="1">
          <mxGeometry x="-765.8299999999999" y="400" width="50" height="48" as="geometry" />
        </mxCell>
        <mxCell id="j-9rDOzRSI_zfjBaEmqv-90" value="Replicaset" style="text;html=1;align=center;verticalAlign=middle;whiteSpace=wrap;rounded=0;" vertex="1" parent="1">
          <mxGeometry x="-786.25" y="448" width="78.33" height="30" as="geometry" />
        </mxCell>
        <mxCell id="j-9rDOzRSI_zfjBaEmqv-95" value="" style="aspect=fixed;sketch=0;html=1;dashed=0;whitespace=wrap;verticalLabelPosition=bottom;verticalAlign=top;fillColor=#2875E2;strokeColor=#ffffff;points=[[0.005,0.63,0],[0.1,0.2,0],[0.9,0.2,0],[0.5,0,0],[0.995,0.63,0],[0.72,0.99,0],[0.5,1,0],[0.28,0.99,0]];shape=mxgraph.kubernetes.icon2;kubernetesLabel=1;prIcon=api" vertex="1" parent="1">
          <mxGeometry x="-479.17999999999984" y="56" width="41.67" height="40" as="geometry" />
        </mxCell>
        <mxCell id="j-9rDOzRSI_zfjBaEmqv-96" value="" style="aspect=fixed;sketch=0;html=1;dashed=0;whitespace=wrap;verticalLabelPosition=bottom;verticalAlign=top;fillColor=#2875E2;strokeColor=#ffffff;points=[[0.005,0.63,0],[0.1,0.2,0],[0.9,0.2,0],[0.5,0,0],[0.995,0.63,0],[0.72,0.99,0],[0.5,1,0],[0.28,0.99,0]];shape=mxgraph.kubernetes.icon2;kubernetesLabel=1;prIcon=c_m" vertex="1" parent="1">
          <mxGeometry x="-528.76" y="2" width="41.67" height="40" as="geometry" />
        </mxCell>
        <mxCell id="j-9rDOzRSI_zfjBaEmqv-97" value="" style="aspect=fixed;sketch=0;html=1;dashed=0;whitespace=wrap;verticalLabelPosition=bottom;verticalAlign=top;fillColor=#2875E2;strokeColor=#ffffff;points=[[0.005,0.63,0],[0.1,0.2,0],[0.9,0.2,0],[0.5,0,0],[0.995,0.63,0],[0.72,0.99,0],[0.5,1,0],[0.28,0.99,0]];shape=mxgraph.kubernetes.icon2;kubernetesLabel=1;prIcon=etcd" vertex="1" parent="1">
          <mxGeometry x="-528.7599999999999" y="56" width="41.67" height="40" as="geometry" />
        </mxCell>
        <mxCell id="j-9rDOzRSI_zfjBaEmqv-98" value="" style="aspect=fixed;sketch=0;html=1;dashed=0;whitespace=wrap;verticalLabelPosition=bottom;verticalAlign=top;fillColor=#2875E2;strokeColor=#ffffff;points=[[0.005,0.63,0],[0.1,0.2,0],[0.9,0.2,0],[0.5,0,0],[0.995,0.63,0],[0.72,0.99,0],[0.5,1,0],[0.28,0.99,0]];shape=mxgraph.kubernetes.icon2;kubernetesLabel=1;prIcon=hpa" vertex="1" parent="1">
          <mxGeometry x="-435.41999999999985" y="28.5" width="41.67" height="40" as="geometry" />
        </mxCell>
        <mxCell id="j-9rDOzRSI_zfjBaEmqv-99" value="" style="aspect=fixed;sketch=0;html=1;dashed=0;whitespace=wrap;verticalLabelPosition=bottom;verticalAlign=top;fillColor=#2875E2;strokeColor=#ffffff;points=[[0.005,0.63,0],[0.1,0.2,0],[0.9,0.2,0],[0.5,0,0],[0.995,0.63,0],[0.72,0.99,0],[0.5,1,0],[0.28,0.99,0]];shape=mxgraph.kubernetes.icon2;kubernetesLabel=1;prIcon=sched" vertex="1" parent="1">
          <mxGeometry x="-481.2599999999999" width="45.84" height="44" as="geometry" />
        </mxCell>
        <mxCell id="j-9rDOzRSI_zfjBaEmqv-100" value="" style="aspect=fixed;sketch=0;html=1;dashed=0;whitespace=wrap;verticalLabelPosition=bottom;verticalAlign=top;fillColor=#2875E2;strokeColor=#ffffff;points=[[0.005,0.63,0],[0.1,0.2,0],[0.9,0.2,0],[0.5,0,0],[0.995,0.63,0],[0.72,0.99,0],[0.5,1,0],[0.28,0.99,0]];shape=mxgraph.kubernetes.icon2;kubernetesLabel=1;prIcon=api" vertex="1" parent="1">
          <mxGeometry x="-939.1799999999998" y="56.5" width="41.67" height="40" as="geometry" />
        </mxCell>
        <mxCell id="j-9rDOzRSI_zfjBaEmqv-101" value="" style="aspect=fixed;sketch=0;html=1;dashed=0;whitespace=wrap;verticalLabelPosition=bottom;verticalAlign=top;fillColor=#2875E2;strokeColor=#ffffff;points=[[0.005,0.63,0],[0.1,0.2,0],[0.9,0.2,0],[0.5,0,0],[0.995,0.63,0],[0.72,0.99,0],[0.5,1,0],[0.28,0.99,0]];shape=mxgraph.kubernetes.icon2;kubernetesLabel=1;prIcon=c_m" vertex="1" parent="1">
          <mxGeometry x="-988.76" y="2.5" width="41.67" height="40" as="geometry" />
        </mxCell>
        <mxCell id="j-9rDOzRSI_zfjBaEmqv-102" value="" style="aspect=fixed;sketch=0;html=1;dashed=0;whitespace=wrap;verticalLabelPosition=bottom;verticalAlign=top;fillColor=#2875E2;strokeColor=#ffffff;points=[[0.005,0.63,0],[0.1,0.2,0],[0.9,0.2,0],[0.5,0,0],[0.995,0.63,0],[0.72,0.99,0],[0.5,1,0],[0.28,0.99,0]];shape=mxgraph.kubernetes.icon2;kubernetesLabel=1;prIcon=etcd" vertex="1" parent="1">
          <mxGeometry x="-988.7599999999999" y="56.5" width="41.67" height="40" as="geometry" />
        </mxCell>
        <mxCell id="j-9rDOzRSI_zfjBaEmqv-103" value="" style="aspect=fixed;sketch=0;html=1;dashed=0;whitespace=wrap;verticalLabelPosition=bottom;verticalAlign=top;fillColor=#2875E2;strokeColor=#ffffff;points=[[0.005,0.63,0],[0.1,0.2,0],[0.9,0.2,0],[0.5,0,0],[0.995,0.63,0],[0.72,0.99,0],[0.5,1,0],[0.28,0.99,0]];shape=mxgraph.kubernetes.icon2;kubernetesLabel=1;prIcon=hpa" vertex="1" parent="1">
          <mxGeometry x="-895.4199999999998" y="29" width="41.67" height="40" as="geometry" />
        </mxCell>
        <mxCell id="j-9rDOzRSI_zfjBaEmqv-104" value="" style="aspect=fixed;sketch=0;html=1;dashed=0;whitespace=wrap;verticalLabelPosition=bottom;verticalAlign=top;fillColor=#2875E2;strokeColor=#ffffff;points=[[0.005,0.63,0],[0.1,0.2,0],[0.9,0.2,0],[0.5,0,0],[0.995,0.63,0],[0.72,0.99,0],[0.5,1,0],[0.28,0.99,0]];shape=mxgraph.kubernetes.icon2;kubernetesLabel=1;prIcon=sched" vertex="1" parent="1">
          <mxGeometry x="-941.2599999999999" y="0.5" width="45.84" height="44" as="geometry" />
        </mxCell>
        <mxCell id="j-9rDOzRSI_zfjBaEmqv-106" value="Architecture Overview" style="text;html=1;align=center;verticalAlign=middle;whiteSpace=wrap;rounded=0;fontSize=24;fontStyle=1" vertex="1" parent="1">
          <mxGeometry x="-1480" y="-190" width="270" height="30" as="geometry" />
        </mxCell>
        <mxCell id="j-9rDOzRSI_zfjBaEmqv-108" value="" style="editableCssRules=.*;html=1;shape=image;verticalLabelPosition=bottom;labelBackgroundColor=#ffffff;verticalAlign=top;aspect=fixed;imageAspect=0;image=data:image/svg+xml,PHN2ZyB4bWxucz0iaHR0cDovL3d3dy53My5vcmcvMjAwMC9zdmciIHhtbG5zOnY9Imh0dHBzOi8vdmVjdGEuaW8vbmFubyIgd2lkdGg9IjE2MCIgaGVpZ2h0PSIyNDAiIHZpZXdCb3g9IjAgMCAxNjAgMjQwIj4mI3hhOwk8c3R5bGUgdHlwZT0idGV4dC9jc3MiPiYjeGE7CS5zdDB7ZmlsbDojNDY2YmIwO30mI3hhOwk8L3N0eWxlPiYjeGE7CTxwYXRoIGNsYXNzPSJzdDAiIGQ9Ik02MCAyNDBMMCAyMTBoMTYwem0wLTE2MEwwIDIwMGw2MC0xMHpNNzAgMHYxOTBsOTAgMTB6Ii8+JiN4YTs8L3N2Zz4=;fontColor=default;" vertex="1" parent="1">
          <mxGeometry x="-654.99" y="177.5" width="32.5" height="50" as="geometry" />
        </mxCell>
        <mxCell id="j-9rDOzRSI_zfjBaEmqv-109" value="" style="editableCssRules=.*;html=1;shape=image;verticalLabelPosition=bottom;labelBackgroundColor=#ffffff;verticalAlign=top;aspect=fixed;imageAspect=0;image=data:image/svg+xml,PHN2ZyB4bWxucz0iaHR0cDovL3d3dy53My5vcmcvMjAwMC9zdmciIHhtbG5zOnY9Imh0dHBzOi8vdmVjdGEuaW8vbmFubyIgd2lkdGg9IjE2MCIgaGVpZ2h0PSIyNDAiIHZpZXdCb3g9IjAgMCAxNjAgMjQwIj4mI3hhOwk8c3R5bGUgdHlwZT0idGV4dC9jc3MiPiYjeGE7CS5zdDB7ZmlsbDojNDY2YmIwO30mI3hhOwk8L3N0eWxlPiYjeGE7CTxwYXRoIGNsYXNzPSJzdDAiIGQ9Ik02MCAyNDBMMCAyMTBoMTYwem0wLTE2MEwwIDIwMGw2MC0xMHpNNzAgMHYxOTBsOTAgMTB6Ii8+JiN4YTs8L3N2Zz4=;fontColor=default;" vertex="1" parent="1">
          <mxGeometry x="-430.83000000000004" y="-21.5" width="32.5" height="50" as="geometry" />
        </mxCell>
        <mxCell id="j-9rDOzRSI_zfjBaEmqv-110" value="" style="editableCssRules=.*;html=1;shape=image;verticalLabelPosition=bottom;labelBackgroundColor=#ffffff;verticalAlign=top;aspect=fixed;imageAspect=0;image=data:image/svg+xml,PHN2ZyB4bWxucz0iaHR0cDovL3d3dy53My5vcmcvMjAwMC9zdmciIHhtbG5zOnY9Imh0dHBzOi8vdmVjdGEuaW8vbmFubyIgd2lkdGg9IjE2MCIgaGVpZ2h0PSIyNDAiIHZpZXdCb3g9IjAgMCAxNjAgMjQwIj4mI3hhOwk8c3R5bGUgdHlwZT0idGV4dC9jc3MiPiYjeGE7CS5zdDB7ZmlsbDojNDY2YmIwO30mI3hhOwk8L3N0eWxlPiYjeGE7CTxwYXRoIGNsYXNzPSJzdDAiIGQ9Ik02MCAyNDBMMCAyMTBoMTYwem0wLTE2MEwwIDIwMGw2MC0xMHpNNzAgMHYxOTBsOTAgMTB6Ii8+JiN4YTs8L3N2Zz4=;fontColor=default;" vertex="1" parent="1">
          <mxGeometry x="-890.8299999999999" y="-21.5" width="32.5" height="50" as="geometry" />
        </mxCell>
        <mxCell id="j-9rDOzRSI_zfjBaEmqv-111" value="&lt;font style=&quot;font-size: 25px;&quot;&gt;Hōko Concept Schema&lt;/font&gt;" style="text;html=1;align=center;verticalAlign=middle;whiteSpace=wrap;rounded=0;fontSize=24;fontStyle=1" vertex="1" parent="1">
          <mxGeometry x="-1480" y="640" width="294" height="30" as="geometry" />
        </mxCell>
        <mxCell id="j-9rDOzRSI_zfjBaEmqv-112" style="edgeStyle=orthogonalEdgeStyle;rounded=0;orthogonalLoop=1;jettySize=auto;html=1;entryX=0.002;entryY=0.451;entryDx=0;entryDy=0;entryPerimeter=0;" edge="1" parent="1" source="j-9rDOzRSI_zfjBaEmqv-5" target="j-9rDOzRSI_zfjBaEmqv-15">
          <mxGeometry relative="1" as="geometry">
            <Array as="points">
              <mxPoint x="-970" y="782" />
            </Array>
          </mxGeometry>
        </mxCell>
        <mxCell id="j-9rDOzRSI_zfjBaEmqv-184" value="gRPC" style="edgeLabel;html=1;align=center;verticalAlign=middle;resizable=0;points=[];" vertex="1" connectable="0" parent="j-9rDOzRSI_zfjBaEmqv-112">
          <mxGeometry x="-0.65" relative="1" as="geometry">
            <mxPoint x="10" as="offset" />
          </mxGeometry>
        </mxCell>
        <mxCell id="j-9rDOzRSI_zfjBaEmqv-120" value="DeamonSet" style="text;html=1;align=center;verticalAlign=middle;whiteSpace=wrap;rounded=0;" vertex="1" parent="1">
          <mxGeometry x="-1161.61" y="326" width="90.11" height="30" as="geometry" />
        </mxCell>
        <mxCell id="j-9rDOzRSI_zfjBaEmqv-121" value="" style="aspect=fixed;sketch=0;html=1;dashed=0;whitespace=wrap;verticalLabelPosition=bottom;verticalAlign=top;fillColor=#2875E2;strokeColor=#ffffff;points=[[0.005,0.63,0],[0.1,0.2,0],[0.9,0.2,0],[0.5,0,0],[0.995,0.63,0],[0.72,0.99,0],[0.5,1,0],[0.28,0.99,0]];shape=mxgraph.kubernetes.icon2;prIcon=ds" vertex="1" parent="1">
          <mxGeometry x="-1151.25" y="278" width="50" height="48" as="geometry" />
        </mxCell>
        <mxCell id="j-9rDOzRSI_zfjBaEmqv-123" value="Each node is active, hosting at least one replication of all microservices" style="text;html=1;align=center;verticalAlign=middle;whiteSpace=wrap;rounded=0;fillColor=#fff2cc;strokeColor=#d6b656;" vertex="1" parent="1">
          <mxGeometry x="-1078.87" y="326" width="90.11" height="80" as="geometry" />
        </mxCell>
        <mxCell id="j-9rDOzRSI_zfjBaEmqv-128" value="" style="shape=flexArrow;endArrow=classic;startArrow=classic;html=1;rounded=0;strokeColor=#006600;" edge="1" parent="1">
          <mxGeometry width="100" height="100" relative="1" as="geometry">
            <mxPoint x="-1034.23" y="270" as="sourcePoint" />
            <mxPoint x="-1034.23" y="50" as="targetPoint" />
          </mxGeometry>
        </mxCell>
        <mxCell id="j-9rDOzRSI_zfjBaEmqv-129" value="Text" style="edgeLabel;html=1;align=center;verticalAlign=middle;resizable=0;points=[];" vertex="1" connectable="0" parent="j-9rDOzRSI_zfjBaEmqv-128">
          <mxGeometry x="0.5045" y="-2" relative="1" as="geometry">
            <mxPoint x="-2" y="62" as="offset" />
          </mxGeometry>
        </mxCell>
        <mxCell id="j-9rDOzRSI_zfjBaEmqv-132" value="Active/Active&lt;div&gt;Control-Plane&lt;/div&gt;" style="edgeLabel;html=1;align=center;verticalAlign=middle;resizable=0;points=[];" vertex="1" connectable="0" parent="j-9rDOzRSI_zfjBaEmqv-128">
          <mxGeometry x="-0.0667" y="-1" relative="1" as="geometry">
            <mxPoint as="offset" />
          </mxGeometry>
        </mxCell>
        <mxCell id="j-9rDOzRSI_zfjBaEmqv-133" value="" style="aspect=fixed;sketch=0;html=1;dashed=0;whitespace=wrap;verticalLabelPosition=bottom;verticalAlign=top;fillColor=#2875E2;strokeColor=#ffffff;points=[[0.005,0.63,0],[0.1,0.2,0],[0.9,0.2,0],[0.5,0,0],[0.995,0.63,0],[0.72,0.99,0],[0.5,1,0],[0.28,0.99,0]];shape=mxgraph.kubernetes.icon2;kubernetesLabel=1;prIcon=c_c_m" vertex="1" parent="1">
          <mxGeometry x="-959.79" y="-21.5" width="32.29" height="31" as="geometry" />
        </mxCell>
        <mxCell id="j-9rDOzRSI_zfjBaEmqv-134" value="" style="aspect=fixed;sketch=0;html=1;dashed=0;whitespace=wrap;verticalLabelPosition=bottom;verticalAlign=top;fillColor=#2875E2;strokeColor=#ffffff;points=[[0.005,0.63,0],[0.1,0.2,0],[0.9,0.2,0],[0.5,0,0],[0.995,0.63,0],[0.72,0.99,0],[0.5,1,0],[0.28,0.99,0]];shape=mxgraph.kubernetes.icon2;kubernetesLabel=1;prIcon=c_c_m" vertex="1" parent="1">
          <mxGeometry x="-500" y="-21.5" width="32.29" height="31" as="geometry" />
        </mxCell>
        <mxCell id="j-9rDOzRSI_zfjBaEmqv-135" value="" style="aspect=fixed;sketch=0;html=1;dashed=0;whitespace=wrap;verticalLabelPosition=bottom;verticalAlign=top;fillColor=#2875E2;strokeColor=#ffffff;points=[[0.005,0.63,0],[0.1,0.2,0],[0.9,0.2,0],[0.5,0,0],[0.995,0.63,0],[0.72,0.99,0],[0.5,1,0],[0.28,0.99,0]];shape=mxgraph.kubernetes.icon2;kubernetesLabel=1;prIcon=c_c_m" vertex="1" parent="1">
          <mxGeometry x="-727.39" y="177.5" width="32.29" height="31" as="geometry" />
        </mxCell>
        <mxCell id="j-9rDOzRSI_zfjBaEmqv-137" value="CSPs" style="ellipse;shape=cloud;whiteSpace=wrap;html=1;" vertex="1" parent="1">
          <mxGeometry x="-695.1" y="-68" width="86" height="61" as="geometry" />
        </mxCell>
        <mxCell id="j-9rDOzRSI_zfjBaEmqv-141" value="" style="aspect=fixed;sketch=0;html=1;dashed=0;whitespace=wrap;verticalLabelPosition=bottom;verticalAlign=top;fillColor=#2875E2;strokeColor=#ffffff;points=[[0.005,0.63,0],[0.1,0.2,0],[0.9,0.2,0],[0.5,0,0],[0.995,0.63,0],[0.72,0.99,0],[0.5,1,0],[0.28,0.99,0]];shape=mxgraph.kubernetes.icon2;prIcon=api" vertex="1" parent="1">
          <mxGeometry x="-927.5" y="-116" width="50" height="48" as="geometry" />
        </mxCell>
        <mxCell id="j-9rDOzRSI_zfjBaEmqv-142" value="Autoscaler detects unschedulable pods and send request" style="text;html=1;align=center;verticalAlign=middle;whiteSpace=wrap;rounded=0;" vertex="1" parent="1">
          <mxGeometry x="-1052.5" y="-107" width="115" height="30" as="geometry" />
        </mxCell>
        <mxCell id="j-9rDOzRSI_zfjBaEmqv-147" style="edgeStyle=orthogonalEdgeStyle;rounded=0;orthogonalLoop=1;jettySize=auto;html=1;exitX=0.5;exitY=0;exitDx=0;exitDy=0;exitPerimeter=0;entryX=0.07;entryY=0.4;entryDx=0;entryDy=0;entryPerimeter=0;" edge="1" parent="1" source="j-9rDOzRSI_zfjBaEmqv-133" target="j-9rDOzRSI_zfjBaEmqv-137">
          <mxGeometry relative="1" as="geometry" />
        </mxCell>
        <mxCell id="j-9rDOzRSI_zfjBaEmqv-149" style="edgeStyle=orthogonalEdgeStyle;rounded=0;orthogonalLoop=1;jettySize=auto;html=1;entryX=0.5;entryY=1;entryDx=0;entryDy=0;entryPerimeter=0;" edge="1" parent="1" source="j-9rDOzRSI_zfjBaEmqv-104" target="j-9rDOzRSI_zfjBaEmqv-141">
          <mxGeometry relative="1" as="geometry" />
        </mxCell>
        <mxCell id="j-9rDOzRSI_zfjBaEmqv-151" style="edgeStyle=orthogonalEdgeStyle;rounded=0;orthogonalLoop=1;jettySize=auto;html=1;entryX=0.25;entryY=0.25;entryDx=0;entryDy=0;entryPerimeter=0;" edge="1" parent="1" source="j-9rDOzRSI_zfjBaEmqv-141" target="j-9rDOzRSI_zfjBaEmqv-137">
          <mxGeometry relative="1" as="geometry" />
        </mxCell>
        <mxCell id="j-9rDOzRSI_zfjBaEmqv-155" style="edgeStyle=orthogonalEdgeStyle;rounded=0;orthogonalLoop=1;jettySize=auto;html=1;" edge="1" parent="1" source="j-9rDOzRSI_zfjBaEmqv-156" target="j-9rDOzRSI_zfjBaEmqv-157">
          <mxGeometry relative="1" as="geometry" />
        </mxCell>
        <mxCell id="j-9rDOzRSI_zfjBaEmqv-156" value="" style="aspect=fixed;sketch=0;html=1;dashed=0;whitespace=wrap;verticalLabelPosition=bottom;verticalAlign=top;fillColor=#2875E2;strokeColor=#ffffff;points=[[0.005,0.63,0],[0.1,0.2,0],[0.9,0.2,0],[0.5,0,0],[0.995,0.63,0],[0.72,0.99,0],[0.5,1,0],[0.28,0.99,0]];shape=mxgraph.kubernetes.icon2;prIcon=svc" vertex="1" parent="1">
          <mxGeometry x="-1167.5" y="1060" width="50" height="48" as="geometry" />
        </mxCell>
        <mxCell id="j-9rDOzRSI_zfjBaEmqv-182" style="edgeStyle=orthogonalEdgeStyle;rounded=0;orthogonalLoop=1;jettySize=auto;html=1;" edge="1" parent="1" source="j-9rDOzRSI_zfjBaEmqv-157" target="j-9rDOzRSI_zfjBaEmqv-12">
          <mxGeometry relative="1" as="geometry">
            <Array as="points">
              <mxPoint x="-985" y="1000" />
              <mxPoint x="-1136" y="1000" />
            </Array>
          </mxGeometry>
        </mxCell>
        <mxCell id="j-9rDOzRSI_zfjBaEmqv-183" value="gRPC" style="edgeLabel;html=1;align=center;verticalAlign=middle;resizable=0;points=[];" vertex="1" connectable="0" parent="j-9rDOzRSI_zfjBaEmqv-182">
          <mxGeometry x="-0.0952" relative="1" as="geometry">
            <mxPoint as="offset" />
          </mxGeometry>
        </mxCell>
        <mxCell id="j-9rDOzRSI_zfjBaEmqv-205" style="edgeStyle=orthogonalEdgeStyle;rounded=0;orthogonalLoop=1;jettySize=auto;html=1;entryX=0;entryY=0.5;entryDx=0;entryDy=0;" edge="1" parent="1" source="j-9rDOzRSI_zfjBaEmqv-157" target="j-9rDOzRSI_zfjBaEmqv-204">
          <mxGeometry relative="1" as="geometry" />
        </mxCell>
        <mxCell id="j-9rDOzRSI_zfjBaEmqv-157" value="" style="aspect=fixed;sketch=0;html=1;dashed=0;whitespace=wrap;verticalLabelPosition=bottom;verticalAlign=top;fillColor=#2875E2;strokeColor=#ffffff;points=[[0.005,0.63,0],[0.1,0.2,0],[0.9,0.2,0],[0.5,0,0],[0.995,0.63,0],[0.72,0.99,0],[0.5,1,0],[0.28,0.99,0]];shape=mxgraph.kubernetes.icon2;prIcon=pod" vertex="1" parent="1">
          <mxGeometry x="-1010" y="1060" width="50" height="48" as="geometry" />
        </mxCell>
        <mxCell id="j-9rDOzRSI_zfjBaEmqv-158" value="Pod&amp;nbsp;&lt;div&gt;Hōko&#39;s Management Service&lt;/div&gt;" style="text;html=1;align=center;verticalAlign=middle;whiteSpace=wrap;rounded=0;" vertex="1" parent="1">
          <mxGeometry x="-1065.25" y="1120" width="172.5" height="30" as="geometry" />
        </mxCell>
        <mxCell id="j-9rDOzRSI_zfjBaEmqv-159" value="LB SVC&lt;div&gt;Management&lt;/div&gt;" style="text;html=1;align=center;verticalAlign=middle;whiteSpace=wrap;rounded=0;" vertex="1" parent="1">
          <mxGeometry x="-1200" y="1120" width="115" height="30" as="geometry" />
        </mxCell>
        <mxCell id="j-9rDOzRSI_zfjBaEmqv-161" value="Actor" style="shape=umlActor;verticalLabelPosition=bottom;verticalAlign=top;html=1;outlineConnect=0;" vertex="1" parent="1">
          <mxGeometry x="-1460" y="1060" width="30" height="60" as="geometry" />
        </mxCell>
        <mxCell id="j-9rDOzRSI_zfjBaEmqv-166" value="" style="image;html=1;image=img/lib/clip_art/computers/Software_128x128.png" vertex="1" parent="1">
          <mxGeometry x="-1470" y="904" width="60" height="60" as="geometry" />
        </mxCell>
        <mxCell id="j-9rDOzRSI_zfjBaEmqv-168" value="Organization&#39;s Software" style="text;html=1;align=center;verticalAlign=middle;whiteSpace=wrap;rounded=0;" vertex="1" parent="1">
          <mxGeometry x="-1480" y="974" width="80" height="30" as="geometry" />
        </mxCell>
        <mxCell id="j-9rDOzRSI_zfjBaEmqv-174" style="edgeStyle=orthogonalEdgeStyle;rounded=0;orthogonalLoop=1;jettySize=auto;html=1;entryX=0.005;entryY=0.63;entryDx=0;entryDy=0;entryPerimeter=0;" edge="1" parent="1" source="j-9rDOzRSI_zfjBaEmqv-2" target="j-9rDOzRSI_zfjBaEmqv-4">
          <mxGeometry relative="1" as="geometry" />
        </mxCell>
        <mxCell id="j-9rDOzRSI_zfjBaEmqv-180" value="gRPC" style="edgeLabel;html=1;align=center;verticalAlign=middle;resizable=0;points=[];" vertex="1" connectable="0" parent="j-9rDOzRSI_zfjBaEmqv-174">
          <mxGeometry x="-0.0278" y="-1" relative="1" as="geometry">
            <mxPoint as="offset" />
          </mxGeometry>
        </mxCell>
        <mxCell id="j-9rDOzRSI_zfjBaEmqv-175" style="edgeStyle=orthogonalEdgeStyle;rounded=0;orthogonalLoop=1;jettySize=auto;html=1;entryX=0.005;entryY=0.63;entryDx=0;entryDy=0;entryPerimeter=0;" edge="1" parent="1" source="j-9rDOzRSI_zfjBaEmqv-2" target="j-9rDOzRSI_zfjBaEmqv-156">
          <mxGeometry relative="1" as="geometry">
            <Array as="points">
              <mxPoint x="-1200" y="1002" />
              <mxPoint x="-1200" y="1090" />
            </Array>
          </mxGeometry>
        </mxCell>
        <mxCell id="j-9rDOzRSI_zfjBaEmqv-181" value="Web GUI / CLI" style="edgeLabel;html=1;align=center;verticalAlign=middle;resizable=0;points=[];" vertex="1" connectable="0" parent="j-9rDOzRSI_zfjBaEmqv-175">
          <mxGeometry x="0.0435" y="4" relative="1" as="geometry">
            <mxPoint x="2" y="-22" as="offset" />
          </mxGeometry>
        </mxCell>
        <mxCell id="j-9rDOzRSI_zfjBaEmqv-178" style="rounded=0;orthogonalLoop=1;jettySize=auto;html=1;entryX=0.1;entryY=0.2;entryDx=0;entryDy=0;entryPerimeter=0;" edge="1" parent="1" source="j-9rDOzRSI_zfjBaEmqv-166" target="j-9rDOzRSI_zfjBaEmqv-2">
          <mxGeometry relative="1" as="geometry" />
        </mxCell>
        <mxCell id="j-9rDOzRSI_zfjBaEmqv-179" style="rounded=0;orthogonalLoop=1;jettySize=auto;html=1;entryX=0.005;entryY=0.63;entryDx=0;entryDy=0;entryPerimeter=0;" edge="1" parent="1" source="j-9rDOzRSI_zfjBaEmqv-161" target="j-9rDOzRSI_zfjBaEmqv-2">
          <mxGeometry relative="1" as="geometry" />
        </mxCell>
        <mxCell id="j-9rDOzRSI_zfjBaEmqv-186" value="" style="edgeStyle=orthogonalEdgeStyle;rounded=0;orthogonalLoop=1;jettySize=auto;html=1;" edge="1" parent="1" source="j-9rDOzRSI_zfjBaEmqv-187" target="j-9rDOzRSI_zfjBaEmqv-189">
          <mxGeometry relative="1" as="geometry" />
        </mxCell>
        <mxCell id="j-9rDOzRSI_zfjBaEmqv-187" value="" style="aspect=fixed;sketch=0;html=1;dashed=0;whitespace=wrap;verticalLabelPosition=bottom;verticalAlign=top;fillColor=#2875E2;strokeColor=#ffffff;points=[[0.005,0.63,0],[0.1,0.2,0],[0.9,0.2,0],[0.5,0,0],[0.995,0.63,0],[0.72,0.99,0],[0.5,1,0],[0.28,0.99,0]];shape=mxgraph.kubernetes.icon2;prIcon=svc" vertex="1" parent="1">
          <mxGeometry x="-811.2500000000001" y="884" width="50" height="48" as="geometry" />
        </mxCell>
        <mxCell id="j-9rDOzRSI_zfjBaEmqv-188" value="LB SVC&lt;div&gt;Hōko&#39;s Metadata DB&lt;/div&gt;" style="text;html=1;align=center;verticalAlign=middle;whiteSpace=wrap;rounded=0;" vertex="1" parent="1">
          <mxGeometry x="-852.5" y="944" width="132.5" height="30" as="geometry" />
        </mxCell>
        <mxCell id="j-9rDOzRSI_zfjBaEmqv-189" value="" style="aspect=fixed;sketch=0;html=1;dashed=0;whitespace=wrap;verticalLabelPosition=bottom;verticalAlign=top;fillColor=#2875E2;strokeColor=#ffffff;points=[[0.005,0.63,0],[0.1,0.2,0],[0.9,0.2,0],[0.5,0,0],[0.995,0.63,0],[0.72,0.99,0],[0.5,1,0],[0.28,0.99,0]];shape=mxgraph.kubernetes.icon2;prIcon=pod" vertex="1" parent="1">
          <mxGeometry x="-661.2500000000001" y="884" width="50" height="48" as="geometry" />
        </mxCell>
        <mxCell id="j-9rDOzRSI_zfjBaEmqv-190" value="Pod&amp;nbsp;&lt;div&gt;Hōko&#39;s Metadata DB&lt;/div&gt;" style="text;html=1;align=center;verticalAlign=middle;whiteSpace=wrap;rounded=0;" vertex="1" parent="1">
          <mxGeometry x="-702.5000000000001" y="944" width="132.5" height="30" as="geometry" />
        </mxCell>
        <mxCell id="j-9rDOzRSI_zfjBaEmqv-191" style="edgeStyle=orthogonalEdgeStyle;rounded=0;orthogonalLoop=1;jettySize=auto;html=1;entryX=0.005;entryY=0.63;entryDx=0;entryDy=0;entryPerimeter=0;" edge="1" parent="1" source="j-9rDOzRSI_zfjBaEmqv-5" target="j-9rDOzRSI_zfjBaEmqv-187">
          <mxGeometry relative="1" as="geometry" />
        </mxCell>
        <mxCell id="j-9rDOzRSI_zfjBaEmqv-192" value="gRPC" style="edgeLabel;html=1;align=center;verticalAlign=middle;resizable=0;points=[];" vertex="1" connectable="0" parent="j-9rDOzRSI_zfjBaEmqv-191">
          <mxGeometry x="-0.1393" y="-5" relative="1" as="geometry">
            <mxPoint as="offset" />
          </mxGeometry>
        </mxCell>
        <mxCell id="j-9rDOzRSI_zfjBaEmqv-193" value="" style="outlineConnect=0;dashed=0;verticalLabelPosition=bottom;verticalAlign=top;align=center;html=1;shape=mxgraph.aws3.postgre_sql_instance;fillColor=#2E73B8;gradientColor=none;" vertex="1" parent="1">
          <mxGeometry x="-490" y="876.5" width="60" height="63" as="geometry" />
        </mxCell>
        <mxCell id="j-9rDOzRSI_zfjBaEmqv-194" style="edgeStyle=orthogonalEdgeStyle;rounded=0;orthogonalLoop=1;jettySize=auto;html=1;entryX=0;entryY=0.5;entryDx=0;entryDy=0;entryPerimeter=0;" edge="1" parent="1" source="j-9rDOzRSI_zfjBaEmqv-189" target="j-9rDOzRSI_zfjBaEmqv-193">
          <mxGeometry relative="1" as="geometry" />
        </mxCell>
        <mxCell id="j-9rDOzRSI_zfjBaEmqv-195" value="" style="shape=image;verticalLabelPosition=bottom;labelBackgroundColor=default;verticalAlign=top;aspect=fixed;imageAspect=0;image=data:image/jpeg,/9j/4AAQSkZJRgABAQAAAQABAAD/2wCEAAMCAggICAgICAgICAgIBggICAgICAgHBwYICAgICAgICAgICAgICAgICAgICAoICAgICQkJCAgLDQoIDQgICQgBAwQEBgUGCAYGCAgICAgKCAoKCAgICAgICggKCAgICggICAgICAgICAgICAgICAgICAgICAgICAgICAgICAgICP/AABEIA4QDhAMBIgACEQEDEQH/xAAeAAEAAgIDAQEBAAAAAAAAAAAABwgDBgQFCQIBCv/EAFkQAAIBAwEDCAUGCAkLAgUFAQABAgMEEQUGEiEHCBMxQVFhcSJSgZGhFCMyYrHBCTNCU3KCkqIkQ2Nzk7KzwtEVNDVEVGR0g8Ph8KPSFyVFVeJ1lKTU8Rj/xAAcAQEAAQUBAQAAAAAAAAAAAAAABgIDBAUHAQj/xABOEQACAQIBBwgGCAMFBgUFAAAAAQIDEQQFEiExQVFxBiJhgZGhscETMlJy0fAUI0JikrLC4TOColNjc9LxNDVDo7PDFSQlg+IWRJOktP/aAAwDAQACEQMRAD8A9UwAAAAAAAAAAAAAAAAAAAAAAAAAAAAAAAAAAAAAAAAAAAAAAAAAAAAAAAAAAAAAAAAAAAAAAAAAAAAAAAAAAAAAAAAAAAAAAAAAAAAAAAAAAAAAAAAAAAAAAAAAAAAAAAAAAAAAAAAAAAAAAAAAAAAAAAAAAAAAAAAAAAAAAAAAAAAAAAAAAAAAAAAAAAAAAAAAAAAAAAAAAAAAAAAAAAAAAAAAAAAAAAAAAAAAAAAAAAAAAAAAAAAAAAAAAAAAAAAAAAAAAAAAAAAAAAAAAAAAAAAAAAAAAAAAAAAAAAAAAAAAAAAAAAAAAAAAAAAAAAAAAAAAAAAAAAAAAAAAAAAAAAAAAAAAAAAAAAAAAAAAAAAAAAAAAAAAAAAAAAAAAAAAAAAAAAAAAAAAAAAAAAAAAAAAAAAAAAAAAAAAAAAAAAAAAAAAAAAAAAAAAAAAAAAAAAAAAAAAAAAAAAAAAAAAAAAAAAAAAAAAAAAAAAAAAAAAAAAAAAAAAAAAAAAAAAAAAAAAAAAAAAAAAAAAAAAAAAAAAAAAAAAAAAAAAAAAAAAAAAAAAAAAAAAAAAAAAAAAAAAAAAAAAAAAAAAAAAAAAAAAAAAAAAAAAAAAAAAAAAAAAAAAAAAAAAAAAAAAAAAAAAAAAAAAAAAAAAAAAAAAAAAAAAAAAAAAAAAAAAAAAAAAAAAAAAAAAAAAAAAAAAAAAAAAAAAAAAAAAAAAAAAAAAAAAAAAAAAAAAAAAAAAAAAAAAAAAAAAAAAAAAAAAAAAAAAAAAAAAAAAAAAAAAAAAAAAAAAAAAAAAAAAAAAAAAAAAAAAAAAAAAAAAAAAAAAAAAAAAAAAAAAAAAAAAAAAAAAAAAAAAAAAAAAAAAAAAAAAAAAAAAAAAAAAAAAAAAAAAAAAAAAAAAAAAAAAAAAAAAAAAAAAAAAAAAAAAAAAAAAAAAAAAAAAAAAAAAAAAAAAAAAAAAAAAAAAAAAAAAAAAAAAAAAAAAAAAAAAAAAAAAAAAAAAAAAAAAAAAAAAAAAAAAAAAAAAAAAAAAAAAAAAAAAAAAAAAAAAAAAAAAAAAAAAAAAAAAAAAAAAAAAAAAAAAAAAAAAAAAAAAAAAAAAAAAAAAAAAAAAAAAAAAAAAAAAAAAAAAAAAAAAAAAAAAAAAAAAAAAAAAAAAAAAAAAAAAAAAAAAAAAAAAAAAAAAAAAAAAAAAAAAAAAAAAAAAAAAAAAAAAAAAAAAAAAAAAAAAAAAAAAAAAAAAAAAAAAAAAAAAAAcHUdbo0VmrVp013znGP2tGnany46fTyo1J1WuynTnj9qSjF+cWy/ToVKnqQlLgm126jAxGPw2G/jVqcOiU4p9Sbu+pG/ghTU+cb2UbX9arUx+7BPP7SNWveXbUJ9UqNP8Am6X31J1H/wCdhsoZJxEtaUfekvK5HK/K3J1PRGU6nuQdu2eYn1XLKHzUqJLLaSXa3hIqZf8AKDfVfp3VbyjN0/6m6dBc1HN5m3N9825v3yyzNhkSX2qiXCLfi4mjrcuKa/hYeUvfqKH5Y1PEt9dbWWsPp3FGPnVhn3ZydVX5U9Pj13VJ/otyf7qZVNRP0yY5Ep7ZyfBJfE1s+W+IfqUaa95yl4ZpZqvy3abH+Ok/0aNV59u5j3s4dXl8sF1dPLypYz+1KPxwVxBfWRqC2zfWvKJgy5ZY96o0FwhLzqPwLDVOcNZJcKV1LwUKWf3qyXxMX/8A0ZZ/mLz9i3//ALJX4Ff/AIRh90vxMsPlblF/bguFOPncsHS5xNk+ujdx4dbhRa8vRryfwwcinzgLF9cbhedOPH3VGV0AeSMPukv5iqPK/KC1um+NNeTRZaly56c+urUj1ddGr/di0seODsLflc06X+swX6SnD+tFFWQWnkWhslNdcX+kyYctMcvWhQf8s0/+o/Atza7dWU/o3VB/8yK+1o7e3vIT4wnGS+rJS+xspe0figs5wsrqfavJliWRI7KjXGKfmjPhy4qr18PCXu1HHxhMuuCn9jtbdUvxdzXj3LpZuK/VbcfgbFY8tGo0/wCOjU/nKcZZ9sd1+5oxJ5Fqr1ZRfG68n4m2o8tcLL+JSqw93NmvGL7izwIG0znFV1hVrelPvdKUqT/Zl0if7S+42zTecBZS/GRrUfOHSJf0e9L3RMCpk3EQ+w37tpdy09xvsPylydW1VlB7qicLcZSWb2SZJoOj0jbe0r/irilN+rvKM/bCWJL2o7tM18oSi7STT3NNPvJFSrU6qzqcozW+MlJdqbR+gAoLoAAAAAAAAAAAAAAAAAAAAAAAAAAAAAAAAAAAAAAAAAAAAAAAAAAAAAAAAAAAAAAAAAAAAAAAAAAAAAAAAAAAAAAAAAAAAAAAAAAAAAAAAAAAAAAAAAAAAAAAAAAABwNX12jbx361SFOPfOSWfBLrb8Fki7aPnC0o5ja0pVH2VKvzdPzUfpv9ZQ+8yqOFq1v4cW+nUu16DU43KuFwS+vqxi/Z1zfCMby67W6SX2zWde5SbK2bjUuIb666cH0lRecYZcf1sFddf5Rr25z0teSi/wCLp/NU0u7EcOS/TlJ+JrSRv6ORdtWfVD4teXWQHGcttmFo/wA9V/og+9z6iatb5xfWra34evWlj3U4J+91F5Gg63yqX9fKlcTpxf5NH5lftQxN+Tm14Gpg3dLA0KXqwV975z7726rEJxeXcdirqpWnmv7MOZG260LXXvXPurVcnmTcn3ybk/e8s+ADONE3fSAAengAAAAAAAAAAAAAAAAAAAAAAAAAAAO60fbW7t2uiua0UvyXNzp/0c96HujnxOlBRKEZK0kmtzSa7y7TqzpPOpylB74ycX2ppkr6NzhbiGFXo06y7XFujPz6pxfliOe9Eh6Hy12FbClUdCT7K63Ev103D2uSKyg1VXJWHqak4PfF+TuuxIlWE5VY/D6JTVWO6orv8Uc2V+LZdG3uYzSlCUZRaypRalFp9TTWU0zKU60baKvbvNCtUpP6svRfnF5i/bFkl7Oc4StDEbqkqqXXOliFR+cG1Tb8nBeRo6+R6sNNNqa3erLsejv6idYLljhato4iMqMt/rw7Us5dcLdJPQNc2Z5QbS7x0NVb/wCbn6FVfqvr847y8TYzRzhKDzZJp7mrMnFGvTrxU6U4zi9UotSXagACgvgAAAAAAAAAAAAAAAAAAAAAAAAAAAAAAAAAAAAAAAAAAAAAAAAAAAAAAAAAAAAAAAAAAAAAAAAAAAAAAAAAAAAAAAAAAAAAAAAAAAAAAAAAAAAHA1rXaNvB1K9SNOC7ZPGX3RXXKT7IxTbIW2y5fKk96nZx6OPV008OpL9GDW7BdzlvN90TNw+Dq4h8xaNsnoiuvbwV2aXKOWMLk+N60+dspx5031bF0yaj0kvbSbYW1pHer1Yw7o8ZVJ/owjmT88YXW2llkO7V8v8AWnmFpBUocV0k1v1X3OKzuQ9u+/0cEV3V3OpJzqTlOb65Tk5yfnKTbfvMJKsNkmlS0z58un1fw7eu/BHKcpcrMXibxo/UQ+671Hxnot/KovY2zkahqFSrN1Ks5VJvrlNuUvLL6kuxLCXcccA3aVlZEJlJybbbbelt6W3vb2sAA9KQAAAAAAAAAAAAAAAAAAAAAAAAAAAAAAAAAAAAAAAAAAAABj/zuN72W5Zby2xGUlcU1hblVtzS+rV+kn4zU14GiAs1aMKqzZxUl0+T1rqMzC4ythZ59CpKnLfF2v0NapLokmugtDsjytWl3iKn0VVr8VV9Fv8AQn9CfknveBupSk3rY7lgurTEZP5RRX8XUk96K7oVHvSiu6LUorsSI3icjfaoP+WXlL49p0nJvLLVDGxt/e013yhpfFw6oFnAavshyjWt6vmp7tTGXRniNVd+Fn0kvWg2vLKNoI1OnKm82aaa2M6XQxFOvBVKUozi9Uou6/Z709K2gAFsyAAAAAAAAAAAAAAAAAAAAAAAAAAAAAAAAAAAAAAAAAAAAAAAAAAAAAAAAAAAAAAAAAAAAAAAAAAAAAAAAAAAAAAAAAAAAAAAAAAdbr+0VG1purXmoQXtlJ+rGK4yk+5IqjFyaSTbepLWUTqRpxc5tRjFXcm0klvbehI7IjDbvluo2+9Stkq9bGHPOaFJ+LTzOS7o8O+S6iOOUDlerXm9TpZo274bq4VKq/lJJ/RfqR4d7l2R+iU4PJGqdf8AAv1PyXbsOV5Y5XN3pYHQtTrNaf8A24vV70tO6K0M7HXdoa9zPpK9SVSXHGeCgn2RisRivBJe064Ak0YqKskklsWhHMZzlUk5zblJ6XKTbbe9t6WwACooAAAAAAAAAAAAAAAAAAAAAAAAAAAAAAAAAAAAAAAAAAAAAAAAAAAAAAAAAPujWcWpRbjKLzGSbUotdTTXFPyJZ2G5d508U73eqw6lWil0sV2b8VhTS9aK38dk3luIwYtfDU68c2or7ntXB/K3o2eByliMDPPoTcd8dcJdEo6nx1rY0XM07U6daCqUpxqQl1Si8p/9/DrRyiouye2dxZT36EsJvM6csulV7PSimuOOqSakuHHsLFbCcplC+jiL6Ouopzoy6/FwlwU4+XFcMpZWYbjMmzw/OXOhv2r3l56uGo7LkblJQyhanO1Kt7DfNl7j278185bM5Js3AAGoJgAAAAAAAAAAAAAAAAAAAAAAAAAAAAAAAAAAAAAAAAAAAAAAAAAAAAAAAAAAAAAAAAAAAAAAAAAAAAAAAAAAAAAAAAAAACPOU/lUjZxdKjidzJeDjQTX0p977o9vbw671GjOtJQgrt/N3uRhYzGUsHSlWrSzYx7W9kYra3sXkdpt9yk0bGGHipXccwoqSUnngpTfHch1+k028NJNplb9p9qq95UdWvNyfHdiuEKS9WEepeL632tnX3t7OpOVSpKU5yeZSk8yk/F/+JGAnWDwEMMr+tPbLyW5d727jheWcvV8pStphRT5tNP+qb+1L+mOxXu2ABsyMAAAAAAAAAAAAAAAAAAAAAAAAAAAAAAAAAAAAAAAAAAAAAAAAAAAAAAAAAAAAAAAAAAAyW9xKElOEnGUWnGUW4yi11NNcUzGDw9Ts7onjk25a41N2heOMKnVCu2owqvqSn1KE33/AEZP1XhOXilLRKvJhyxSobtvdylOi2lCq+MrddSUu2VPxeZRz2xSUYvj8l66lBcYecf8vZuOo5B5VPm4fGy3KNZ9yq+Gf+PbIsCD4pVVJKUWnGSTTTypJrKaa601xyfZFTqydwAAAAAAAAAAAAAAAAAAAAAAAAAAAAAAAAAAAAAAAAAAAAAAAAAAAAAAAAAAAAAAAAAAAAAAAAAAAAAAAAAAAAAaFylcocbaEqcH85jEmnxp56kvrv8AdXHuL1KlKrJQirtmHi8XTwtKVWq7Rj2t7l0/6vQcXlQ5UY2sXSotSrNNN9lJ/fJdvq+fVXW5uJTk5SblKTy2+LbPu/vpVJucnlt+ePD/AM6+s45PsHhI4aFl6z1vf+xwLLGV6uUa2dLRCPqQ2Jb+mT2vq1AAGeaAAAAAAAAAAAAAAAAAAAAAAAAAAAAAAAAAAAAAAAAAAAAAAAAAAAAAAAAAAAAAAAAAAAAAAAAAAAAkXku5VZWbVGs3K2lLxcrdt8ZR74ccyjhvtj2qVjLa5jOMZwkpRkk4yTypJ9TTKXEjclPKg7OSo1m3bTfB5b+TSb+klx9B/lRXU/SXanHco5O9JerSXO2xX2ulfe8eOvonJzlG8O44XFS+qeiE39j7rf8AZ7n9j3fVsgD4pVVJKUWnFpNNPKknxTTXBprtR9kOOyAAAAAAAAAAAAAAAAAAAAAAAAAAAAAAAAAAAAAAAAAAAAAAAAAAAAAAAAAAAAAAAAAAAAAAAAAAAAAAAA6naXaCNtSc5cZdUI+vLsXkutvsXsKoxcmktLZbqVI04uc3aMVdvoOr252xVtDdi10sk2urFOPbOWfgn1vyKz6/rTrTby3HLxnrk+2T8X9ntO5242klVnJOWZSeaj9nCK8EscO5Jd5qROsn4NUIXfrPb87N3btOFcocsSxtVwi2qcdS+PTv6dGwAA25EAAAAAAAAAAAAAAZLe3lNqMIylJ9UYpyk/Yss8PUruyMYNw0rkk1Cthqg6cX+VWlGmv2cup7oM2yw5vlR46W5jHwpwcse2Tjn3GDUx1Cn61SPBc78tzeYfIWPxGmFCpbfNejXU55t1wuRGCdbfkDtV9KtcS8E6UIv2dHJ/vHOhyMWC64VJedaov6riYcsr4das58I/Fo3UOR+UJa/RQ96p/kjMr4CwMuR/T/AM1P+mrf+84tfkdsn1Rqx8qsnj9vePFlig9k/wAK/wAxcfIzHr7VB8Jz86SXeQQCYrnkRofkVq0f0ujnj3Qh9p0N/wAjFZfi6tOfhJOHxW8vgZEMpYeX27cU132sa6ryXylTV/Q5y+5OEn2Z2d3Edg7zUdiLulnfoTwvyoYqL9xya9qTOka7O1da7V5mwhUjNXjJSXQ0/AjtbD1aDzasJ03unGUX2SSPwAFwxwAAAAAAAAAAAAAAAAAAAAAAAAAAAAAAAAAAAAAAAAAAAAAAACWeRvlO6GUbS4k3SnLFGbaxQk/yJN/xcn1de7J46n6M+lKWif8AkW5SOmirSvL52nH5qT661OK6m31zgl1vjKPHi1IiuVcBrr017yX5l+rt3nVOSuXb2wOIl0Upt/8ALb/J+D2USuACLHVAAAAAAAAAAAAAAAAAAAAAAAAAAAAAAAAAAAAAAAAAAAAAAAAAAAAAAAAAAAAAAAAAAAAAAAAAAADFc3MYRlOTUYxTbb6kkQJyhbZupKVR9SzCjB9i72u9/Sl7F2I3TlN2ny/k0H6McOq+99ah+rwk/HHcyBtd1LpJvH0Y5UfLtft+zBJ8l4T/AIklr8P38DmHKjK9k6FN6E7Ppnt6ofm4JnAnNttvi28t958gErOTAAHoAAAAAAABztF0OrcVFSowdSb44X5K9aT6oxWet4RS2oq7dktr1FcISnJRinKTdkkrtvcktLZwTv8AZjYW6vHijSk49tWWYUl+u1iT+rDefgskw7FchFGlu1LtqvU6+jTfQQ8H1Oo19ZKP1e0lOlSUUlFJJLCSWEl3JLgiO4nLEY3jRWc/afq9S1vu6zo2TOR1SpapjJejjr9HGzm196Xqw4LOfusijZnm+0YYldVHWl6kM06S8G878/PMV9UkjStn6FvHdoUadJdu5CMcvvbSzJ+LbZ2R8yI1WxVWt68m+jUuxaDpWDyXhcGrUKUYv2rXn1zleXfYwzMEjPMwSMY2phkYZmaRhmVAwyMEzPIwTCBhkYJmeRgmVAwTOm1fZyhW/GUoSeMKWEpryksSXvwdzMwTK4ycXeLae9OzLdSlCrFwqRjOL1xklJdjuiM9a5J+t0Kn6lT7pr+9F+ZoepaTVoy3asJQfiuEv0ZdT9jZYKRw76zhUi4zipRfWpLKN3h8q1IaKnPXZLt29faQfKPI/C17ywzdCe7TKm37rd4/yuy9llfgb9tFya4zK3fDrdOT4/qSfX5S9/folWk4txkmpJ4afBp+KJNQxNOurwfFbVxXyjlGUMl4nATzK8LX1TWmEvdl5O0ltSPgAGUaoAAAAAAAAAAAAAAAAAAAAAAAAAAAAAAAAAAAAAAAAAAGazu5U5xqQk4zhJSjJcHGSeU//Oswg8avoPU2ndaGtq13LW8ne20b63VThGrH0a0E/ozXavqzXpLzx2M2kqbsBtlKxuI1Vl02tytBfl02+tLq3ov0o+1ZSky1trdRnGM4NSjKKlGS6pJrKa80QLKOD+j1Ob6ktK6N8erZ0dZ3vk7lj/xDD2m/rqdlP7y2T/ms721ST1JoygA1RLAAAAAAAAAAAAAAAAAAAAAAAAAAAAAAAAAAAAAAAAAAAAAAAAAAAAAAAAAAAAAAAAAAAAAAdLtbtArai58N9+jTXfJrr8orLfu7UdyQvt3tF09aWH81TzGHc8fSn7X8EjNwlH0s9OpaX8OvwuabKuN+i0G0+fLRHo3y/lXfY0XarVHGLWczqN5fbjPpPzb4e1mmHM1W/wCkm5dnVHwiur/H2nDOgUoZkbbdp8+4uv6ao3sWhcN/XrAALxhAAAAAAAAkvkt5JpXTjXuE42yfoxaalc47nwxTz1y/Kw0vWWPXrwowc5uyXa3uW9/L0GfgsDWxtVUaMc6T7EtspPZFbexJtpPqOT/kwrX0t7jSt0/SqtcZd8aaf0pfWxux7c9RYzZrZehaU1SoQUY9r651H605dcn8F2JdR2NraxpxjCEYwhCKjGMUoxhFcEopYSSXUkZSDYzHTxL06IbIrxe99y2HdMj5CoZNhdLPqtc6o1p6VD2Y97+03osABrSSg+ZH0fMgDDMwSM8zBI9BhkYZmaRhmVAwyMEzPIwTCBhkYJmeRgmVAwTMEzPMwTPSpGGRhkZpGGRUemCZ0W0WzNO4XpLdmvozX0l4Pvj4P2YO9mYZFyFSVOSlFtNbUY1fD08RTdKrFThLXFrR+zWxrSnpTIV1nQ6lCW7NfoyX0Zrwf2p8V8Trya9T06FWDhNJxfvT7Gn2Nd5E+0Whyt57suMJN9HPslj8l9iml+T2rLWUniX4LHqvzZ6J9z4dO9dnRxTL3JueAbrUbzoPrlDolvjul1Ss7OXWAA3BCAAAAAAAAAAAAAAAAAAAAAAAAAAAAAAAAAAAAAAAAAAATdyCbb5TsqkuKzO3b7Y9c6a/R4ziuvDl2RWIROTpuozo1IVab3Z05qUX3Nfc+p96bMPF4dYim4PXrT3S2PyfRc2+ScoywGJhXjqWicfag/WXHbH7yTLmg6jZTaKF3b0q8OCqQTlHOejn1Tg33xllZ7evtO3OdSi4txehp2a6UfRtKpGrCNSDvGSTTW1NXT60AAUlwAAAAAAAAAAAAAAAAAAAAAAAAAAAAAAAAAAAAAAAAAAAAAAAAAAAAAAAAAAAAAAAAAA1nb/XuhoNJ4nVzCPelj0pexPGextEA7UX+5T3V1z4eUV1/cvab1t1rfT3EsP0KeacPHD9J+2WePakiJNevd+rJ9kfRj5LrftefgTHJuHzYq+v1n5Lq+Jx3lLlH0k5Zr0LmR4fal1u+ndmnXAAkRzkAAAAAAAGzcn2xM764VNZVOGJVp+pDPUvrzw1Hu4v8kt1KkacXOTslpbMjD0J4ipGlSWdObskt/klrb1JJt6Ed9yTcmXyyfTVl/BYNrGWncTT+gsfkLjvtNPPor8pxshTppJJJJJYSSwkl1JLsRh0+whShGnTiowhFRjFcEkv/PazkHP8Zi5Ymec9EV6sdy+L2s+gcjZIp5NoqEbOpKznO2mUty2qMdOauL1tgAGAb8AAAHzI+j5kAYZmCRnmYJHoMMjDMzSMMyoGGRgmZ5GCYQMMjBM6bb7by00y0rXt9WjQtqEHKc5Jyb7oU4RTnUqTfowpU4ynOTSSbZQTlU/CWX9SrKGjWttb28ZYVe+pzubquu+NGFalSoLPFKbryaxlU2mjJpUZVPVWje9XzwKlFs9DZmCZ5br8IJtPnPyizfg7Gnu/CSf7xvWwn4S3UYSUdTsLS5p541bHpbOtCPf0Varc0qsnx6qlvFdzMh4OotOh9F/jZFeYz0IkYZEXckfOf0bW30dndKNyk3KzuIu3ukljLhGeI14JySc6EqkU2k3FvBKMzFcXF2aafSUmCZhkZpmGRSeGGR1mtaTTr05Uqkd6Elx4tOL7JRksOMovipJ5TOzkYJlabTutDR5KKknGSTTTTT0pp7GtzIM1ShO0r/J67ypZdCv1Rrx4ejLqUasc4ksYfWutGYk3bDZWneUJUanbxhNfSpTWd2cfLOGu1NrtIS0rUqlKrK0uvRrQe7GXZUWMrj25XGL4ZXDrTJjgMZ6aObL1139Px6eJxDlHkD6FP01BfVSu7ey9bXDaujgzYAAbcgoAAAAAAAAAAAAAAAAAAAAAAAAAAAAAAAAAAAAAAAAABLHIFtb0daVpOXoVvSpJ9UasU3JL+ch2dWYLqy8z8Uvs7uVOcKkHidOcZxfdKDUov3ot3svr8bq3pV4dVSGWvVkvRnHzjNOPsIdljD5s1VWqWh+8vivBs7FyOyj6WjLCTfOpc6N3pdNvSv5JPqUorUjtQAR06MAAAAAAAAAAAAAAAAAAAAAAAAAAAAAAAAAAAAAAAAAAAAAAAAAAAAAAAAAAAAAAADpNstY6C3nNfSa3IfpS4Z/VWZew7si7lV1beqworqpx3pfpS6l7I/1vAysLT9JUS2a3wXx1Gqynifo+HnJes+bH3nov1K76iOdYvNynKXbjC83wXu6zQDY9sLvjCHct5+b4L4Z95rhP8PG0b7zgGUaufVzdkdHXrfkuoAAyjVgAAAAAGW2tpTlGEE5TnJRjFdcpN4SXtLV8n2xsbK2jSWHUliVaaX06jXHx3Y/RjnsXiyLeQLY5TqSvJrMaUnCjntqOPpzx27sZbqfVly7Y8J4IflfFZ0vQx1R0y6Zburx4HYOSGSlTpPG1Fz6l1Tvshtlxm/6UrPnMAAjh0gAAAAAAHzI+j5kAYZmCRnmYJHoMMjDMzSMMyoGGRx6ksdfBY4t8EvFvuORIgPns8qFTStnr2rQlu3Nz0dlbyTSlTlczUKtWOc+lRt+lqR4Nb8YJrDZXCLlJRW1pAoJzzOcTPXdTnRoyktN0+tVoWsFOW5d1Iy3Kt7OHCLc5QcaDak40PSUo9PUgq/nzCCSSXBJYS7kj6JPCKglFakZSVgACs9PqlVcWpRlKMovMZwk4Tg+yUZRalGS7HFpouPzbuflWoSp2Ouzda3bcaepyl89bcFuq8WPnqXBp3KaqQzDfjUXSVo02BbnTjNWkviuHzbeeNXPb23u4VIRnTlGcJxU4Tg1KFSMlmMoyWVKLTymm00fkjzl5nPOplpdWnpl/UnLTa9SFO2m8NaVVlJpZf0vktWUoqSzJUGlJKMJVXH0Zb/8AOxmirUnTdnq2Pf8AvvLLVjFIwTM8jBMtHhgmRnyzbEdPS+U0l8/Qjl7v0qlJPLjlcW4Zc49v0kuskyZhqIvUqrpSU47O9busxcVh4YmlKlPVJdj2NdKekr/sjtH00d2T+cgln669ZePf4+ZsBpnKHs/Kwvd+lwp1G6tLuSz85T8VFvH6Mo+ZtOl6lGrTjUj1SXV2xa60/Jk7o1VUipLar/PDUz54ypgJYStKLVrNp7k+joa0x6DlAAyDSgAAAAAAAAAAAAAAAAAAAAAAAAAAAAAAAAAAAAAAAmrm9bT/AI2zk+x1qXllRqRXtcZY7cyfYyFTuNkNoXa3NGvxxCa30ut03wmvH0W2l3pGFjKHpqMobbXXvLSu3V1m6yPjvoWMpVr2inafuS0S7Fzl0pFvgfMJppNcU1lNdTT7T6Ocn0cAAAAAAAAAAAAAAAAAAAAAAAAAAAAAAAAAAAAAAAAAAAAAAAAAAAAAAAAAAAAAAAfNSokm3wSTbfclxZAOq6g6tSdR/lzcvJdi9iwiXdv9S6K1n3zxTj5y6/3VJ+wgzVbncpzl3RwvN8F8Wb7JtPQ5bW0l88WuwgXKTEpONO+iCc5eXYk+00rVbrfqTl2OTS8lwXwWTiAE0SsrHFpScm5PW22AAelIAAAM1nZyqTjTgt6c5qEF3yk8JeCz1vqS4mEkzkF2d6W7lWkvQt6eV/Oz9GOPKO+33Pd7zHxFZUacqj+yu/Yut2Nhk/CPGYmnh19uSTa2R1yfVFN9RO+zehRtqFKhD6NOCjn1n1yk/GUm37TswDm0pOTbelvS30n0rThGnFQirRikklqSSsl1IAApKwAAAAAAfMj6PmQBhmYJGeZgkegwyMMzNIwzKgYZHnh+FL2ybuNI06LWIUK+oVY/lKU5fJbaXX1OMbxPK4tLHUz0PkeUn4R66c9qJJ9VLRLClHwXSXlbh3LeryfnkzsEr1L7k35eZXDWVjABvzIAAAAAAPySyegvMQ5wTvLf/I13UcruzoSqWs55crmyhKMXGU8YlUtXUhT9J786ThL5xwqyXn2d5sPtvcabd299av5+2qqpGLbjGslwnRm0n6FWDlTk92W7vbyWYxLNWmqkXHs4/Os8auezUjBM4Gyu1FG9tbe8t5b1G5oQrU3wfozipJPHas4fimc+ZH9RYMEzDMzTMMz0Gj8rGzPym0nhZqUU61PHW91enFfpQzw7Wl4EI7D610dTo2/QqdXhP8l+3qfs7uNnqiKt7d6F8mu61JLEVPfp9noTSlHH6OXHzi+4kOS62unu0rzXh2s5/wAqMCpqNW2iXMlxWmL46GupIkwHWbN6r01KM/yl6M/0l1+9YftOzJMji84uEnF607AAHpQAAAAAAAAAAAAAAAAAAAAAAAAAAAAAAAAAAAAAAAWi5INoflFjSbeZ0s0J+dNLd99Nwl7TdCCObvre7Vr27fCpBVYr60PRl7XGUfd4E7nPMfR9FXnFam7rg9Pc7rqPofk/i/pWAozbvKKzJcYc3T0tJS6wADXkhAAAAAAAAAAAAAAAAAAAAAAAAAAAAAAAAAAAAAAAAAAAAAAAAAAAAAAAAAAAAI25Wr/jSpdydR+30Y/3iH9r7jEIx9aWfZH/ALtG/be3u/d1e6LUF4bqWf3t5+0jDa6vmoo+rBe9tt/DBM8n082MF0X7dPmcX5Q4nPnWlvlmLgub3qLfWdGACQHPwAAAAAAWU5DNF6KwhNrEq85VX+jncp+xwipLwkVuo0XJqK65SUV5yeF8WXI0mwVKlTppYVOlCCXduxS+4jmWqtqcYe079S/drsOjcisLn4irXf8Aw4KK96b18VGLXCRywAQ87EAAAAAAAAAD5kfR8yAMMzBIzzMEj0GGRhmZpGGZUDDI8nfwikMbU1/raXYS9m7Vhw8MwftyesUjzS/CgbGunq+n6gk9y70r5JJ/kxqWVxVqrPapVKd5w71RfVh5z8E7VOKfx8EVw1lNQAb4yAAAAAAAAAC/X4O3lDlWsbvTak96VncdNbp9cLa5WXDL61G4jWku5VVHgoxRbWZ5dczXbGVntFYpP5u8VayrZbxu1aUqlKSXVvK5pUFl9UZT7z1FmaXFQzal96v5eVyzLWYJmGZmmYZmIUmCZDXL7pH+b3CXW5UZPv4OcPgp/EmWZpnKrpnS2NddsEqq84PLx5xyvJmZhJ5lWL6bdT0GqypR9NhasdqjnLjHnd9rdZC+wGpbtV031VFw/Sis/GOfciQiGrO5cJxmuuMlL3MmKjVUoqS6pRUl5NZRN4PYcAylTzZqa+0u9ftbsPsAF01AAAAAAAAAAAAAAAAAAAAAAAAAAAAAAAAAAAAAAABsfJ1q3QX1tUzhdMoS/RqJ03n9vPml3FsylSk1xTw1xT7mup+xlw9mtU6e3oVl/G0Kc8dzlBNr2N4IplunphU6HF9WleLOsciMTza+HexxqLrWbLszYdp2QAIudQAAAAAAAAAAAAAAAAAAAAAAAAAAAAAAAAAAAAAAAAAAAAAAAAAAAAAAAAAB81J4Tfcm/cfR1W1VzuW1eXb0M0vByW6vi0VRWc0t7SLdWeZCU39lN9iuQfeXG/OU/WnKXvbZHetVt6rN/Wa93D7jfXLHHu4+4jaU8vPe8+86BhY6+hJfPYfP2VZtqKettt/PWfgANiRwAAAAAA2Dk/0/pb60h/vMJvxVJ9K15NQa9pbYrPyH229qNN+pSqz/AHVH+8WYIZlqV60Y7o97b+COzciqSjhKlTbOo11RhG3e5doABHzoQAAAAAAAAAPmR9HzIAwzMEjPMwSPQYZGGZmkYZlQMMiBueVyHz13RatG3jF3trUjd2e8s79SnlVaKeVuyr0JVKUZdk5RbTWUTzIwTK4ScZKS1o9TseCFSm4uUZRlGUJyhOEk4zpzg3GcJxeHGcJJxlGSTjJNNJo/D1S5znMks9cdS8tJRstVceNX0vkt9KKe6rqnFS3ZPO67mlDpUsbyrKEYHnDyr8jWpaHVVHU7Z0N+W7SrxfSWl1LGcUK6SjJ4Un0c1Tq4jJ7iSySKlXjU1aHuevq3/OoyFJM0sAGQVAAAAAAHP2f1/wCSXFvdZa+TXNG4bWc7tGpGpJcMvjGLTwnwfaeztKtvRjJdUoqSx1Yazw954o1IZTXemveevnInrjudF0i4l9Kvoun1Zcc4nO0pSms4WWpNp8FxRrsZHRF8V89jLczbpmGZmmYZmrLZgmcHUrRVITpvqnTlD9qLX3nOmYWVJ2PGk1Z6mVAh1cevHuJR2Mu9+3h3wzD9l8Phgj/aC33LivHsjcVUvJVJY+BtPJxccKsO6UZL2pp/1UT2m72e8+f8pUrU2tsH55vmbkADJIqAAAAAAAAAAAAAAAAAAAAAAAAAAAAAAAAAAAAAAACzXInqPSafSXbTlOn5JSbXwa9hWUnPm46hmndUvUq06i/5kZR/6Xx8TSZXhnYdv2XF/p8ya8kK/o8oKH9pCcetL0n6GTGACDncwAAAAAAAAAAAAAAAAAAAAAAAAAAAAAAAAAAAAAAAAAAAAAAAAAAAAAAAAAavykV920n9aUI/vJ/cbQaPysVsUKcfWrfBRl9+DJwyvVhxXdpNblKebhar+61283zIi1SpinUf1JfZgj43naKeKM/HC97SNGJ9hlzW+k4FlR/WRW6Pi38AADMNMAAAAAASXyAQ/h0n3W0/60CxZXTkAl/DpeNtP+tAsWQfK/8AtH8sfM7lyQ/3ev8AEn5AAGkJsAAAAAAAAAD5kfR8yAMMzBIzzMEj0GGRhmZpGGZUDDIwTM8jBMIGGR1usaTSr050a9OFalOOJ06kY1Kc13SjJNP3cDspHUbQ7QW9rSnXuq9G2oU4uVStcVYUKNOK63OpUlGEUu9tFa6AUo5xf4Pag6da90BSpVow33pkpR+TVlHLkrSckpUKso/RpVKjoNxjFdApSmqCTg02mmmm001hxaeGmnxTT4NPqZ6Jcvf4Q2zoU52+hr5bczi4/LWpQsrTK+nDKU7qpxTioblNcW6mYqEvO+tWcpSlJuUpScpSfXKUm5Sk/FttvxZv8N6TN+s6r6+vyvp6rGRG9tJ8AAyysAAAHq/zX552c0PPZo1pH2RpKK9ySPKA9ZObPQ3dnNCXfoVhP+ktqdTPt3s47M4MHGeouPkyiWokSZhmZpmGZqC0YJmCRnmYJHqBV/bqGL25X+8S+PH7zmcntXFaS9ak/g0zibdzze3L/wB4l8ML7j72Fl/CI+MJ/YTmh6sOEfBHDspq/p+NTuk2SUADOIKAAAAAAAAAAAAAAAAAAAAAAAAAAAAAAAAAAAAAAACVubvd4uq8PXtk/NwmvukyKTf+Q653dQpr16NWPwUv7pgY6Odh6i+632afI32Qqno8oYeX94l+K8P1FlwAc7PooAAAAAAAAAAAAAAAAAAAAAAAAAAAAAAAAAAAAAAAAAAAAAAAAAAAAAAAAAEd8r1ThbrvdV+7o1/eJEIz5XZenQX1Kj97h/gZ2CX10ev8rNHlp2wdTpzPzxIo2rl8z5zivtf3GmG3bYP5uP8AOr+rI1EneH9TrZwfKL+u4JAAGUasAAAAAA3/AJDbnd1CC9ejVj5vCl/dLLlS+TrUOiv7Sf8AvMIPyq/NcfBb+fYW0IZlqNq0Zb4rtTf7HZ+RdXOwdSG2FV9koxt3qXYAAR86CAAAAAAAAAD5kfR8yAMMzBIzzMEj0GGRhmZpGGZUDDI41xVUU5SajGKbbbSUUuLbb4JJcW2cmRQn8JTy9Tpxp7PW03H5RbwudSlFyTdvKclQtcrHCtKlKpWjlp0lCEoyjXZeo03Ukort3Lf87T1K5y+cB+EapUJVbTQqcbmrHehLUKyzZwmm4t21JNSud1rO/Po6LzFxdZZToxt7ym6jqtRVdSva97OMt6PTOKp05cVmnQpxp0KbSk45p0ovdeDWgSGnRhT9Vad+3t8loMhJIAAvFQAAAAABiuptRk0m2otpLi5PHBLxb4I9mtitFVtZWdsuq3sbagsdWKNGFNY8PRPJjkf2b+Watptqv47UrdNd8YTVWafg4U5J+GT2Bku7qNZjJequL8F8S3MwTMMzNMwzNaWzBMwszTOFfXShCc31QhKb/VTf3FSPG7K7Ks7R3G/cXEuyVzVa8t+WPhg5uxK/hEP0ZfYdDGT7evt8X2mx7BU83Ge6nL7kTuCtZbrHCcXPOp1JPapPtJIABlkLAAAAAAAAAAAAAAAAAAAAAAAAAAAAAAAAAAAAAAABtnJRW3dRtH31ZR896lUj9rRqZsHJ/UxfWb/3ukvfJJ/BmPiFelNb4y/KzPwEs3FUJbqtJ9k4stsADmh9MgAAAAAAAAAAAAAAAAAAAAAAAAAAAAAAAAAAAAAAAAAAAAAAAAAAAAAAAAAjDlbl85R/mpfGS/wJPIy5XI/OUH305r3OP+Jn4H+MuvwZocuf7HPjD86Ii2xfoQ/nP7rNTNs2xXoQ/nP7rNTJ3h/UXWcHyh/GfBeAABkmtAAAAAAMlvcOEozXXCcZLzi1JfFFydOvVUpwqLip04zWOrEkn95TIszyJa10thTi3mVCUqL/AEYvNP3U3GP6rI3lqlenCp7Lt1NfFd50fkViczEVaD/4kFJcYO1uLU2+ETfQARA7CAAAAAAAAAD5kfR8yAMMzBIzzMEj0GGRhmZpGGZUDC0eJXOG26epa5qt223Geo1qVLjvJULaTtqTg/UqRpdKl2dIz2q1i+6KlVqrrp0alReO5By+48BtFb6GlltvoaeW+Lk91Zbb623xybbAR9eW7NXbd+SLtPac0AG3LwAAAAAAAPxsAszzA9gPlOsyvZRzT021nOLa4fKbmMrem0+r0aMrjK605QfDHH0XmQDzH+S+WnaJGrVTVxqVZ3s0+unScI07amspNYowVWUXnFStUWWt0n6ZosRPOqPctHz13LMnpMEzDMzTMMzHKTBM0/lR1PorGu+2cVTj51Go8PJZfkmbhMh7l91f0aFBPrnKtJeScIZ/al/4jLwkM+rFdN+pafI1eU63ocLVltzWlxlzV2Xv1EOm28nNHNSpL1aaX7T/APxZqRIHJ5a4pTn69THsiv8AFsmsdZxTHSzaMumy7/hc2oAGQRMAAAAAAAAAAAAAAAAAAAAAAAAAAAAAAAAAAAAAAAHb7HSxeWeP9vtV769NP3p4OoO72Ho717Zr/faD4fVqxl93HwLVX1JcH4GThk3Wppa3OH5kW7ABzE+nwAAAAAAAAAAAAAAAAAAAAAAAAAAAAAAAAAAAAAAAAAAAAAAAAAAAAAAAAARzyvU/83f86vf0bX2MkY0blZo5o0pd1bHscZfekZmDdq0evwaNPliOdg6q6IvsnF+RCO18fmo+FVf1ZGoG67UQzRfhKL+OPvNKJ7h/U62cDykrVuMV5ryAAMo1YAAAAAAJS5ANoujuZ28n6FenmP8AO0+Kx+lByz+jEi05Om6jOjUhVpvE6c1OL8YvOH4PqfemzGxNH01KVPetHHWn22Nlk3GPB4mlXV+ZJNpbYvRJdcW0XNBwNC1iFxRp1oP0akFJduM9afjF5T8Uc85s002noa0dZ9JwnGcVKLupJNNammrprigADwrAAAAAAB8yPo+ZAGGZgkZ5mCR6DDIwzM0jDMqB021NNu2uUllu1rpLvbpySXvPA7RH8zR/maf9RH9Avb7TwY2l2XdjdXVi018ivLi0W9nMo21adGMuPWpxgpp9sZJ9puMnvRNe7+ou03rOuABtS8AAAAAACSubtyPPXNVoWcoydtFfKL2S4JWtOUVKm5YwnXlKNFLKk4ynKPGDaji3t5TlCEIuc6lSFOnCKzOpUqSUIQiu2U5tRiu1tI9T+aryBrQtOUayg9QusVb2pFfReZOlbRk/ScLeEt3PBSqOrNRhv7qxq9X0cel6vj1eNiluxMSppJJJJJYSSwopLCSXYkuCRimZ5GCZoiyYJmGZmmYZnoMEyr/KJrvyi8rVE8xUujp/oU1u8P0pb0v1ideVDaX5LaVJJ4qVE6VLjhqU08yXjCOZeaRWZI3+TKXrVHwXi/LvINyjxV8zDrZz5d6ivF9jBLWz1l0dCnF9e4m/0pek/c3j2EbbP2HS1qcOzezL9GPF+/GPNolokcFtOVZTqerDrfgvMAAvGiAAAAAAAAAAAAAAAAAAAAAAAAAAAAAAAAAAAAAAABtXJbQ3tRtF/LOX7FOc/wC6aqb7yIW29qNN+pSqz/d3f7xi4qWbRqP7kvBm0yVDPxuHjvq0uxTi33FmQAc2PpQAAAAAAAAAAAAAAAAAAAAAAAAAAAAAAAAAAAAAAAAAAAAAAAAAAAAAAAAAGqcplHNrJ+rUg/jj7zazpNtaO9aV13UnL9nEvuL9B2qQf3l4mFjo5+Hqx3wn+VkAa9DNGp+jn3PJoZIl9DMJrvhL7GR2if4Z6Guk+fsqLnxe9eD/AHAAM00oAAAAAAAABM3IBtgoudlN/SbqUM9+M1ILzS6RL9Nk4FMbC+nSnCpTe7OnNSi+6SeV/wB12otfsPtZC9t4Vo4Umt2rBfxdRJb0fLPGL7YtMh2V8LmT9NFaJa+iX7+N952PkhlVVqP0Oo+fS0wvtp7uMG7e6421M78AEdOigAAAAAA+ZH0fMgDDMwSM8zBI9BhkYZmaRhmVAwyPJX8IBsA7HaSvUUHGlqVtSvqcvyJ1Fm3uIR+tTlShOSXUq1OT4zPWqRXXnucgk9c0hu2hv6hYT+U2kcqLrrquLZNuKzWpZ6NSkodNCk3hLKzMLUUKmnU9D+PaVwdmeSQP2cWm0004ycZRaalGUW1KMk+KlFppp8U00+o/CQmQAAAD5lNLizttl9lLq+rxtbK3q3VzNNxo0UnNpYTk3JxhCCbSdSpKEE2syWUehfNk5ktHSpU9Q1NwudRis0qUcTtNOk1xlDKzWuFlx6Z4jFfQit6UpWataNNadexbX+3SUt2Og5mHNPdmoaxqdLF3KClY2085sITj+OqwaW7dTTwoyTdGHD0ZTmlbyRmmYZGhqVHUd3/otxZbuYZGCZnkYJlIMEzDMzTI75YNuPktDoqbxXrrEe+nT6pz88ZjH6zzx3Wi7SpupJQjrfzfqMbEV4YenKrPVFX4vYl0t6ERVyt7W/Krpxg80rfepw7pSyukmvBuKin2qKfaaQDPYWUqk4wj1yePLvfklxJrTpqnFQjqXz3nHsTiJVqk603pk23uS3cEtC6Eblye6ZiMqrX0nuR8l9J+18PYzcTFZ2qhGMI9UYpL2dvm+symalZEGr1fSzct+rhsAAKjHAAAAAAAAAAAAAAAAAAAAAAAAAAAAAAAAAAAAAAABKXN6tc3dWXqWz/enFfcRaTTzb7TjeVOzFCC810spfbA1mUpZuGqcEu2SRJeTcM/KWHW6Un+GnOXikTaADn59BgAAAAAAAAAAAAAAAAAAAAAAAAAAAAAAAAAAAAAAAAAAAAAAAAAAAAAAAAA4uqW2/SqQ9elOP7UWvvOUfjR6nZ3KZRUk09TTRXVIjacMNrubXu4Ep6rQ3KtSPq1Zr3SZG2r08Vai+u37+P3nQcJK9+lJ/PafPmVoWUb/Zcl89hwwAbEjgAAAAAAAAANv5NNu5WNfeeXRqOMa0e5Z4VEvWhlvxWV2rGoAtVKcakXCSunr+fAycNiamGqxrUnmzg7p+T3prQ1tTaLo2t1GcYzhJShKKlGUXlSTWU0+1NGUr1yQcqHyZq2uJfweT+bm/8AV5N9Tf5uTy36snnqbxYRM59i8LLDTzXqfqvevitq8rH0JkjKtLKNBVIaJKynDbGXnF64vatzTS/QAYRuwAAAfMj6PmQBhmYJGeZgkegwyMMzNIwzKgYZGCZnkYJhAqdzleYZaaxVlfafVhp1/OUpV10O/Z6hKXFzqwhKEqVw3lu4p72/vSdSnVe7KFRdc5hG09GW7GzoXKzwnb3dHda7G1XdBp96Slh9r6z1lkYJmdDFVIK2hrp+Ohlam0eT2j8wzaerLErOjbrP0ri7oqOO1roHXfksLL7usmfk+/BnYnGpqupb0Fut2tjSdNyfbGpd1ZSe72YpUIT7VUj1F85mCZVLGVHqsuC+NyrPZpnJ7yUadpNJ0dPtKNtGTTqShBdNXkklvVqzzUqywkszlLC4LC4GzyM0jDIxW29L0lJgmYZGaZhkeHhhkYJmeRwNU1CFKnOrUkowhFylJ9SSXxfcutvgVJX0INpK70JbTrdp9oqVrRnWqvEYrgs4lUk/owj3yl8Fl9SZVTaPaGpdVp16r9Kb6s5UIr6MI/Vj8Xl9rO75R9v531bKzGhB4o031rsc5Y/Ll5vdXBdudSJXgsL6GOdL1n3Ld8TmOWMpfSp5kH9VB6PvPVncPZ6NO2yG+7B6Hux6aS9KaxDPZHPF/rY93ma5stoDr1OP4uDTm+/uivPt7l7CT4xxwXBLqXcbiC2kDyhiLL0Udb9bhu6/DifoALxHwAAAAAAAAAAAAAAAAAAAAAAAAAAAAAAAAAAAAAAAAAAWG5vllu2dSf5y6k/ZGMIfbF/EryWj5HrPc063+vGVT9ucmvhg0WWJWoJb5Lwb8kTvkbSz8c5exTm+tuMfBs3MAEJO2gAAAAAAAAAAAAAAAAAAAAAAAAAAAAAAAAAAAAAAAAAAAAAAAAAAAAAAAAAAAEIbcW+7d113zUv2oxl9rIu2np4rS8Yxfwx9qJm5U7bFypevRj74tr7MER7Y0vThLvg17nn+8TfJ87qD3xS7F+xw/lBSzZ1l7NRvqbdu6SNfABvCDgAAAAAAAAAAAAlfkp5Xeg3ba6lmj1U6r4uh9WffT7n1w7eH0YoBjV8PCvBwmtG/anvXSbHAY+tgayrUXZrWn6so7YyW1PtT0ppq5dSnUTSaaaaymuKafU0+4+itPJzytVbNqlV3qttlLdz6dBdrp564/wAm8Lua6nYfRNdo3NNVaNSNSD7YvqfapLrjJdqaTRBcXgqmGfO0x2SWrr3Po7Lndsk5boZSheDzaiXOpN85dK9qP3l0XSeg54ANeSEHzI+j5kAYZmCRnmYJHoMMjDMzSMMyoGGRgmZ5GCYQMMjBMzyMEyoGCZgmZ5mCZ6VIwyMMjNIwyKj0wTMMjNM1jbTbq3sYb9afpPO5Sjh1ar+rHu75vEV38UnVGLk7RV29iLVSpGnFzm1GK1t6EdhrGrU6FOVWtNQpwWZSfUu5Ltbb4JLLb6isfKZymzv57scwtoS9CHbUfZUqePqx6o+L4nX7c8ode/nvVHuU4/i6EZN06fi+C359m+0vBRy09YJRg8CqXPnpn3L4vp7N5zrKuWHib0qV40tr1OfHdHctb27kOZpOlSrTUI+19kV2t/cu1nzpmlzrSUILL7X2RXe32IlDRNEhQhux4t8ZS7Zv7l3LsNzGNyE4vFKirLTJ6lu6X5bzNpmnRpQUIdSXX2yfa34s5QBfIq227vS2AAengAAAAAAAAAAAAAAAAAAAAAAAAAAAAAAAAAAAAAAAAAB+SlhZ8C4OyWn9Fa21J9dO1pQfnGnFN+15ZUvRrPpK1Kn69anH2Skk/gXJjHCx3Ii2W56Kcfefgl5nUuQ9HnYiq9ipxXXnSfhE/QARU6sAAAAAAAAAAAAAAAAAAAAAAAAAAAAAAAAAAAAAAAAAAAAAAAAAAAAAAAAAAAAR1yuW3ChPxnH7GvsZDO2FL0IPum171/2J75UrXetlL1K0JexqUP7yIP2mpZoy8HF/vJfYyV5MnzI9Da7/ANzlPKelarV+9CMuxW8YmkgAlBy0AAAAAAAAAAAAAAAHYaJtFcWs+ktqrpT7eG9TqL1alN8JxeMdkl1xlF4a68FEoqScZJNPWnpRdpVZ0pqdOTjKOlSi2mn0NE+bD84W2ryjQvErO4fCLlL+C3D/AJKq8bsv5Oqotdjn1ksplJbu0jUi4TipRfWn1f8A++Jm2b271TSklZ1ento4/gtwnUjTguuNJqUZwWOC3JYjwe5LinGcVkf7VF2+6/J/HtOp5K5X5yVPGLT/AGkbK/GOhX6U1wZdU+ZEI7F87PTq+IXanY1c4fSJ1KGf52MfQXjVjTS7yZLDVKVaCnRqQqwaypU5RnF56uMW0RyrQqUnacWuOrqep9R0Whi6OIV6U4y6E9K4rWutGSZgkZ5mCRZMswyMMzNIwzKgYZGCZnkYJhAwyMEzPIwTKgYJmCZnmdPr20dvbR37itTox75yUc+S65N9iSbZUk27JXfQHJRTcmkltbsu05cjiXlzGEXOcowhFZlKTUYxXe2+CIf2t5zFCCcbKk60uypVUqdJeO56NWXk+jz3ohHavbu6vZZuKrmk8xpr0KUH3qC4Z8XmXibahk6pPTLmLp19nxsRzF5eoUbqn9bL7vqdctv8qfUTJt9zhqcN6lYrpJ8U68l81F9WacXxqNde9JKHV9NED6pqtWvOVWtOVSpL6U5PLf3JdySSXccU/YQbaSTbfUlxb9hIaGGhRVorTtb1vr8loILjMfWxTvUloWqK0RXVv6Xd9J+HZ6Hs/UryxHhFP0pvqXgu+Xh78HeaFsG3iVfMV+bT9J/pPsXguPkbxQoKKUYpKKWElwSM6ML6yL4nHxjzael79i+L7vA4uk6RCjHdgvNv6Un3t/d1I5oBeI9KTk7t3b2gi/l15bI6PSpqFNVrm4cuipt7sIRgvTq1H9Jxi3GKjFZlKS4xSbJQKi89DR6kbu0uHnoals6MX+TGrCcpuOfWnCW8l3U2+ws15OMG1rJHydwdHGY+nRr6YNSebdrOcYtqN1Z7Lvek1tNftOd1rMZ70naVI5403buMUu6Eo1d+Pg5yqe0lTYjnjWlWUad9QnaSlhdNB9PbJtpLfxirBPP0ujlCKy5SilkqGDVxxE1tvxOy4rkzk7ERs6Mab2SpcxrqXNf80WenWn6jTrQjUpTjUpzWYThJShNd6kspnIPPTks5XrvSau9Qe/Qk81rWbapVfrR6+jq91SKeVwkpcMXt2I23t9QtoXVtPepz4NPhOlNfSp1F+TOPau3g1lNM2dKsqnQ9xx/LnJ+tkuSlf0lGTtGolaz9ma05st2m0lpWlNLvgAZBFQAAAAAAAAAAAAAAAAAAAAAAAAAAAAAAAAAAADauS2z6TUbSP8s5v/l051P7uC1hXXkA0/evZT7KVtJ+UpyjFfu7yLFEKyzO9dL2Yrtbb8GjtfIyjmYGU39upJrgoxj4qQABoSegAAAAAAAAAAAAAAAAAAAAAAAAAAAAAAAAAAAAAAAAAAAAAAAAAAAAAAAAAAAHTbYWu/bVl/Jtr9X0vuIE1KlvU5rvg/sLIXFFSjKL6pRcX5NYK8SpYzF9a4P7Gb7JstEluafb/oQLlLSvKnL2oyj2Nf5iNAfdeGJSXdJr3PB8E0OKtW0AAHp4AAAAAAAAAAAAAAAAAAdVq+zVKtxlHEvXjwl7eyXtya1T0e9s5b9rWrRw871vUqUZ+2MJLe8V6Sa7Os3oFuUFLWZ1DGVaNs16Fsfk9a6jj6Bzp9WoYjVlSuUutV6e5U4djlT3PjFvzN+0fnmU3wubCpD61CvGrnx3KkKOPLpJEfX+kUqv4yEZePU15SWGvYzXb3k7g/xc5Q8JemvufxZramTqMvsLqvHuTSJbhuU9eFk6k17yVRdrTkWQsedPpM/pTr0n3ToyePbDeXxO2pc4HR5L/PYR6uEoVU/6jKe3WwlxHqUZr6suPuko/DJ1dfRK0fpUpr9Vte9ZRgyyTS3zXWvgSGlyoqv+xl2p9mf5IuzU5cdI6/l9D2b7fuUMnXXnOA0iP+txl+hTqy/uIpVLhwfDz4H5kpWSaXtT7vgZT5R19kKfZL/MW11LnQ6ZD6CuK3hClufGpKCNN1fnZSeVb2KXdKtWy/bTpw/6rK+ZP2Cz1cfLiX4ZOoR1py4t+VjDqZdxc9Uow92K/VnPvJC2g5etTuMrp+gi+y3j0b/pONRPxjKJoV1dzqPeqTnUk+uU5SnJ+cpNt+85NvoVaX0aU/bFr7cHa2mwVeX0tyC+tLL90U/i0bCnRjDRCKXBWNBiMfnu9arnP70r9ivo6ka4fVOm28JNt9SSbb9i4m+2XJ7TX4yUp+C9CPw9L4mxWWm06axThGPkuL831v2syFBmoqZRpx9ROT7F8e40PSthKs8Op81Hx4zf6vZ7Xw7uw3TSdn6VFehH0u2b4zft7F4LCOxBcUUjT1sXUq6G7LctC/frAAKzDAAABr23uyFK+talvVpwqReJRjNZW/F5i0/yZdiksNZO8u7uFOMp1JRhCCcpTk1GMEutuTwkvMrnyo87ylT36OmQVaouDu6iXyaPDrowzvVmn2yUKfanURaqTjFc7sNzkvAYvF1o/RItyg08/wBWMHfQ3PZwXOexM0Pbvkk0uzg5Vqta2lx3Yb+/Um+6FOopSl444Jdq4Mgysll7uXHee65JKTjnhvJOSTx1pNpPtZzdd2gr3VV1rmtOvWkkpVKjTk0upJJKMYpttRhGMU28JZOAaWck3oVkfQ+Aw1ahTtXqyqzdr39VPdG6zmumT07kCV+bhyny06/hTnLFpeTjSrptqNOo1u0a6XVlS3ac+rNOWc+hFOKIrPVxwsvHHCWE2+5JtLPVxXefMo5WH1NYKYycWmthfxmFp4ujOhVV4zTT6N0l0xdpLpSPUQEf8g22bvtKtas5OdaFJUK8njM6tH0JTeOGamFN9XGT4IkA38XnJNbT5hxOHlh6s6M/WpylF8U2tHQ9a6AACoxgAAAAAAAAAAAAAAAAAAAAAAAAAAAAAAAACbubjY+jdVfr06a9icn/AFkTQRxyCaduWG921ripU927SXwp59viyRznuUJ52IqPc7diS8j6G5PUfRZOw8d8c78bc13SQABriRAAAAAAAAAAAAAAAAAAAAAAAAAAAAAAAAAAAAAAAAAAAAAAAAAAAAAAAAAAAAAgnaq13LmtH+Vk/wBp733k7EQcptru3Tfr0oS+2L/qm1ydK1RrevBr9yLcoad6EZezNdjT80iF9dpbtap4y3v2uP2tnAO72tpYqJ+tBfBtHSE6pu8U+g4TiY5tWa6X8QAC4YwAAAAAAAAAAAAAAAAAAAAAAAAAAAks9fHzMMrKD64R/ZX+BmB4eptGKNnBdUIr9Vf4GVAANtgAHp4AAAAAAAcTVtYo0KcqterTo0oLMqlWcaVOC73KbUV7WQbt/wA72zt8wsabvanFdI5Ojaw4rjvuLnU4PKUIbrxhzhwzblOMdbsbPBZMxWOlm4elKe92tBe9N2iutk91KiSbbSSWW28JLvbfBEJco3OusLTfp2n8OuI8PQbjawl271fDU8dqoqfHg3F53av7fcsGoalJ/KbiapdltScqVsl1elTi/nHj8qq5tccbqbRpZgVMVfRDR0s6fkzkTThaeNnnvQ/RU21DhKeiUulRzNP2mjbOUHlTvtUkneVd6EXmNCmnTtqbzlONLelvSj+TOpKpOPHEuMs6oDYdk9gbq9lijTe521ppxox/Xx6T+rDeffjrMG7k9rZ0ZKjhKVkoUqcditGK6tCu+1vpNdbJA2H5G7m7xOonb0Hh78kukqJ/m4PiuH5U0lxWFLjiWNh+Re2td2dRK5rppqU4+hCX8nT9JZXZKW9LPFY4JTVoews54lVzTj6v5cvP1fbx8EZdPD319nxIRlTlRCknHD6P7yS0/wAkPOS/l2kd7N8ldFUZ2lvS9GrTcKk3hzlvLG9Um+7OUuCXYuwqTf6bUo1J0a0XCrSnKnUg1hxnB4kvFZ4qS4Si01lNM9NLGwhTjuwiorw7fFvrb8WRnym8lNvc11cztKVeThGMpdEp1PRzjewszjh8FJSS495fq4e6VtFvAjOReU/oa1RVlKUalmpOXPz1fXd25ye/RZWuaZzQN+FpKMuEa1SdSCfaotLK8H6XnwLDGi7AbOTpy33Do4Rp7kI7u53LCjhYjFLhwS6sG9GTSjmxS3EOyziFicXUrKyz3dpO9ui+1pWv0gAF40oAAAAAAAAAAAAAAAAAAAAAAAAAAAAAADYMlvaOpKNOP0qk4wj2+lNqK4ebR4LN6FpexdJbHk+0/orK1h2q3g35yW8/tNhPijSUUorgopJeCSwj7OYTlnSct7b7Xc+oaFJUqcKa1QjGPYkvIAAoL4AAAAAAAAAAAAAAAAAAAAAAAAAAAAAAAAAAAAAAAAAAAAAAAAAAAAAAAAAAAAI45XLTjRqeE4P4SX94kc1DlQtc2296lWL9kvQ+2SMvCSzaseNu1WNRlann4SqtyzvwtS8EV/2ypcKcu5yj78NfYzWDddqKOaLfqyT+OPvNKJ/h3eHC/wATgOUY2rN70n5eQABkmsAAAAAAAAAAAAAAAAAAAAAAAAAAAAAAAAAAOs1vam2touVxcUaEV1urVhTS895rBF+0HOw0ejvRp1at1OPZQo1Nxvwq1Y06Ul4wlJeJRKcY62kbHDZOxWK/gUalRb4wk4rjK2automMFRNquedeTzGytaFvHP4y4criq124pwlSp05Z7XKssdndD+2HKdqF/lXd1VqwfXRUujoNdzpQ3YTS7N9SwYssVBarvuJhg+RWNq2deUKK26fST/DF5vU5rp0l2dteXvS7DKq3MalRZ+Zt/n6za7MRe5DPUnUnCOetrDIJ2055VzUTjYW8bZP+NuN2tWXlTi3RjLtTlKrHwkVzjBLglheHA+jEniZy1aOHxJ3geSOAw1pVE68ltqer1U1ot0Sczttpdrrq9kp3dxVuJLqdSWYxfHjGnFRpwfFr0IR4cOo6kRjlpJNtvCS4tvuSXFvwRu+zPI5fXLTdPoKbw+krei2n6tNPpG19ZQXiYyTk9rZLJ1aGFgs5wpQWpaIrhGKt2RXUaQd9svsLdXj+YpOUc4dSXoUU/wBPDzjtUVJruJ12V5DbOg1KopXNT+Ux0cX9Wmlh+c3N92CYdG2JqzS9FUoJYWVjh3RguOPYkZMMO3r7EQ/H8qaVJNUVf789EeqPrS/p4MhDZHkFt6O7O6fyiosPd4xoRfdu8HUX6fov1VnCmzQdi6lRLEVSppcG1urH1YLH3LxN30jZKjRw8b8/Wnh4f1V1L4vxO6NhCionMMfl2tiZXcnLc5al7sNS+bo6rR9mqVHjFZl2zlxl7OyPs+J2oBfSsRmc5Td5Nt9IAB6UAAAAAAAAAAAAAAAAAAAAAAAAAAAAAAAAAAAAA2jky0/pb+1j2Kspv/lpz+1I1ckvkAsN6+lPHClazee6U5QjFe2Ln7jDxc8yjUl919rVl3m2yRR9NjcPDXepC/BSUn3J36CxYAOcH0kAAAAAAAAAAAAAAAAAAAAAAAAAAAAAAAAAAAAAAAAAAAAAAAAAAAAAAAAAAAAAAADqNrbPpLatH+SbXnH0l8Ujtz4q08pp9TTXv4FUZZsk9zTLVWHpISg/tJrtVituqUt6lUXfTljzSyviiPiT7qhuylF/kylF+xtEaV6e7KS7pNe5nQsLLQ1wZ89ZVhZxfFPq+WYwAZ5oQAAAAAAAAAaryjcpdrpdDp7qTSctynTgt6rXnjO5TjlZeE222oxim20k2bUVV56+l1uksK+G7dUq1LP5NOtKUJ8fGpCPB9nRtcN7jZqzcIto3uQ8DTx2NpYerJxhLOvZ2bzYuWam9Tla3hpsjv7TnrWblipY3cIt8JRnQqNLvlFzp4/Vc/ve0WHOy0af0qtem+6dvU4frRUo+5lIAa1YqfR2HXqvI3Js/VVSHu1G/wA6n5HoBb84TRZf/UbeP6blTx570Uvidha8s+jz4R1XTm28JfLbZSflF1E37jzvPwuLFy2pGulyGwn2a1Zccx/pR6T0durGSzG9tJLvjc0Gvep4ObHaC3fFV6LT6n0tPD/ePMp013L3GN2cPVj+yv8AA9+lv2e8xnyDpbMTNf8AtJ/9xHprX2otY43rm3jnq3q9KOfLMkcC75SNOp56TULGGFl793bwwu971RYXiebUbaK6oxXkkfagu4fS37Peex5CUlrxM3wpxX6pHoXX5dNFj/8AVbB/oXVKr/ZykdZfc5LRYf69Cf8ANQqVPshx9hQkFLxctiXeZUeQ2DXrVa74OC/Qy6Op88LSYfi43dfwhQ6Nvy6edJfHBp2r89v/AGfTG1j6VxdKm1/y6VCqn/Sr7yr4LbxM3uXUbSjyQyZT9anOp79Sf/bcF3E5azzwdUqfiqdrbrwhOtJeUpySz5xa8CPNe5YdVuc9NqN203ndpVXawx6rjbdEpRXdPez1vL4moHy6i717+stOpN62ze4fJGCw/wDCw9KLW3MTl+KV5d5kr1XN703KcvWm3OX7Um38T5O80rYa8r/i7atJd7g4RfipT3U14rJt+l83++m10kqFGPbmcqk1+pCO6/bUiUqEnqTL9XHYajonVhG2zOTf4Vd9xGgXd2vqXa/IsDpHN5tY/j6tWs+1RfQw/dzL9/2kibL8nFvSwrW0in1byi5y/Wqz3pN/pSL0aEnr0GgxHKXDU08xSn06IR7Zaf6Sr+gcm97c/i7epGP5yqnRp+ac0nNeMFIkjQObmsqV1cZX5ujHd9jqybbXhGEX9YslY7AVpcZuNNee9L3Lh75ew2Kw2GoQw5J1H9Z+j+ysJ+3JlRwy26eJDMZyvqSuqbUFuprOl+OWjrjZkQbKcm9vReLW1jv4xvqG/Ux41JZaX6yRIem8n05YdWSgvVj6Uvf1L943qlRUViKSXclhfA+zLjTSIPiMq1qzbu7v7Um5S7WdbpmztGl9CC3vWl6Uve+r2YOyALhqJTcneTbe9gAHpQAAAAAAAAAAAAAAAAAAAAAAAAAAAAAAAAAAAAAAAAAACcublp2IXNX1qkKa8oRcn8Z/Ag0styGWO5p1OWMOrVqz9nSOC98YJrwZpcrzzcO17Uor9X6SackaPpMoxl/ZwqS7lT/WSAACDHdAAAAAAAAAAAAAAAAAAAAAAAAAAAAAAAAAAAAAAAAAAAAAAAAAAAAAAAAAAAAAAAAAACDttLTcuqy76jmv1/TfxbIq1+litPxaf7ST+1sm/lVtMV4S9ekvfFtfY0Q9tfRxUjLvhj3P/uTjJ886MXvj3r/Q4dyhoZk6i9mo31O9vzI6EAG7IQAAAAAAAAADqNrdnYXdvVt6kYzjUivRmlKLcZKUcp+KXHsO3B41fQVwm4SU4uzi001sad0+0q9rPN8sstSoVaMu1wqTSXkpb9P3Rx5ms1+bjbfkXNwv01Sqf1YUy47Rxq+l0pfSp05ecIv7UYzw8XsRMKXKnFwVs+f4s7umn4lLLjm3y/Iu4/rUn90zra/N3u19GtQl578P7si7FTZO3f8AFRXlmP2M409hrd/kyXlNlt4WPyzZw5Y4ha5N8acPKzKRz5ANQX+zPyrT+O9Sj8MmCXITqX5uk/FVo4+OH8C7kuT6h31F+svvRjfJ1S9ep+7/AO0p+irp7TMXLSr9zrpy8pFJv/gXqX5ul/TQPuHINqL/ACaK8HWWfhFr4l1f/h1S/OVP3P8A2j/4dUvzlT9z/wBo+irp7Ue//WlX+7//ABy/zFM6XN8v39KdsvKpUl/0V9p2Fvzcrh/SuaMfKE5ffEuBHk9o+tUftX+BmhsHbrsm/Ob+49+ir5ZYnyyrvVJLhTX6rlTbXm3x/Lu5fqUl/ekztrPm72UeM6tzU8HOnCP7lJS/f/72lp7IWy/ik/Nyf3nLo6JRj9GlTXjuRz78ZK1h4rYu9mvqcrMTL7c+pQj3xVyuel8jenw+haKo/rudZ/vORuukbBShjobVQ7nGEKXxe79pMcYJdSS8uB+l1Ukv2Rpq2XK9X1nKXvzlL4Ed22wFd/ScIe3efw4fE7a15Oqa+nUnLwilFfFSf2G3AuZiNZPHVpbbcEv3fedXZ7MUIdVOLffL03+9k7RIAqtYwpTlLTJt8XcAA9KAAAAAAAAAAAAAAAAAAAAAAAAAAAAAAAAAAAAAAAAAAAAAAAAAAAAy32yGm9Da29L1LenF+e6s+95ZU/QbLpK9Cn+cuaUO/wCnUjFvySeX4Fx4xxwItluf8OHvPwS8zqXIejpxFXcoRXXnSfhE/QARU6sAAAAAAAAAAAAAAAAAAAAAAAAAAAAAAAAAAAAAAAAAAAAAAAAAAAAAAAAAAAAAAAAAAaDyt2mYUanqzlH2TSf2w+JCW2NL0IS7p496b+4sPyhWm9aVPq7s/dJZ+DZA20dHNGfhiXuf+BKclz5seiTXbp8zlnKih9ZN+3BS646P0o0YAEqOVAAAAAAAAAAAAAAAAAAAAAAAAAAAAAAAAAAAAAAAAAAAAAAAAAAAAAAAAAAAAAAAAAAAAAAAAAAAAAAAAAAAAAAAAAAAAAG7cjem9JqNDupqdV/qxaXulKL9haAgXm6WGa9zU/N0acF51JSf2U/iT0QfK887EW9mMV287zO48j6OZk/P/tJzl2Wp+MGAAaQm4AAAAAAAAAAAAAAAAAAAAAAAAAAAAAAAAAAAAAAAAAAAAAAAAAAAAAAAAAAAAAAAAABxNXtOkpVYevSnH9qLRXu6o70ZR74te1oseQJtBa9HXqw9WrL3Zyvgzd5NnZyjwfz3EJ5SUrqnP3ovrs15kSIHJ1Kju1Jx7pv3ZyvgcYm6d1c4fJZraextAAHpSAAAAAAAAAAAAAAAAAAAAAAAAAAAAAAAAAAAAAAAAAAAAAAAAAAAAAAAAAAAAAAAAAAAAAAAAAAAAAAAAAAAAAAAAAAWE5vem7tpUqdtW4fH6tOKil7Jbz9pKRqnJZYdHp9qsYcqEaj/AOb85x8cSRtZzjGTz69SX3n2J2Xcj6QyPR9DgcPDdTg3xks597YABhm4AAAAAAAAAAAAAAAAAAAAAAAAAAAAAAAAAAAAAAAAAAAAAAAAAAAAAAAAAAAAAAAAAABDvKTZ7t1J9lSEJ/Dcf9XPtJiI45W7TjRqfpQfwa+82GBlaqlvTXn5Eey7Tz8K37Eoy783wkQPtTRxWf1oxl9q+1HUGy7ZUfxcvBx+9fea0T2i7wRwTGRza01037dPmAAXjDAAAAAAAAAAAAAAAAAAAAAAAAAAAAAAAAAAAAAAAAAAAAAAAAAAAAAAAAAAAAAAAAAAAAAAAAAAAAAAAAAAAAAAABktrZzlGC65zjBecmor4sxmzcmdh0uoWkMZXTb78qcZVHn9gtVJ5kJS9lN9iuZGGpemrU6XtzhH8UlHzLVWVsoQhBcFCEYpdyikl9hmAOZN3Pp9JJWWpAAHh6AAAAAAAAAAAAAAAAAAAAAAAAAAAAAAAAAAAAAAAAAAAAAAAAAAAAAAAAAAAAAAAAAADUeU+z3rXe/N1Yy9jzB/1s+w2463aS06S3rQ76UseaWV8UXqMs2pF7muww8ZS9LQqQ3xlbjbR32K3bV0c0s+rOL9/o/ejTCQdUo71Ka74PHmuK+KI+Og4Z81rcz57ynG1RS3rvTflYAAzDTgAAAAAAAAAAAAAAAAAAAAAAAAAAAAAAAAAAAAAAAAAAAAAAAAAAAAAAAAAAAAAAAAAAAAAAAAAAAAAAAAAAAAAAAk/m+6bvXlSp2Urd48JVJJJ/sqS9pGBO/NzsMUbmrj6VxGmvKEIyfxqfA1eUp5mHn02Xa0vC5J+TVD0uUaKeqLlP8ADFtf1WJfABAD6BAAAAAAAAAAAAAAAAAAAAAAAAAAAAAAAAAAAAAAAAAAAAAAAAAAAAAAAAAAAAAAAAAAAAAB+NH6ACvmpWXR1KlN/kTlDzSbXxRGFzS3ZSj6smvc2iauUG03Lup9ZRn71h/FMiPaKju1p+OJe9f45J9gZ5yT3xT+e04Flyh6OTXsTlHqu7eB1oANqRQAAAAAAAAAAAAAAAAAAAAAAAAAAAAAAAAAAAAAAAAAAAAAAAAAAAAAAAAAAAAAAAAAAAAAAAAAAAAAAAAAAAAAAAFoeRzTOi0+h31FKq+99JJtZ8o7q8kirsk+zi+xd77EXL0ewVKlSpL+LpQh+zFL7iOZbnanCG+TfYv/AJHR+RNDOxFar7EIx/HK/wD22cwAEPOwgAAAAAAAAAAAAAAAAAAAAAAAAAAAAAAAAAAAAAAAAAAAAAAAAAAAAAAAAAAAAAAAAAAAAAAAEY8rVnipSqetTcH+q95f1mQxtjRxKEu+LX7L/wDyLB8qdpvW6l6lWL8lLMftaIK2uo5pp+rP4NY+3BLslzvGPRdfPajkfKiharVttUZruT8JGoAAkpzMAAAAAAAAAAAAAAAAAAAAAAAAAAAAAAAAAAAAAAAAAAAAAAAAAAAAAAAAAAAAAAAAAAAAAAAAAAAAAAAAAAAAAAA77YLTemvbWn1p3EJPyg9958Hu49pbgrhyCafv3+9jhStqk89ilJwhFebUpNfosseQvLM71ox9mPe2/Kx2jkXQzMHOptnUf4YxSXe5AAGgOgAAAAAAAAAAAAAAAAAAAAAAAAAAAAAAAAAAAAAAAAAAAAAAAAAAAAAAAAAAAAAAAAAAAAAAAAHUbW2XSW1aP8m2vOPpL4xRX3W6O9RqLug5fs8fuLL1IZTT6msP2le9Qtd2dSm/yZzg/Y3F/Yb7Jk7Zy3NP57EQPlNRzsyXtRnB+K/MyLwfVSnhtdza93A+SaHFHoAAPTwAAAAAAAAAAAAAAAAAAAAAAAAAAAAAAAAAAAAAAAAAAAAAAAAAAAAAAAAAAAAAAAAAAAAAAAAAAAAAAAAAAAAnLm56biFzW9apCmvKCcn8Z/AmQ0PkS07o9Oot9dSVSo/J1JKPvhGL9pvhzvHzz8RUf3rfh5vkfROQKHocn4eOq8FLrnep+oAAwDfgAAAAAAAAAAAAAAAAAAAAAAAAAAAAAAAAAAAAAAAAAAAAAAAAAAAAAAAAAAAAAAAAAAAAAAAAhTbyz3Lqr3Samv1ll/vZJrIi5U3i7S77aEl4+nUi0v0d2LePWXes7LJ8rVbb0/j5Eby/Sz8LnexKL6nzfGSIW16ju1pr62V+sk/vOvO+2vo4nGXfDHuf/c6EnlN3in0HBMTDMqzXS+x6fMAAumMAAAAAAAAAAAAAAAAAAAAAAAAAAAAAAAAAAAAAAAAAAAAAAAAAAAAAAAAAAAAAAAAAAAAAAAAAAAAAAAAAAwftKOZ0odtW6t6EfCVxXp0IN9XBSqJviuGSmUs1N7k2XaVN1Jxgtcmori2l5lw9mrFUrehTXVChTivZBI7I/Ej9OYSd229uk+oIQUIqMdUUkuCVkAAUlYAAAAAAAAAAAAAAAAAAAAAAAAAAAAAAAAAAAAAAAAAAAAAAAAAAAAAAAAAAAAAAAAAAAAAAAAIi5b6W7c6dVykpK8tcetKrCjcQx3tKzqftPvJdIl5ytTo7K2uN3e+T6xYNvsp07iurKrN+EKVzOT8u0ysNLNqwfTbt0eZg46l6XD1IbXF24pXXekRhthRzCMu6ePY0/vSNSN816hvUpruWf2Xk0Mn2Gd423M+espQtVv7SXdo+AABlmqAMde5jFZlKMVlLMmorL4JZeOL7EZDw9sAAengAAAAAAB+Tmkm31JZfgkR1yS8ulprMriNtCtB0NyXzqgumpVMqFWKjKTSk4v0Z7slwyl1KlySaT1vUZVPC1alOpWhBuFLNz5LVHOdo34tWRIwAKjFAAAAAAAAAABGHOU1ytb6Pc1KFWdGo50afSU5OFSMalWMZ7s4tSg3Ftb0WpLsaKJSzU3uMvCYd4mvToRaTqTjBN6lnNK74XJPBFXNi2irXOj0J3FWdarCtcUnUqSc6kowrS6NTnLMpuMHGO9JuTSWW3luVRGWck957jMM8LXqUJNN05yg2tTzW1dX02drgAFZhgAAAAAAAAAHzVqYTfcm/DgslX+a3tzd3Op6hGvc168KlOdVQq1alWnTkq7S6GM5ONKO7Ld3aajHdUFj0Y4tSqKLS9o2+EydPE4fEYiMklh1BtNO8s6TVlusk32LpLRAAumoAAAAAAAAAAB0e2+2FKwta13X3ujoxTagk5zbajGEU2lvSk1FZaWX1o8btpZcp05VJRhBOUpNJJa227JLpbO8Bq3Jryh0dUtIXdGM4RlOUJQqJKdOcHiUXuuUX1ppxbTTNpCaauiqtRnRnKnUTjODalF601oaAAPSyAAAAAAAY/lMd7c3o7+7vbm8t/d6t7dznGe3GDIeHtgAD08B3GwVl0up6bTxvR+WOrLwVvQq1Yy9laNL4HTm2cgtv0uurDeLTR69SS7HK7uKNOnnuajbVsd+Wa/HzzMPUfRbt0eZI+TtD02UaEdkZOf4Iua74pdZaoAHPD6FAAAAAAAAAAAAAAAAAAAAAAAAAAAAAAAAAAAAAAAAAAAAAAAAAAAAAAAAAAAAAAAAAAAAAAAAAAABF3Ojs6k9nNb6KLlWp6Pd3FGKTbnWtaUrmlFJdblUpRSXa2SicXVbGNWlUpySlGpSnCUXxUozi4tPwaeCqLs09zQ4lbdD1ONzb0a0WpRr28Kia6pKpBSyveaNKOOD608PzRw+a5dS/yJaW823U0+pdaXUz15026rWcM8FxdKlTk+HW2dzrdDdqzX1s+/j950DCy1rek/ntOAZcoeim4+xOcO//AOJwQAbEixXTnr6c52VnLrhG9anF8YPepT3W11NprCb6sslTkS12VzpOn1Zy36nyKlTqSfXKpSiqU5S+tJw3n4s1TnZ2LnoleSWXRubSp44lcU6Mn7FVy/BHTczfX+k06tQfXa3skl27laKqxl5ObqRS+oYidqzW9E6nD0/J+E1/9viJRfRGSTfbKpDjZbiewAZZBQAAAAAD9S/87ylvM/uHb6tUtW+ErGtS8521Snu92fR6V5x2dXEukijXJ/m22rgs4S1u+hj6lwrqEE+/CqxfHtSZiVtEoPp8Se8nI+lweUqPtUVNLppxqtf1NF5AAZZAgAAAAAAAAARFzq/9C3H89bf20CXSIudX/oW4/nrb+2gWqvqS4M3WRf8AeGF/xqX50dbzP6+dIcfVvq/725Im8r3zLrjNhdx4ehqGPHjRpy4+8sIU0PUjwL/KGGblLEr+8b/ElLzAAL5HgAAAAAAAADiavPFKq+6jUfugyoXMurb1/cS9aw3vHjUiy1e3l1uWN5P1bOvLrx1U5Pr7CrXMqt/4ddP1NPj7c1Yr7jDq/wASBPMjK2SMpSe1UV3y/wAyLhAAzCBgAAAAAAAAAgznjat0ekwpf7TqNvS9lONW6y/Det4rt4tE5lZOexqK6PT6Pb0tat+zBU/7795Yru0H89BJuTVL0mU8Ot0nLrhGU0+pxRvfNOtN3RLdvrqXF3N9X+0VIR6vqQj18V1dhMBH3N/tNzRtOXrWkajXc6mZtfEkErpq0VwRr8r1PSY7Ez31qr6s+QABcNSAAAD9Pw6XbbX1aWd3dS4q3s69Zr1uipSmo/rNY9p4y5Tg6kowiruTSS6W7JdpVnk7v3ebX1rhSlwrXXHLz0NvDoVTz+byovd+i3x63l3AKb8zDSXPUrmvJ7zoaa4Sb7Z3Nem1N+LVvV7O1lyDGw/q33tsmfK5RhjIUI6qFCjT7E2v6ZRfWAAZRCAblzOrRVdQ2jvFnEbjTtKWcYzZW1S9m49vF6qoyeeMqeMejl6ZKaXF8EllvuS6yTuYlpzWhyupr09Q1nU71vOd6FW8qqjjPYqEKcUuOFHC4JGiyxUzaGb7TXYtPwOjcisPnYmrWf2IKK4zlr7INdZYkAEJOxAAAAAAAAAAAAAAAAAAAAAAAAAAAAAAAAAAAAAAAAAAAAAAAAAAAAAAAAAAAAAAAAAAAAAAAAAAAAAAFF+R+6jQ1farTE8fI9opXEYerS1CjC5Usdm/UdSWccevvNv2vo4qRl60PjFv7mjRdq6DsuUbUYLhT1nZu1vJd0q9t0dpT7fyKNnW4Ltqp44tuSdr6OYRl3Tx71/2JvgpaIPfFdtvicj5VYfNq1H7ShNdiT71JmpgA3hzM1Hle0Z3Gl6hRX0p2NZQ4ZxNQcoPHbicYv2FbeZZrKje3lHP+cWVKaXe7epPD9kbiXvLeXNvvxlD1oyj+0mvvKE8iOqfItdtY53Y/LqljPxVWUreEf6fovYjCraKkH1fPadF5PxeJyZlHC7oxqJb2k5W4uVKFukv0ADNOdAAAAAAAolykVnbbS1qi4KGrW9TPViMugc38Z+fvL2lE+ddY7usXKi2nUtqE8rg05U93K8U49fgYWK9VPczoXIq0sXWpPVUoTT/AB0/JsvYpZ494Op2Q1hXFpa3C6q9nQrLyq0oVF/WO2MxEAnBwk4vQ4tprpTsAAelAAAAAAAIi51f+hbj+etv7aBLpEXOr/0Lcfz1t/bQLVX1JcGbrIv+8ML/AI1L86NH5k9x8xqEP96pT8PSpKOfP0PsLKlVeZHdfOanDup2c+v1pXUXw8NxcfFdxaot4f8Ahr52my5VQzcqV1v9G+2lB+YABkkTAAAAAAAAANK5bbrc0fVJLrWmXOO30nSko++TRXjmV/57e/8AAQ/tkTtzirnd0TUXx428YcP5StTp+70uPhnrIJ5lf+e3v/AQ/tkYNX+LD53nRclx/wDQcdLfNLs9C/1FvAAZxzoAAAAAAAAAFNOebrG9qVCj+Y05T8nXqVMrweKMX5NFyzz+50OruprGpvspKnSh4KnaUd7/ANV1H7TDxT5lt7R0DkRQ9JlFy9inN9blCn4TfVcu9ybWHRafY0/VsaC99OL7Md5sZxtMtOjpU6f5ulCH7MVH7jkmUlZJEFrTz6k5+1KT7W2AAVFkAAAETc6PXOh0a5XbXlSt0u2SnNb+PKCk34JkslX+e1rjxp1quqU7i5lx6nTjTo0vPKrVvLd7eyxWdoS4eOgkfJ3D/SMo4eGxTz3wpp1O/Nt1nP5lWlYt76u1xndU6S8Y06e91+Eqklj/ABLIkOc0qw3NFozaw61zdVPFqNxOjF+1UsrwZMYoq0I8P3POUVX0uUsS91Rw/Ban+kAAvkdNW5VNo1Z6bfXP5myrSXjLccYLzlNxivFlp+ads7K02Y0ChOLjUjoVjKrF/ShVq28KtWL8Y1JyT8u0o9zqaHT6dS09OUZanqtjZLd68VLmm288epqMup9R6Y6faKnThTikowpxgklhRUYpJJLqSSwkRTLc/Ujxfh8TtPIvD5mCnV21KjX8sIxS/qlM5AAIuT8AAAAAAAAAAAAAAAAAAAAAAAAAAAAAAAAAAAAAAAAAAAAAAAAAAAAAAAAAAAAAAAAAAAAAAAAAAAAAAo3z5W7LaXZPUvo051a+n1X2TdedKFOL7UourKT7MdfUSVtBQ3qNRdy3v2Wn9iZHX4WPQqktE066pZU7TXYZnHg6Ua1leRjPOeDVxG3Sxx3pLqwSDoGrRurajXWN24tqdXhxXzsFJr2N49hKcBP6qD3N/muQblRQUo05e1GpB9Vmvzy7DRwfU4YbXc8e4+SUnEAeefKja/ItbvcZ+Z1d3cfDpKsb6O7j1VUSWOrGOtHoYUk52+kdHq7nj0a9nRn5yjv05P3RgjDxS5qe5nRORNZLGVKT1VKT0dMZRf5XPtLq2V2qkIVF1ThGa8pJNfaZiPOb3tB8p0awqNtyhbu3m3xk52tSdvKT8ZdFv+UkSGZcXdJ7yC4ug8PXqUXrpznB8YycfIAAqMUAAAFK+eHZuOsQl2VNJt3+tGvdxfuSj7/MuoVM57Nni506p61rcwb7ujqUZRXt6WXuMXEr6t9RN+R1TNylCPtwqR7I5/6CcOb1eqei6dh56O0jRfh0LdNL2KKJDIS5oWqb+kdHnLoXtem+9b7VZJ+Uaix4YJtLtJ3hF9CNDlml6LH4mG6rU7HJtdqaAALppgAAAAAARFzq/wDQtx/PW39tAl0iPnVRzotxj89bv2dNDiWqvqS4M3WRf94YX/GpfnREHMqr4vb6PD0rGlLx+brY4eHznH2d5bspfzN7rGr1ocMT0iu/FuFzZYx7JSZdAs4b+Gus3vLGFspSftQpvsjm/pAAMshAAAAAAAAABEfOur40K8XrVrGP/wDPtm/ek17SH+ZX/nt7/wABD+2RK3O5l/8AJai77y1XuqqX90irmVr+G33/AAMP7ZGvqfxo/O86fk5W5N4vpqSf/wDOvIt2ADYHMAAAAAAAAAD9POzauv8AK9YrZ4/KNa6Hz37qNBe/hxyehGrXqp0qtSXCNOjUnJ9yhByfwR56cj9u7jVdOU+M539KrLt9ODddv2ODZgYnS4rp+B07kZH0cMbiP7OnHT1VJvszF3HotJ/afh+n4Z5zEAAAAAAFIedrtB0urzpp5ja2tKm16s5J1pLwzGcH7S76POTbS9d7qt1KXH5Tq1SnHtzTlcdBRXi1SVOPjjqXUYWKfNS3s6NyIoKWKq15aqVPvlJafwxn2l6+SDRXb6Vp9F/ShY0d/szUlFTqP2zlJ+028x21vuRjBdUYqK/VSX3GQy0rJIgGIqutVnUeucpSfGTb8wACosES7T1Vd7W7KaZjeXy6d7Vh3KlTr1aUu1fRtLjjjsXiemB5w83TTlfcodStu5hpWj1sS61Cs6cLeMU+zep390+HdJdrz6PEFytPOr8F5v8AY+jMh0PQZPw8LW+rUnvvNupp/FZdFgADTG8AAAAAAAAAAAAAAAAAAAAAAAAAAAAAAAAAAAAAAAAAAAAAAAAAAAAAAAAAAAAAAAAAAAAAAAAAAAAAAK/c/bZlXWyerxaz0FvTvV35sq9K64eLVJrHam12kJc0Tab5Vs/Ytv0rdVLSWeLXyeo4Qy+1ypdHPPXiS8S5PKZs78r06/td3e+UWFxSUfWlOlKMV+00ebP4OPaRTsb+3zx+U0LxR7lXtqdGT9rt48PM32Tpc2S3O/av2NBl2kp4Ny2wlGXU+Z2c5PqLB65Q3as13y3v2uP3nBO+2vo4qRl60P6r/wC6OhJhTd4p9B8/4mGZVmul9j0+DBVLntaa1W02sl6MqN1Sk+6UJUJ017VOp+y/AtaQRzx9G6TS6VX/AGa/pT4d1WM6GH4ZqRfDtin2FFdXgyQcmK3ocp4dvVJyh+OEoL+qSt0nH5mmt7+n3FDtoXsml9WtGM8+W9vLzTJ/Kd8zHXdzULq3fVcWCqLu37arFJLxlC4m33qHgXEPMO7wRc5VYf0OUq26ebNfzRWd/WpAAGSRIAAAFbeevZfwewq913Up+SnScs++CRZIgznh2W9pUJ/m76j++pw+8sV1enIknJypmZSw73zzfxRcfM1bmR6rmGpW/qVbW48G60K1KTXilbQz7PEs4U+5mN+o393T7atjFrx6Krn4Kb95cEow7vTXRczeVtPMynVa1SVKX/Lin/VFgAGUQ4AAAAAAEVc57/Qt1+lR/tYkqkVc5/8A0LdfpUf7WBaq+pLg/A3GR/8Ab8N/jUvzorvzRp41qP1tNuo+fp288fuZ9hd0o1zUquNao9m9bXMfNuCaXwLyljCvmdb8iT8tV/6hH/Ch+aoAAZhAAAAAAAAAACDueFcY0mMeHpX1Hz9FTfAjjmU/55f/APBUf7WRu3PPrYsLVetf/ZRqPgaTzKf88v8A/gqP9rI10v46+dh1XBxtyarve5P/AJtOPkW4ABsTlQAAAAAAAABo/Lneuno2qSTw3ptxTT7U6tN0k/Y55Khc2qw39as/5N1an7NKa/vFl+dXqXR6NXSfGrWoUku9SqxcvdFN+ztIB5otvva0vqabdVPL07el/wBU19bTVguHidWyDF08h42p7Xpl2UYrxky7gANgcpAAAAAAOj2611Wtld3MuqhZ1qr/AFKcn7+7xKE8jOju41bTacvSzf0q0n2P5O3dSz4S6HHjnHaWz512ruloteMXiVevbUfFx6eFSol+lTpyi/CT8CBuaNpHSat0mMqhZ1Zfoym4Qi/c5r2mvrc6pCPzr/Y6rycX0XJGNxWqUs+K/lp2i/x1HxaLsAA2ByoByS4t4S4t9iS62DUuVvX/AJLpl9X7YWdVR8ZTi4RS8W5JLxKW7JvcXqFJ1qkKcdc5RiuMmkvEx/guaHyu82i1d5auK9CnHe64RnOvcxil2Yp1acXx/Ij3ZPQcph+Cp2W6HZ66uX/ruuXE6b/krahbWW7+rXt7j3++55zrGSzq0n0+CSPqLNUebFWSsktySsl2AAGGAAAAAAAAAAAAAAAAAAAAAAAAAAAAAAAAAAAAAAAAAAAAAAAAAAAAAAAAAAAAAAAAAAAAAAAAAAAAAAAeR3Njp/5K2u1LSsRp0pVtSs6MF6O8rO4nWs0km1j5HCrPd61ldzPXE8m+cTSjpfKJ8o6lV1Cxunh8N28t42cvJNb6fZ1vvNtk6VpSjvV+x/uY2Kpelw9WnvhK3vJXj/VYt3tfQzCMvVnj2SX+KRqRvmvUN6lUXdHeX6vH7EaGTLDO8bbmfOuUoWq39pLtWjyQI85wmnKpouo5WejtJ114dB8637IxbJDODr2mRr0K9GazCtb1aUl3xqQlCS9qbMmSumt6ZjYOt6CvSq+xOEvwyT8iiPN41zoNZspZwqlSdCT8KsJJe+aivaX8PMGzvqltOFXGa1rVhVwm1mrbzU8Zxn6cMdXs7D07oXCnGM4vMZRUovvjJZT9qZhYR6Guk6Jy6w+bWoV1qnCcLr7klK/WqmjgfYAM85eAAACJOdZZOeh3bXXTq2dT2K8oKXuhKT9hLZpHLhYOro+pQSzL/J9eUV3zpwdSH70UW5q8XwfgbXJVT0eNw0/ZrUX1KpG/cVL5rmqdFrVss/jqVxRXjmm6v2UWXrPObkn1XodU02r3albQb7o16saEn7IVZew9GTFwj5r4kz5c0c3F0qmydK3XGcr90ogAGcc3AAAAAABGfOS/0Le/oQ/tIEmEbc42i3ot/j8mjGT8lUhn2lqr6kuD8Da5Kdsbhv8AGpfniVU5tVfd1qz6vSdWPHtzSnwXjwL6Hn5zf6uNb03xuZry+YrP7j0DMbCeq+PkiY8uY2xtJ76Mf+pUQABnHOQAAAAAAAACt3PYq/wawj/vs558qE44/eNb5k3+daj/AMJa/wBrXO257Nbhp0e+VzL9lUl/eOq5kkf4Tqb7rW0T/WqXOP6r+Brn/H+dx1yircl5vem//wBqKLaAA2JyMAAAAAAAAArrz1dSxZ2NFPDqX0qjXrQo0ZprHhOrTeezC7zTeZVYKV9fVccaVhTp57lcVt7Ht+TfBeByOe1dZudNh2U7W6njxrVLeP8A0DvOZNY/NahV769Gln9Cm6n/AFe7t6+7Xa6/D4HXI/UcmG1rqJ/1YnN74LvLMAA2JyMAAAAAArJz19exCwtU+M6la4lj1acY00n5uq2u/cfccHmS6S+k1K4f0VC1oRffJuvUqL2LofPPhx03ncas6msOGcxoWFCkl2KTlVqzfm+kin+iia+Z/ovR6TKrjDub2tUfe9xQoJ+TjSTWO/xZro86u3u8lY63iksJyahDbW9H2zqem/JHN/1JwABsTkgIJ54+vulpdOiuu6v6UJccNU6Malw35dJSpRa4ZU/Y52Kg8+jaJupb20HmVKyrXDguL3qrcKTS+t0c11daLFZ2g+nR2kq5MUPTZSoJq6g3N9GZFyT/ABKNumx6TcynZf5Jsto1Ld3ZTsFc1I9W7Vu5zuavn85Vk2+18e0m46nZLRFbWttbLGKFrRo8Or5qnGHD9k7Y5tOWdJy3tvtZ39gAFB4AAAAAAAAAAAAAAAAAAAAAAAAAAAAAAAAAAAAAAAAAAAAAAAAAAAAAAAAAAAAAAAAAAAAAAAAAAAAAADyw/Cq7Lypa9Y3kW4fLNCVKDXWq1hdVpSmnnrUb63WMLG6nxy8ep5RL8K/sxv6fpN4o5dvqVShOWPo0rmhJtZ7N6rRpcHwePBGdg5ZtVdN13aO9IrhrJA5P9o432n2V2l6N3p9vXx6vTUYylHzi5OL8UaxUp4bXc2vdwNZ5mm0nyjQLWOfStala1a9VU6jdPPnTlGS8GjdNeo7taa73lfrJP7XgmmFelr5+dJwHL+H9FVlG3qTnHqu7dyOvP1H4DYkSPOXlW0dUNT1Cj2Rvq3uqS6T7Jl5eRXXflOlWFVvMnaQhPwnTXRyXscWvYVL50+i9DrdxJLhc0La48M9Erd49tvlrvlntRN/M11vpNMrUH/q2oVYx4/kVoU6+fDNWdbh4Z7eGtoc2rKPHxOwco4/SsjYXErS4qjJv36ebL/mZqJ6ABsjj4AAAOt2ls1Utrim+qdtVi/bCSOyPyVNNNPqaw/J8Dx6SuEs2SktjT7GeYmiXDp1KE3wdOtRm/B05xk/c4npzRrbyUl1SipLyayeZOv2uK1xT6t24r0+7G7UnDHhjB6M8nmr/ACiwsq/X01jQqee/Si/vNdhNclw8zrPLqGdTw1Zb6i/EoSXg+w2AAGyORgAAAAAAjznC/wChNR/4X/qQJDNA5f8A/Qupf8HL7Ylup6suD8DZZM/2zD/41L/qRKXcjNXd1bTn/vsF+0pR+/J6Is83uTe53NR095a/+Z2keHX6dxThjye9h+DZ6QsxMJ6r4k85dR/8xQlvpyXZO/6j8ABnnMQAAAAAAAACp/PcrfwjTI56re9k12cZ2qi+7Poz8vbx/OZF/nGqf8PY/wBe9OJz1K+b2xjlejY1JY7Vv1msvwfR8PJnZcx/8Zq/83pv9bUTWp/X/PsnY5LN5LW+5H+rGxfmWqABsjjgAAAAAAAABSfndalv6vudapWVGPlKTqSkvduv2kw8zmw3dLq1Pzt/U/cjCH3FceXzUul1rUZZyo3SpR+r0NKnSkv6SE35tlp+afaOOh2zaw6le8n3cPldanF+2NNNd6aZrKWmtJ8fgdgy7H0GQMNT3/R010unKo11Naekl4AGzOPgAAA/Ufh120erq3t69dtJUaFSpl9WYQclnzaSPG7FUYuTUVrbSXF6Dz45V9e+U6nf1uyV7VjHucaMuhi14SVNSXn2F2+QTT+j0bTVjDnYUqzXbmvHpuPjiaPPiysZ1FCkpPpKjhSUnxbqVGoKTz1tyefFnp3plkqdKnTisRp0oQiu6MIqKXsSwa7C6ZSl86Xc65y1caGFwuFjqTdvdpwUF25/cckAGyOQgqBqVg9V24tLZ8Y/5c0+ikuO9RsuiubiD4rhLorniupS7WuNu7m4UIym8JRi5Nvgkoptt+GEVe5gtBahtjQuJJvdo6jqKysunndpxz3bvyuMM+ztNZj55tN8G+xHTeQ1C9avX9imodc5Z3ban2M9ewAc/OtgAAAAAAAAAAAAAAAAAAAAAAAAAAAAAAAAAAAAAAAAAAAAAAAAAAAAAAAAAAAAAAAAAAAAAAAAAAAAAAAAArD+Ei0GVfZK+lBZlbXen3GF17kb6hTqy8o0atST8Iss8aHy9bHrUNE1ayf+taTd0U+GYynQmoyWeCcZYkn2NIu0pZs4y3NPvPVrPOj8HntG/wD5rZP6Kla3kPGU1Ut679kaNt72Wc2woYnGXfDHuf8A3KIcyHa3odcoQb3Y31pWobrTTdRQ+UQT7sRpVOD7cLr4O/219HNOMvVn8GmvtwTeg7TXYco5XYe1ao7etGE11LNf5WaiADbnLSqPPV0fFawuEuEqVajJ97jKE4r2Jy95i5lmubtxe2zf4yhTrxXe6cnCb9inTXtN055+kOenW1ZfxGpQ3/CnVo1qf9r0K9pBHNq1p0NbssfRr9NbT792pRnKP/rU6JrJc2unvt36DsuBj9M5OTp63ThV43pzdZLjZJcGi+wANmcaAAAAAAPOHlM07odT1Kn3areNeEZ3FSpD92aLm82TVum0OxfbTjXoNdyoXNalD304wfhkqtzjtP6PW7/uqVKNVeClb0U/fOMn7Sw/M81BS0qdP8zfVl/SKNT+837TWUNFWS4+J2blN9fkXD1tbvh5t7s6jJNfikutE5gA2ZxkAAAAAAGg8vsc6LqfhYVH+ziXxxg340Pl6/0Lqn/6dX/qMon6r4PwNjk3/a8P/i0vzxKGbK1d27s5ZxuahaTz6u5cU5Z9mM+w9MJHmBa3G5OE+HoVIT49XoyUuPVw4ceK4HqBPrfmYOD1S6vM6Ly8jzsK96rLsdP4nyADYnKQAAAAAAAACmPPKuG9WoR4Yjo9CXjmd1ep/wBRY9ptXMht+Oqzz9JWEcd258tec+O/8PE0fneTzrXlpdrHz+dupf3sew3/AJkcfR1N9m/ZrPZlRuc/avejWR/j9vgdoxqzeTSS208P31qUvEs6ADZnFwAAAAAAfqPw4Gv3ip0K9RvChQqSb7t2DZ49BVGLk0ltaR5wbWXfSXl5U/O6jd1f6S5q1P7xfLkGsuj0XTI4w3YUqjXdKsulkvPemzz0q1pOLk/pSi5Y+s+OM+Z6ZbJ2CpWttTXVTtaUV5KEUa3C6ZSfzrOw8uJejw2Go75yf4IKP6ztQAbM44AAACLuczrvQaLeNddZU7Zd76epGEseVPfl34i8Eolbuevqv8GsLdPjK8nXa71SozprPes137UizWdoSfR+xv8AIFD0+UcPB6s9SfCH1jXXm26yvnI/par6rp1J9Ur2m/6JSrP3Km37D0VKO807Rel1mlUa4W1rcVk+6coK3ivNxr1H+q/AvCY+EXNb3sk/LitnYynTX2KSv70pzf5VEAAzjnJoXL1rHQaNqMlJxlOyqUYNcGpV49Cmn2Nb7afY0a5+Cg2T39U1a+cf820uhaU5ccP5ZcOtWiuzMfkNBvPFKax1s17nmbQdHYW1sms3N5mS7XTt478mvKrKin+kWC/BWbMdFol7df7Xq88PhlRt6NKjurtwpqTw+2UiO5VqWi10Jdrv4I7jyNoejyfKo/8Ai1JNe7G0PzRmXVABDibgAAAAAAAAAAAAAAAAAAAAAAAAAAAAAAAAAAAAAAAAAAAAAAAAAAAAAAAAAAAAAAAAAAAAAAAAAAAAAAAAA+K1FSTi1lSTTXemsNe4+wAeEVpcy03aF49B6ftTVpSXVina6nOjVh4KVKE4Pwkz1F1ilvUppcfQyn344plCPwgPJpLT9pr6STVHUowv6LXBb1WKp3MYvg95XFOdVvsdZJPhhW95vXKAtU0eyuZfjOh6C4jwW7Xt26NXguqM3DpIdrpzg+GcExozuoyXQ/26tRD+VGHc6dOps50G/eV11aJcOsxg+61Ldbj6ra9zwfBIThDVtBHXOH0bp9Gv4Yy4UFWS625UJxrRx45gii2ymt/Jrq2uM7qo3VKpJ9WIRnFzef0N49JdU06NalUpT+jVpTpy8pxcX8GeZV5pk6Mp0KyxUoznRqrjjpKcnCeM4zHei8PtWH2mtxas4yOwciKsamHxGGlqUlK29VIuDt+BX4o9PYTyk11NJryfE/SPOQDbBXuk2k3Leq0aMbau39J1aEVByfjOKjU7M72ccUSGbGLuk95yjFYeWHrVKM/WpylF9TavwetdAABUYoAABSrne6a4atGpjCq2NFrxcJVIyfxivYbrzJtYWNQtu1ToXC8d+MqUsfo9FHPdvR7zJz1dmJONjex+jTlWtqvDq6XcqUZPuSlTqR8ZVIkU82vbCNnq9Fzlu07mnO0nl4inVlCVJyz29LThFPr9NrtZqvUr6dr8TtdOH0/k5mx0yjTeha1KjO9rb5Qgre8i+QANqcUAAAAAABqXK7pzraTqdKPGU9KvIxXfJ29TdXtlhG2nzVpqSafU00/JrDPHpRfoVXSqQqLXCUZdjT8jy3vob1OaX5VOSXtiz0/0jUFVpUqq4qrRhUX68VL7zzd2t2adndXNo1j5PcTpRWc+hF/N5b626bi/aXQ5rm2qu9Kp02/nbKbtametxilKjPxUqUopv14zXYazCu0nH50HX+W1H0+EoYmnphCT0/dqxi1LheEVxkiXQAbQ4yAAAAAAADjanqUKNOpWqPdp0qcqk5d0YJyb9yPD1JtpLS3oS6SjvOk1BVNauMP8XRoUn4SjT3mv3yX+ZRaNWl/UaaUr+EF3Po6EJNr21cZ7447GVZ2h2gnd3Fe6qZU7ivOs08ehvtuMMrrVOO7TT7VFF4ubTs78n0a04YlcQd08rDxcPfhn/luGPDBrKHOquXFnaeUi+hZGpYWWmX1NPrgs6TXReFutEoAA2hxUAAAAAAGgcv2s9Bo2ozzuuVpKjF907mUbeGPHfqpm/ldOeXtlGFrQsE053FVV6i9WjQl6DfdvVsbuevo5Y+gy1Vlmwb6DeZDwzxOPw9NK69JGUvci8+X9MX1lU9Gtt+tQp/nLmjTXi6lSMEva5YPTWlS3Uorqikl7FgoByAbLO71eyhjMKNZXdTrWFbNVIdXX88qSw+tN9eMP0BMXCR0N7/L/AFJny6rqVahRT0whKT/nkkuvmPqaAAM85gAAACmPPD17pNUp0FxVrZQz4VK8nUlF+PRxpS8pIuXWrKKcpNKMYuUm+Cikstt9ySyecfKRtOr3ULy7X0a9y5Q8acIxpUn/AEVOBhYqVo23s6LyIwrqYyddrRSg7P782opdcFUJ45lGkenqFx2KNCgvB+nUePNOOfYWnIW5pOyzt9JVWSxK9ualzx/N7sKNLH1ZQpKouv8AGPj3TSXqEbQXzrNBykxCr5SxEk7pSUPwRUH3xfHWAD8nNJNt4SWW31JLrfsL5GSnnPM1lVNQtaK/1eylJ8ep3FRN+XCjH3Hoj+D82WdpsjpKf0rmFzfN4xvQvbuvc0Xh91vUpRz24zwzg8otv9Wqavq9Xon6d7qVOztPy+FSrCztcJde+3Co4rPpTksvge5Ww2ytOxsrSypJRp2lnQtqaXVGFGnGnFLwSjwIblSpfRvlfqSt5n0vkvCvC4KhQeiUYK63SfPkvxSZ3gAI8bEAAAAAAAAAAAAAAAAAAAAAAAAAAAAAAAAAAAAAAAAAAAAAAAAAAAAAAAAAAAAAAAAAAAAAAAAAAAAAAAAAAAAqP+Ec5AXqukx1G3hKd7o0a1aMYJylXsqig7ykoxjKU5RVGncU4pb29ScY46WWaO8z7lyjpl47W5qKNhfYW8+Mbe6zGNKrvJ4jSqRzTqZTSfRTzFRqOXsxKKaaaymsNPimu5nk3z6+Z9PRbmpqVjS39HvKz3qVOlJx0erOGZU57qlGNnUlGcqdSW5CnKaoP+Jc9zgcRb6uX8vmvNdfQW61GGIpSo1NUl1p7GulPSi0W0VHdrS8cSXtX+J1pU7kL50cqMadlqk5TpQiqdC8k3OdGC+jSuG8ynCPVGtlySaUk91zLVafqFOrCFWlOFWnUipQqU5RnTqRksqUZxbjKLXFNNpomdGalFW1rWfPWWclV8BiJRqRebJtwmlzJJ6dD2PfF6Vws3nKa87fk8lb30b6EfmLyKVRpfi7qCw1Lwq01GUeHXCpl8Yp3KOg272Ko6ha1bSuswqxWJLG9SnF70KkO6UJJNd6ynwbQq08+Ntuzie5Cyo8m4uNZ6YPm1EvYbV2umLSkt9ramU25uHKzHTLyUK0mrS7dOFV8XGhUTap18Lqj6ThVkk3ubrfCmsXnhNNJppprKa4pp9TT7jzc242HuNOualrcxxODe7NJqncU8+jVp564yXWsvdlmLbaJd5BucnKxULO+c6losqlXzKpVtMvKhJPMp0OLxh5pLCScViGFQrZnMl/odF5S5B+nxWPwVpycU5Rjp9JBLROG+SjZZuuSSS5ytK44OHpGs0binGtQq061KazCpSnGpCa71KLa/wOYbM45KLi2pJprQ09DT3NbGAAelJrPKZsXHULC5tG1GVWjJU5NZVOtH0qM2u1RqKLaym1lZXWvOjVNLnTnUo1ouFSEpU6kHwcJRbjJZXj1SXWsNdh6c3NzGEZTnKMIRi5SlJqMYRSy3KTwkkuLbeEii/OQ2l027v3W0978nBK5rQS+T3M4pRhOm85nJQSjKoluyShhyaeNfioqylt+fA6nyHxlWNSphs2UqT5+elzYTSS5z1JTSstt4qys21Zjm+8r0dUtFGpJK8t4xhcR7aqwlG4ivVqdvqzUlx9FuVDzS2V2pr2VeldW03Tq023CXHdqR4wnCUeCqU3xjKL4ZXZKKauzyQ84O01OMac5Qtr3d9K3nNYqtJ70reUt3pY8M7qW/Fda7XXQrqSzZa/H9zW8pOTc8JOWIw0XKhK7cYq7pvamtfo9qlqj6srWTlKgAM058AAADXOUHbqjptpVuq79GEXuQWN+vUae5Shlpb05cMtpJZbaSbOHyicqtlpdPfuqqU3FunbxalcV8YXoU853ctJzeIRzxaKU8ovKPe65eUl0c5OdVUbKxo71V79R4jGEVjpa9TgpT3VwWFuxTMWtWUF0/OlkxyDyeq5RqRqVE4YdPnTejOt9iG++pyWiOnbZPi6ToWoa/qc4W1B3N/eSq1+ipuMVilT3n6U3GMYU6cI04uckm+jjnMknz+QzlSlpV9GpPeVtV+avKbhLfhFbyU9zhONWhU+lFxct3pIbu9uuPptzI+aNHZ61d3eRpz1i7p7tacUpKxt3JTVnRm+LTcYTrzjuqrVjBYcaNJkAfhB+Z3Up1K20Ol0nOlPdlqVnRpOc6VRyalf0o005ShPej8pioYpqMq7ko9M4xqnjU6tk+Et8tvU9n7o7lWw1GtRlhpxXopRzM1bI2ss3dm2Wa9jSZIdneQqQhUpyjOE4KcJxalGcZLMZRa4NNNNMzFI+QnnE1NN3ba53q9jKS3cPNSy3m8ypp/jKXHLpZTik9zPCDuTs7tNb3dKNe2rU69KXVOnJSWVwcXjjGUXlSjLEotNNIlFKqprRr3Hz9ljIlfJlRqacqTfMqpc1rYn7M98XubV1pOzABfI6AD8nNJNtpJLLb4JLvb7AD9Kv87Tlfi4vSbaeZb0ZX0o59GON6FtlPGZ5jUqLj6CjF8JyR2fLZzpadGMrXS5xq1pKUZ3cWpUbbs+ZeJRrVc9T/FxxnM/ouNua/zYbzai+cG69KwpS6S/1CUZSzmS3rejVm/nL2unJ72Z9Cs1aieaUK2sxWJjGLV9G1+R1bkvycnGccbi4uKjpp05LnOWypJPSlHXBO0m7S0RSzoyv+T+9p2NvqVS2qRsbu4rW9vcPG5Wq0MdJFLO8lxkoylFRm6dVRctxlr+a5yuxvLWNjWl/CrOlGEd7Obm3it2E1Jt706aShU45foyx6Tx6B7fcgGmahoz0OdvClYq3p0reFKMYuxdDDt6tDh6E6Mopp/lLejLKnJPx05UuS/U9mNU+TXG/Sr0anS2d5TUoUb+jCS3a9CXVKLTjGvbtydNydOalGcJVNTgsapSex7t8d/FbfgTzLGS4ZUw7oyebNPOhLdLp3xa0SXBrSkX8BC/I3zlLbUIwoXUqdre53VGUt2jdPsdGUsJTkuLotuSaeHNYZNBJozUldHz5jcDXwVV0q8HCS36mt8XqlF714gAFZgAA17bXb+006k613XhSjx3It5q15JZ3KVNenUnjsin44PG7aWXaVKdWShTi5SloUYptt9CWlnP2k2jo2lCpc3E1To0oOU5Pj5KK65Sk+EYri20jzy5RNuqmpXlW8qrddRqMIfmaMM9FTzl5cU25NNpzlNrCaRs3LJy23Gr1Yx3ZUbWE/mbZS3pTk3uxnV3eE6rziMUmobzScs7z0PZ2rb9NRlcb8rbpYOsqWHOdLOZKGWlxXc84zjjg1Netnuy1I7nybyE8mUpV6yvXnH1Y2bhHXmLY5yaWdptdJJ627Ycz/k8dC2q6hUT37xRjRTxiNvTcmpr+fm97OcbkKfVmWbCmv7C7T2V1b052NSlOhCEacY0sL5OoxSVKVNYdJwjhbkkmljh1GwGypxUYpLtOPZWxVXFYurWrRcJOVsySs4xXNjFp7YxST3u72gAF01AAIL5Zec7b2Snb2MqdzecYucWp29o03GW/KOVUqxaa6KL9F43msbronNQV2bDA4CvjqipUIOUnrf2Yr2pS1RXS9epXeg6/nX8rcaFvLTKLUq91Tauf5C2ksOL+vXWYpdkN9vGYqVXNidjauoXVGzo8JVp4c/zNNcalV54fNwzJJ8HLdjwydZf31StUnUqSnVrVqu9KUs1KlapUljxlKUpNRjFfVjFdSLo823kV/ybQdzcwSvriniSeHK0otqSoJ9kpOMZ1d3g5KMcyVOLNYr1532Lw+LOzVJUeTWTcyLUq0723zqtaZW9imrdFlFPnS0zBpmmwo06dKmt2nSpxpwXdGCUV8F7zkgG1OFNttt6W9b6QQPzpuV2NpbS0+hUxd3VNb7j9K3tpNqUm19GdZRlTh+UlvyWN1M7Pln5yFtp0ZULZwur3O64RmnStG1neryjn0oppqivTk3HO4m5Kt/I5yQantRqitqUqtSdWbq3t/Vi6lKypcXKrWlmMMv8XQt4OLk8RhGNOnUlTwMTiIwi0nxe5fE6TyY5OzqzjjMVFxpQalCMlpnLWpNP/hp2elc/QleNyePwavILK/1SWsV6claaU8W0msU7i/qQlFKPrq0pSc5cHFVKtHD3qclH1TNS5KeTG00bT7bTbKG5QtqSgm8dJWn11K9WSS361ablUqTf0pSfgjbSC4ir6Wbls1Lh++s7BJ3YABjFIAAAAAAAAAAAAAAAAAAAAAAAAAAAAAAAAAAAAAAAAAAAAAAAAAAAAAAAAAAAAAAAAAAAAAAAAAAAAAAAAAAAAONqOnU61OdKrCFWlUg4VKdSKnTqQksSjOMk4yjJPDTTTRyQAebHOW/Bo16Mp3ezaVW3xvT0urVl8oov0m/kderKSrQfopUK84Sh6TVWa3acae7P8oGqaPXqW9OrWtK1Gri4sq8OEJLLcattWjmG/ne3oKnKSalGeGpHvSadyi8j+l6tT6PUrG2vIpei61OMqlPxp1OFSDT4pwkmnh9aRtaOPlD1rv7ydpde/ue9nlSEKsXCrCM4vXGcVJPimmmeWGz3PUqJJXdiptLjO3q7m8+/o6qe75dJLzNgXPZsccbDUM+HyRr3u6T+BZDa38FXoNaTlaXmqWC7KMK9C7oLr4/wy3rXLfHtuWsJYSNYf4Jaz/8Avd7/APtbbP2r7DbxyrFL1u2Lv3fFkZnyWyXNuXoXG+yM6iXZnNLgvAqhyy84Ky1a3VL/ACdUjVhl0LipVgqlvJ4zhU97ehLHpU3JxlhPrimoNPTnQvwT+jQkpXGqavcJSy6cJWNvSmvVlu2c62H3wrQl3NEtbLcwPZO0xjSadw1xze1ri/y+HpbtzVqQi+GcQjGKy8JZZj1MoU5O7u30Rt428zfYLCUMDT9DQUlBNtJylKzeu2c3ZPXZWV7u12zyH2R5Rbuwm3Z3U6EpPelCLhKFT9KlUU6cspYbcM4xxWFib9nOefdQSjdWlGtjrqUZSoSl+pLpI5fa1JLPUl1L1NuOb5oUreVrLSNOdvLG9S+SUd14xj8jPYu0gjbT8GFs1dScreWo6bJycmrO6jUptvPDo7+jeRhBZ+hR6JLCSwjyllNLRzo96/bsZj4zJeCxumvRhKXtWzZ/ji4ydtibaKornsW3/wBvuf6Wj/2Oj13nq1WmrWxhB44Sr1XPdf6FOMVJeG/EslL8ErpueGtapu9qdOxcvZJWyX7r9htOyf4LLZ2hJSubjVdQ6s069zSt6OV3fIbe1rYfapV5J4885Msqxt676o6e9LxNVDkvkuDT9Dfoc6jXWnPT3nm9tTyoanq1WFCtXq3E61Tdo2VvDCqTeMQpW1GPSVnwylLpp9ueBa3m3/g1Ly7nG62hzZ2e7mNhSqtX9y28YuKtPEbSmlxxRq1K08r0rfdxP0J5O+RzS9Jh0enWFtaLGJOjSjGpU73Oph1Jtvi3KTy+L4m5GprZQlP1dH3m7vq3d/RYklOFOjD0dKEYRWqMIqK7I2V3t3kM8qnNI0TVdNpabO0ha07WG7Y1LSKoVdPaWE6TisSg/wAulVU4VOLa3sSXmBy+czXW9n3UrVqPyuwpznOGoWanUhRpU5KUKt3T3VUs5qPpyl85QpOMn07SUn7SgxaOKnT6Vufk9nzoLqk0eG2w/Oc1W1UUriN5QwkoXCVXEV+brw3auXw4znVjjqiuslbTeexDHz2nz3v5GvGUf/UhFv4Hofymc0DZzVnKd5pdDpp9dxbb9lcvHVmtbSpTks8d2TcW+tPLIG1n8E/os5OVDVNYoJv8W52FaEF3RcrFVP26k34927p5UVtLlHirrt0vuRocVkHJ2JedUoRUtrhen1tQcU3vbTbK43PPYoYe5p9fe7N+tTUfbuqTI92w52+qXCcbforGD65U4qtXx4VK0XCKfbu0lJdk1jjcW2/BL6Tn09Y1iUe6H+Tqcv2pWNRfukv8nXME2X06UakbB3laOGq2oVZXj3l1SjRlu2tOS6t6lQptrryVTyqraJN8FbvdvMtUOTuTKEs6NCMmtWe5VF+GcnHtieXfJRyH63tNXnOwozusz3a2oXNSULKlJJvdqXTjU3nHtpUIVqkN6OYRU459QOa3zKNP2cSuZtXuqyoqFW8nFxp0U+M6dpRbkqMHLg5vNaajFSnhKKsPaWkKcYwhGMIRSjGEIqMIJdSjFJJJdyWDMaSvi5VdC5q3X0vi/wDTpuSK+hJKyWhJarfAH5KOeD4p9nefoMEpKJ86T8G9SvJ1b/Z/orW6qVJVa9hVlKFndTk8zlbSSmrSrJ5l0aj8nnN/xG9KoUE1Knq2z95K3q/KtLvMcac0odNHh6cIzU6FzT6l0kFVgnmOU1KK95zp9qdj7S+pOheW1C6oy66denCrDisZxNNJ44ZWGbKjjpw0S5yWp3tJde3x6RJRnFwnFSi9cZJSTW5p3TXE8gtmeeXe00o3VtQuO+pTcrebXZmHpwcu9rcXdFdRt0eexbdun3OfCtRa+OPsLdbb/g0NmLtylRp3umyk1l2FylTWOyFC7p3dvTjjhilSgsdz4mgT/BLaXnhrOrY7Mx09v2tWcU/cjcRyqres1xjfwv4kcq8msl1ZZzoZr+7KcV+GMrLqSRW3WuetNrFtYKL769be3fHdpx4+W8vMhnbTlm1PUpKjcXM5qtJQhZ28OjhVlLgqdOjTUq1eU3wUJyrSfUs9R6L7M/grNn6UlK5u9Wvl20qtzb21J+2ytba4XsuOr3lkeTbkI0fR1jTdOtbWT+lUp0068+G7mdaW9Vk2uDcptvtyWauVE1ZOUv6V89Rm4PI2AwbzqNCKktUpXnJdKlNycX0xsedHNz/Bw6jqMqVzrSnpuntQn8nUt3U7uOc9G47uLOEopb05SddKTShSkt+PppsJsHZ6Za0bKwt6dta0I7tOlTWEstylKTbcp1JybnOpNynObcpSk22d+DSVsROrr1blq/16TcOTYNB5aOQ/Ttfs3Z6jQVWClv0asW6dxaVUsKrQqx9KEscJLjCpFuE4zjKUXvwLEZOLunZraik8ducJzC9Z0V1qtGk9U0xS9C4toSqXdKk1l/LLSMMxcX6Lnb9NTksVGqCcoU402C5yGp2iiqV1G5oLCVK4xcQS7dyqmq0X3fOuC9R8c+6hFPKfzWdA1hynf6Zb1Kslh3FNStbvGW+FxbypVllvLe/x7cm4o5RcfWT4x+GrvS6C1XoUcTDMr04VI7pRUrPer6n0qzPN/SuewsfP6e8/yNdNefzkF7vicyvz2KGPR0+vns3q1JL91SZZLXfwUWh1JOVDUdYtk+qkqtlXpQ6uEXWsZV328Z1pvL6+GDr7b8EvpOfT1nWHHugtOpy/alY1F1Z/J7u7D2SypG3r/wBOnwsR2XJbJTd/QtdCqVLfnKhbV87/AFKtFxtoUbJPhvxXyisvGLqx6KL780p+DXWaXsFye6ztNdSjZUq+o1lJRrXE5/we13n1V7iXzVFfldFHM2syjTlh49Rtgvweey1g4zdlUv6scfOajXndJtdT+Tro7RNPipRt4vPbwWLE6ZpVKhTjSo06dKnBYhTpwjTpwXdGMUopeSMKtlPO1Xl72hdi19xu8JgMLg1bD0YQ+8lzmtzm7za6HKxVXmo8we00Por7UXTvtXjGTjKO+7LT3Pg421Oaj0tRR9H5VVpqpxluQoKcovoudJ+DrtdSdW+0TobHUZt1KlvNyp6ffzbzKTUI1Ha1pZbdSlTdOcvpwzOVVXRBqfpFTPz76e6262751mdnM8HNqdnNX2cveiuYXOl3b3lTk/RhdxpvG9QqelQuqcd5PC6Tc3470YOW6SNsrzxdQpRUbqjQu8YXSL+DVWsdclCLpSk36kKUfDhx9i9oNnLe7pSoXVClcUZpqVKtTjVpyymuMZprOG+PWslbtu/wbuy965SpW9zps5Y9LTrjooRS7I21eFzZx8426fibejlO2h3jw0rservMDF5PwmNX/maMJv2rWnbcpq00ujOt0FOqfPYt8cdPuM9uK1Jr44fwOu1fnrvH8H0/D48a9dYXc8U4PPllefaWOqfgltLz6Os6ul2b0dPk/a1ZxT/ZR3Gzn4KfQaUlK5vtXvF20p17W3oy4rttrOlcJ9mY3C6324azHlSNvX7I6fBGljyXyVFp+hb6HUqNdfPPPfbvnBane5jXu+hozaiqFBRt6Um3wW9xrVHLgt2VWUW+qKzgjm0vKclinOEkuGISi93HZhPhjuPdbkx5tuh6Nh6dpttQqKOOncXWupL61xWdSvJ9m9KbeO07zbbkh0rUouN/p9ndp9br29OpJ/rOO98TAllJSemMn0tq/ZbzJJQpUcPHMo04047oRUVfe0lpfS9L3niVyS7dUNOu1dV7NXbgl0Wam47aXHeqQi04SqNNKMpY3MPH03iwkOezZflWF/n6rtZL3yuIP90tPt3+DE2bu252zv8ATJttv5JcqrRk+xOje07uMIL1LfoEaDL8EtZdmt32OzetrVv2tbqfsijMp5ThFaHbocdPdfxNTjsiYLH1PS4iEpSSSv6SolZbFFSzVvdkrttu7bZBWo89mjh9Bp9dy7Onq0qa9qpOq/cyH9v+czqd2pKVxGzt2mnTt8Usxf5yvLNVtcVmEqUXnjHKTV5NI/BNaXGSdxq+qVYppuFKNlbqaX5LlK2rySfU91xljOHF4asNyVc0bZ7RnGdlp1Lp44xc3DleXWU85Vau5yh6XpbtPcjF/RjFJJU1cqJrQ2+hLNXW3p7mUYXIOTsLLOp0IuS1Od6luCm2k1vSTWxnmzzeOYjrGuunXrRlpmmye9K5uKco3VeG9x+SWs4pyc+LjXr7lLGKiVdOMZ+p/I/yL6doVmrLTbdUaW/0lSTbnWuqzjGMq1erLM6tRxjGOZPEYxjCKjGMYreQaOtiZ1dD0LcvPf8ANkjfOTYABiFIAAAAAAAAAAAAAAAAAAAAAAAAAAAAAAAAAAAAAAAAAAAAAAAAAAAAAAAAAAAAAAAAAAAAAAAAAAAAAAAAAAAAAAAAAAAAAAAAAAAAAAAAAAAAAAAAAAAAAAAAAAAAAAAAAAAAAAAAAAAAAAAAAAAAAAAAAAAAAAAAAAAAAAAAAAAAAAAAAAAAAAAAAAAAAAAAAAAAAAAAAAAAAAAAAAAAAAAAAAAAAAAAAAAAAAAAAAAAAAAAAAAAAAAAAAAAAAAAAAAAAAAAAAAAAAAAAAAAAAAAAAAAAAAAAAAAAAAAAAAAAAAAAAAAAAAAAAAAAAAAAAAAAAAAAAAAAAAAAAAAAAAAAAAAAAAAAAAAAAAAAAAAAAAAAAAAAAAAAAAAAAAAAAAAAAAAAAAAAAAAAAAAAAAAAAAAAAAAAAAAAAAAAAAAAAAAAAAAAAAAAAAAAAAAAAAAAAAAAAAAAAAAAAAAAAAAAAAAAAAAAAAAAAAAAAAAAAAAAAAAAAAAAAAAAAAAAAAAAAAAAAAAAAAAAAAAAAAAAAAAAAAAAAAAAAAAAAAAAAAAAAAAAAAAAAAAAAAAAAAAAAAAAAAAAAAAAAAAAAAAAAAAAAAAAAAAAAAAAAAAAAAAAAAAAAAAAAAAAAAAAAAAAAAAAAAAAAAAAAAAAAAAAAAAAAAAAAAAAAAAAAAAAAAAAAAAAAAAAAAAAAAAAAAAAAAAAAAAAAAAAAAAAAAAB//Z;" vertex="1" parent="1">
          <mxGeometry x="-497.45000000000005" y="1008.2700000000001" width="67.45" height="67.45" as="geometry" />
        </mxCell>
        <mxCell id="j-9rDOzRSI_zfjBaEmqv-196" value="" style="edgeStyle=orthogonalEdgeStyle;rounded=0;orthogonalLoop=1;jettySize=auto;html=1;" edge="1" parent="1" source="j-9rDOzRSI_zfjBaEmqv-197" target="j-9rDOzRSI_zfjBaEmqv-199">
          <mxGeometry relative="1" as="geometry" />
        </mxCell>
        <mxCell id="j-9rDOzRSI_zfjBaEmqv-197" value="" style="aspect=fixed;sketch=0;html=1;dashed=0;whitespace=wrap;verticalLabelPosition=bottom;verticalAlign=top;fillColor=#2875E2;strokeColor=#ffffff;points=[[0.005,0.63,0],[0.1,0.2,0],[0.9,0.2,0],[0.5,0,0],[0.995,0.63,0],[0.72,0.99,0],[0.5,1,0],[0.28,0.99,0]];shape=mxgraph.kubernetes.icon2;prIcon=svc" vertex="1" parent="1">
          <mxGeometry x="-811.2500000000001" y="1018" width="50" height="48" as="geometry" />
        </mxCell>
        <mxCell id="j-9rDOzRSI_zfjBaEmqv-198" value="LB SVC&lt;div&gt;Hōko&#39;s Indexing DB&lt;/div&gt;" style="text;html=1;align=center;verticalAlign=middle;whiteSpace=wrap;rounded=0;" vertex="1" parent="1">
          <mxGeometry x="-852.5" y="1078" width="132.5" height="30" as="geometry" />
        </mxCell>
        <mxCell id="j-9rDOzRSI_zfjBaEmqv-203" style="edgeStyle=orthogonalEdgeStyle;rounded=0;orthogonalLoop=1;jettySize=auto;html=1;" edge="1" parent="1" source="j-9rDOzRSI_zfjBaEmqv-199" target="j-9rDOzRSI_zfjBaEmqv-195">
          <mxGeometry relative="1" as="geometry" />
        </mxCell>
        <mxCell id="j-9rDOzRSI_zfjBaEmqv-199" value="" style="aspect=fixed;sketch=0;html=1;dashed=0;whitespace=wrap;verticalLabelPosition=bottom;verticalAlign=top;fillColor=#2875E2;strokeColor=#ffffff;points=[[0.005,0.63,0],[0.1,0.2,0],[0.9,0.2,0],[0.5,0,0],[0.995,0.63,0],[0.72,0.99,0],[0.5,1,0],[0.28,0.99,0]];shape=mxgraph.kubernetes.icon2;prIcon=pod" vertex="1" parent="1">
          <mxGeometry x="-661.2500000000001" y="1018" width="50" height="48" as="geometry" />
        </mxCell>
        <mxCell id="j-9rDOzRSI_zfjBaEmqv-200" value="Pod&amp;nbsp;&lt;div&gt;Hōko&#39;s Indexing DB&lt;/div&gt;" style="text;html=1;align=center;verticalAlign=middle;whiteSpace=wrap;rounded=0;" vertex="1" parent="1">
          <mxGeometry x="-702.5000000000001" y="1078" width="132.5" height="30" as="geometry" />
        </mxCell>
        <mxCell id="j-9rDOzRSI_zfjBaEmqv-201" style="rounded=0;orthogonalLoop=1;jettySize=auto;html=1;entryX=0.005;entryY=0.63;entryDx=0;entryDy=0;entryPerimeter=0;" edge="1" parent="1" source="j-9rDOzRSI_zfjBaEmqv-5" target="j-9rDOzRSI_zfjBaEmqv-197">
          <mxGeometry relative="1" as="geometry" />
        </mxCell>
        <mxCell id="j-9rDOzRSI_zfjBaEmqv-202" value="gRPC" style="edgeLabel;html=1;align=center;verticalAlign=middle;resizable=0;points=[];" vertex="1" connectable="0" parent="j-9rDOzRSI_zfjBaEmqv-201">
          <mxGeometry x="0.006" y="2" relative="1" as="geometry">
            <mxPoint as="offset" />
          </mxGeometry>
        </mxCell>
        <mxCell id="j-9rDOzRSI_zfjBaEmqv-204" value="" style="shape=image;verticalLabelPosition=bottom;labelBackgroundColor=default;verticalAlign=top;aspect=fixed;imageAspect=0;image=data:image/png,iVBORw0KGgoAAAANSUhEUgAAAOsAAADWCAMAAAAHMIWUAAAAclBMVEX///8IfqQAfKMAeaEAdp8Ac50Ad58AcpwAf6X7/v71+vvy+Prh7fLV5u3t9fiJt8vB2ePd6/AniKu51OAyjK52rcRlpL6qy9mWv9FYnbnO4elDk7JAkrGhxtaAs8hQmrd8sMayz9y81+KbwtJvp7+nyNfXAcy7AAAVg0lEQVR4nO1d65aiuhJuk4DgBRRBEVG0td//FQ94IZVLhYQG9py1uvafPTMaU0mlbvmq8vX1R3/0R3/0R3/0f0WrXX7ZV6fqcY0PRTTAgFFxiC+P6nTMLvlmiAGHocVuP/MYpaQmSiljnl/lxaL3eOH6XlGP1SPS94jz4HjrP95wtN5TRmYi1TNktN/0wu/HzKt5lEdkdL8efO5utK7mVJ7Xh1/f228chyv2tYBoh5sROj/+l9yG2VzP6JsoC/Kl9WiLc+IhjL7ZnWfhiNwYqSDGqb3ZzVZWg0UX9Syoo5FiZJ4Qus87OX3Oz3t0cxtl2FmQaH6fgDOFHp4Vq7Pn3prVVHjBTqlK3mMi/gDtme3sntzmhqHO1JrTmth+Mh7f9FBYbcwrLoZ+gunkIsHPqXZENvHO5p40J+aTJD2VSb2FTHvyiLfXqeTF3tN+uhlmlpRlEtT/J33CMwnJ4FTMxYnR/e3jxy23u7hUptcQpQdloJtOldfclfFu+16axfpQScs3n1AbLwKRh1xWPbXbWG+0urWVuLWLo6rfCGOPjTzeMhePdDCdnd1TOLdM+5nwVqqeAfW/wUc2qk6irNrpfzODokIn009rKMEM9wPXe5Vbj69MJm9qfUizLTraBmrD+VTuYgpWmOGT+2pcBMVw0uTlWawS5V/oxehQbgGzJB2QHwPt+G8S1rW+0UPWs4Td6r+/ydqLsGuX67wG3/EQUR+YUrdf3J4kWSXe5esirQDxjhZu846PNM3GbvgPUr1akmkXSOJKZaXEUE9DpAf/nucaL/ahI98RW9UfXo2xH/Fiy98OwZeOvTmwpoif1ufBs6N1grvPLDXqN4EO4NfHz0LdWzEiicv3LlhYZL2pT0paAaHjR3dl+2NMdflMVMin9jXjmZu/xzeWlE5f7EFchAl1/Gp4VOWYHV29Pe4Zjy7E3LjSq/OXz3IERM/OY1xb6WBjm1juCns93LRUsqo9jOS6Pfd07DiW74x7rLFIZMtDE+ccctjGWMR3/a4brfiqOocaS8UD7sUskKxxDywPNnx74/qiZaBNQAT2CeQX3fz2wI7rOuV8Ue3Svi0tFQF+M5s4MgtEa9xcDHcQHQ/LQrurr511FGNu9cZ1E5P2d05O3xPVEhECOuJ4Zk/tl50cN1datDlMenH5XphCtUSTtaCmaOqk0i+f75LZmBeV3GtycxBLmTWJeSd3j7uJo3pOa/4zLjrwKDLW7GIosu9y8rgt6OPOWNM359XhZ/a+wOr7bwVmfQcfCCz4d/enexMXHwc7foEuP+U67QSZZfbnP2qNjmOk5UY8eKXW6uQHBq7CyRR21vuxHTBsxaRH6GBP3JWY2fK6gclkUeOKCmpuqwHCWWsMxnQm4nZytp7/FppS2ZIKVpf4lqkY7v1Tp5SGI7WmzdaMR/BSUfWQBG+KzCy9xdahcTPyjpS1ZtySVxiwEqLqM3EtLMNZzqtdzrYfcV7tpvUQVK1ORreCkrazPO0CTsOrnQzfgQrGrkMKqKY9q9zgNPvqdl5FNrDs0E34lE1WcZrz6qSHI8F84uZBwCPQbh9lIj0cO9jXEBoUo7RlYFFI0j3wNPbVxW8SHP5kc7jH8TV77I9VVZZpWZ6q6rjfX+P8fvhOwCe781ghT9uOmfq/cX+4yxaexTuNJ0T2hZIF9PwrJqbIvS7HD/jDrjkvF+Jxjoc6OeFqc89OmpyhLdHk9Lh/b9E4fMt5HTPOKXg4pVGY4fYW7wPWbKEVthAl0mw2C47xbas5KuZJDEY8hyfH6qtdfGKe/0smZZZ9j5bZQWIYCJdjLtOJeA4GhFNhkVcEQav15ZL/X4NgI6d4w/XDmd/ojJmDWcyk3NqiiEtvUDa1rNcMz9PL94u1iXJrIGdam4btvaKj88kZbqB7eX1C99PkTGFu9hJoahDG55dmfL2rUXkFLk4Po9KsDDSv8GDas8tnMKbrDx0n26k1/oLPnlSLe5Akae0yvZynJEnqjXr948vNcBt7ZMTExgUNXs8mKI/X+/m2KbarSO9VhtFquy125zyrSkcHZNR7usVP6rT0ne6eTGfrGoKGSHp3vdC0pW3mmatKGk0JE0hO2fwXCQFD0GW0CfUe9tgoe9pUpkKhmk0vOOab5RFOzt38LeCYx2gXVzOz+aZeNbQk71J0SxtD75fxy9ADsGI/pDpE178gh6vdNTFtMGHpkICYW4Bx2hi86r7+qJ0QgON7YIIaugLpaZMf0SYuKVrDQ1gwVHC3w7CEpHbcYqH4E5hf0hOTH4ITLxjQxebaeC/6qbBkiL0tcOmtfiTfG4Lje6PUoRTLx2B7P2EC5qW/DfAiffnMc3Q1RQwyTD0luCEgxZqUO2r1iLf/VdiTm+rc5rKajfk9qxsGVSKwZL6cKVwYChbNlWxm0oJ++TyUcB3oYKs8L0YwryyH48Bx05WfJT1PTqwR39qccQCvtOYVkODfQQWhipPwNjxrS3QG3x5iDmml2VRG4iVHJEoHdgcvNH5XFwVNl3Rf0B5XQr+WMdHMMXFOzCg1JbWFSX4aFrgmpNAbNczPnb7Bugm2a8m3tdnw8Ee1/MQ1k5qpVTUfC8bv1oUDG/Ml7uEHywT8Ygalkh/XT85/p5SUEs8lrl2UsmwAW11o0dIR1Ce/T3lhw/GTzPOlqq/jl9aeeCTHkUI1J79igPkeUE7oD3HLcgdiAm49+G0IROAf5Hofagvo3Er5AcIugqrhoQw3CGtQETVMxgsYWQ7Z4il/EXcZXiRBJsQq1tuKPidhJ0mx/WiSxMB1G6ggCkRM3O6A1LAEEVqdRG6tkCYrkVXqK3gpfu3fTgLWnQ0FdAXqqV0+vqRMsSwHaY9op+2JRHeEVRrB54fmc1sHBK47Fx8uoyjqPk+gwOtzLJZ8STUHZXkSdJQOiiLOQ4Q06ztXcOf8DYQHlV9dV91FXAY+85gflHGHH3kBduclXBz+rg8tcrGMviOqFDCCBOlIwq3OS0OEcH1M40e1o8PdLlq7YaalXyjDcq2I3NAVglqlxly5CJNMsZmA2qvGkAFkgawyIC01Rc4sMwjzGRQKNnZsAWqukK9EAuyPGYRMaKXA8FXhxrSpfVra2ZubtjsIpQaPDrqdS6HmC48tKjuMI0ziGVuRfAtCfNEoTJWwoL8OsdHvgGrx5l4QiLDhQl1o3oIeWYgyM5oOIEzeYskbSeCXSeEJvzBgFXrGeVEm8ZcL7khQkw8Ic8xYegT4Ph3HGlwLshs4rTgmvTTkN2rFgH0NRO005sCUDqwMFGNkSnwRO1FGQIhLbqXwepmjiVWTEPH4nwSllQh/icgqfZUszHx0ocdCILfAO8TcsnvXjRfDbtxgXof/ZBe4KgIFBtpsEEiheJ1Ymodmo1DJ2nbfSKHLtNf9UGeGB8T6Oh0CJmSRLdLdTaou6puwnC4gtIxLt04Wd5FgLzTTAkkro5Z7U6DMAF2hjc1FI2qt9upCBd3TA5ZC47Xyyfs2t6axIltzbFvL7m01VNpvlYSwFbr0rs0ovIcEi2+TBFzJQoye1rXd/TFqrxQdjp4VSKDrhqILeBRsCcqVDyE6A1UCtIT+rHxiLSs0+c8qVTzAO7C7qb6JG4ubd0vYAV5BcBQHsEyJbnHPg8fftukiCQmLrdDSFgKBonSljcVCHJk4R5IuC/mOXy3HyoRQF/Upiy4/ouUBDd2F42INauLzk+zKSpMv6yBB5+B3VQdrXtFCQMFoWdeBgjycqEq4dNuDhsBBNJTr5HaqyQjeT6x+SSLu7kgaCNSUWt8mHkD6G7/AsVTDRv0P81nWZaAAUi2KwrYHrwCvR/HUyxC8nsEvWePyCmxfVz1kGFRfGHIvQ8gwcEjtbxVQGQa6yXbhhKoqvOfOzVY34Y1IdnAI6xt7Lna+GKECm2N7JS5EW7jKGMDmCN6IdR8aHurI4S5XdRZRREML0cKjy72w9iWw6Krw7D4nERd8Wez5Klh2GDiL+4U7E1ZhjqmlmOR5m1LQgNZ4gpWrdcviQ9nNRW28pXJCVVMh+/52Fhb075IXZ9WGiVahuhqpoRurRH96ss9qWHlOMK2rjJyYAnmVMjVWx6ZQWcXq2FLJ22rpsYM0i2qlgKhZlPiEKggSzZgWNr3xUQCuulKdacQv4UJTs3VA1Cyui3e63BoW1llsLJp7V7fVqoHe0Zhbg/ayu/fIUTN9dGNXnQ8yEPS06tapu0cVcKC1H4aAWLzi80VLLSoQVRqHLhvrYYu71uXCZ6zjVh5G93o1Avaqqy/YoU2sk4q7xXgmKDPrYqTl+JdgnBO+xR197WCHDkTnQePQ0T2K/yz7BtlJ3FfVtPcErKIyCVLu7Awukcw3a/CiDDscMWTWlK0DIuyFAEFgaKdqeL3DAKmDQXoY8iGMQgxxEDiuTOgcgN+KgtilOfnQWuEaMkfvmvFYDnYbzoW7ZlyIQ3gjaYgABWfI0PEN/OhOtLWGwKHQlkiwxBCjwaUPoaHDNfFCAEyYXKxcwIZgSNxQ8idBGOCbot/7TEbSsZnp81BgGp8W+n3IPqyEJsfMmCcUg1IkR8E1BnkFk1z2zc50eE+eVVTP/yjzkrvJA1py1t6yCOQJm5lLqCv2bJxrXWMAbH2dz2/gc13N429/HmVAKAnK7KfDiAOX+32RDoAwWn12EVqwd6ZrpA6rfqqRYx4Ff0QJtvy3uFlaLC1CKXCl/tHvQBNrFMMqhf36bLrCSoBEotaBcA3W2jkIqXVr/okThK5+VAy366rWySWg6cwCsb2S4MMslYYFTWHas3+0sjsuBEol+LkDt4mSUlunUp5kZlXiEEktZYn3EEQOLG47HvS5hnncBuRJue+zUkXqSUv51Q8SWOLwFwoGnuV8/guuhcHhB4Vhg3RVAil0qO648834jEKlPMyhXbXSnb42hK24glIKMAmAXhuidQlPCdW/DeYNskit1TnPlEoMp076seK++sHPa4BY83NfgkMxgHoC8Y2QGgML/ZKe8CcQtO9zrR0F61tNsvjk+a4Vty+i3wCx4b/tMwpjbSGeWFDh75c5UTgl1LnTUaTU6DQA2GwVir/GScC9/a4/wBIcPynW5htOv7YPX83HsrJPdVCupk4I9cC2SqIC7M4v396CI0kOEsgPppoqZ407YEcrzdYaakIjqJ5+U7giVCFKCrWjJrTsrxaVgiZICpjjPoyRhZBt5eSboCa6x/5cfveK1nBrADPALf5FBSyItTSJjkQ3lednvetv2zltK5TbVK46EWrz+0oxbFg8l0KhdYyxSrxqiA4iRYmlT6gHHpJs6ALzH/1WGb7fKNRhRLe9j/VcIF45VJu5TYrtbdP+LcluH40g9NLop4uhBLenZHXLEoY2riNeOmSflMLQDabmlwWP87OpBoQi9apuhp1cn3FbWJz3Ac7ns4R+6NaB64fxneGmo+HpcltBuK9FH1aZImDTa8fl55E2baxMv8seYzT5j3K0LcyLnhsM/+zuF4uX8J09jdjsPlrbwG8LODuca+xmZcNY8W6NrJ7G7PEJs2g2RGfJaR/fD7vNeqsvA11Gq3WxO5zz7FgmFu+1C0s51VtBdvTqRftqLec37eOCIGnay6VJEgRN39JP2znao//gyG8FcbgM6dMEkrz5f7fM6zGC0DNw3IfMuO5Iz01zzx6T/Q1R5qX3tGV73JcHeVvyek2Xu0fQzW+fzUP4DLLdEsrWVO8ivd231WE/G31/G+8seBzeDu/07yKBLNDq8EiaJq5D7aDIJmU+8EJr+pmmJy9oXy0H6sV9nzKTL9eDzVpBp4+fQuIIvIs0RnPED3W0r14Ut/jYq4m21Bqi4ZJUl9ta54tM1EN7Z7Ok4bZpjt7/CJMqu++2eHYOCNeYL4WCN6C6MoUSzuftMPC29+8/PNvUCp+cdzHA0zCj9rznblM3Tk7A+STrphVtfGleM2ieMzjuH9kljvP7z25TrGGyAcf/fGiitwyc3uOAqFtj4A4v8y38A14WONG7SK5vjxjaWggNPEh3Fn2it0euTi6L+KYMhtM4O1dVceftaj91Z3J8K0hkA4FzCJ+xSvBO81ZQ64paAtEzEHsTLYKvgFk73xF+/y+9ASU/mqna5K3w75Y5m3/xDagv+VE2pXtUx5NuCP2Db0A9SVDGMopBRGbYph0n0sOtL0Gsu3gKylh8eFB87Ne6sDXkgeWYSZizg9/0IeGdMgjakFi19m2B3zTm25m93kS9i+jVD7MSItTe3ZvoDahNr3BK7Gz23lkRWOTw/CuM6cZMmuKxupEeIrONG7gUWHV51neqWF2fg+kmoQkaSaKvSDirbv0jeQ7Gn+hdpKvTF0Vmg41obNzewQEQuYneRXLLzYrPbotAM1t36UM8Vhz3XSTQSsXti+J7xQKrbi/Jf31x/OXvkEVdxBMTrqBDjFlnVrfTpCUEo+OKrwm1LwE5swps/Mj3dBEv4XDuvavbWVo646B4gcN8TDVcUztLe4+4pVDpkkhP7oOA0Mj1u46ka05uT1KRe5+LNn1r9lEIAHjdbz8vyr66B2WgYcK4x1UoG2SO8helKhrCR/v+IgS60LNRPYmGQMtuN5WvvgTxFGPHWIUXkYz86mBDvMzXtsPIkxZHBCBKvKPL/oDWhr8Fn3fTgvNqLBQUaWeAuFBifwUFYLv+6CIMbySIbYYowjb1Td7RdiDQznJcB/FFADhrGaDkMsqOyaWw1NLdA+FS7/e0nAhg12zU0ybwJaXk5eL78Y2IsMTCggAJnkAzNSRgSbtmWJyUxjGk+c5GRlcQ79S1U7A57kAvYXQS2Fhi/s21Cipn5esmbqkUThBWGbndgLEm2lapdawhAfitAZSDmii1tqveW3zphHSkDI4fj4QmP6zSKtFVrEHg0gA60UWgGCLCglgbGEeVkJ8b90VfgcRKby+TV3mbpzocudJJQtd1gnppLrO7Ems+B3qix46kTlXUK+/F693eMCoOD/27jzRQBXSjbu2zZiLJDu8Bv6JNXkoLZ30dMgjJ3Wya90JJkgS1EDI9Yo94F12sEOoLgBocl98876wDh3tjpvs1pCqWZycFFGnpldherBWrxAec6Qbs9dzer+ji8LQyYTPTVuyUYl0TeWNeuiJkzSyhnXeHuT3yevpdbeiGl9pBoizuxvEsjC+SgnWb+qx+aIs9+Avmxma5Xd3vIpe7xWjITybzIRSKTW9zPyuDXbbhVqJvFD+J/jfy+6HVY47eXTB6cbWD2wtisZrx5tnv+xv8jqIsUAzgs4fPpR+4d3PVVM/VEhJcR858W1G4uZTeq/qGNgU3Hkuz22/O1eqwT+lzxBfstl6465ioaEdaFLd7vN9n8f1WDCNpq2bEbH+JzzstOvyP/uiP/uiP/ugfpv8BaAcEJRLcnhcAAAAASUVORK5CYII=;" vertex="1" parent="1">
          <mxGeometry x="-828.75" y="1136" width="70.21" height="63.93" as="geometry" />
        </mxCell>
        <mxCell id="j-9rDOzRSI_zfjBaEmqv-206" value="" style="edgeStyle=orthogonalEdgeStyle;rounded=0;orthogonalLoop=1;jettySize=auto;html=1;" edge="1" parent="1" source="j-9rDOzRSI_zfjBaEmqv-207" target="j-9rDOzRSI_zfjBaEmqv-209">
          <mxGeometry relative="1" as="geometry" />
        </mxCell>
        <mxCell id="j-9rDOzRSI_zfjBaEmqv-207" value="" style="aspect=fixed;sketch=0;html=1;dashed=0;whitespace=wrap;verticalLabelPosition=bottom;verticalAlign=top;fillColor=#2875E2;strokeColor=#ffffff;points=[[0.005,0.63,0],[0.1,0.2,0],[0.9,0.2,0],[0.5,0,0],[0.995,0.63,0],[0.72,0.99,0],[0.5,1,0],[0.28,0.99,0]];shape=mxgraph.kubernetes.icon2;prIcon=svc" vertex="1" parent="1">
          <mxGeometry x="-536.1400000000001" y="680" width="50" height="48" as="geometry" />
        </mxCell>
        <mxCell id="j-9rDOzRSI_zfjBaEmqv-208" value="LB SVC&lt;div&gt;Hōko&#39;s Worker&lt;/div&gt;" style="text;html=1;align=center;verticalAlign=middle;whiteSpace=wrap;rounded=0;" vertex="1" parent="1">
          <mxGeometry x="-577.39" y="740" width="132.5" height="30" as="geometry" />
        </mxCell>
        <mxCell id="j-9rDOzRSI_zfjBaEmqv-209" value="" style="aspect=fixed;sketch=0;html=1;dashed=0;whitespace=wrap;verticalLabelPosition=bottom;verticalAlign=top;fillColor=#2875E2;strokeColor=#ffffff;points=[[0.005,0.63,0],[0.1,0.2,0],[0.9,0.2,0],[0.5,0,0],[0.995,0.63,0],[0.72,0.99,0],[0.5,1,0],[0.28,0.99,0]];shape=mxgraph.kubernetes.icon2;prIcon=pod" vertex="1" parent="1">
          <mxGeometry x="-386.1400000000001" y="680" width="50" height="48" as="geometry" />
        </mxCell>
        <mxCell id="j-9rDOzRSI_zfjBaEmqv-210" value="Pod&amp;nbsp;&lt;div&gt;Hōko&#39;s Worker&lt;/div&gt;" style="text;html=1;align=center;verticalAlign=middle;whiteSpace=wrap;rounded=0;" vertex="1" parent="1">
          <mxGeometry x="-427.3900000000001" y="740" width="132.5" height="30" as="geometry" />
        </mxCell>
        <mxCell id="j-9rDOzRSI_zfjBaEmqv-213" style="edgeStyle=orthogonalEdgeStyle;rounded=0;orthogonalLoop=1;jettySize=auto;html=1;exitX=0.5;exitY=0;exitDx=0;exitDy=0;exitPerimeter=0;entryX=0.005;entryY=0.63;entryDx=0;entryDy=0;entryPerimeter=0;" edge="1" parent="1" source="j-9rDOzRSI_zfjBaEmqv-5" target="j-9rDOzRSI_zfjBaEmqv-207">
          <mxGeometry relative="1" as="geometry" />
        </mxCell>
        <mxCell id="j-9rDOzRSI_zfjBaEmqv-215" value="gRPC" style="edgeLabel;html=1;align=center;verticalAlign=middle;resizable=0;points=[];" vertex="1" connectable="0" parent="j-9rDOzRSI_zfjBaEmqv-213">
          <mxGeometry x="-0.5266" y="1" relative="1" as="geometry">
            <mxPoint as="offset" />
          </mxGeometry>
        </mxCell>
        <mxCell id="j-9rDOzRSI_zfjBaEmqv-216" value="" style="rounded=0;whiteSpace=wrap;html=1;fillColor=none;strokeColor=#999900;" vertex="1" parent="1">
          <mxGeometry x="-1480" y="680" width="1220" height="540" as="geometry" />
        </mxCell>
      </root>
    </mxGraphModel>
  </diagram>
</mxfile>
